<svg xmlns="http://www.w3.org/2000/svg" width="16" height="15" viewBox="0 0 16 15">
    <g fill="none" fill-rule="nonzero">
        <path fill="#FFF4C1" d="M14.266.023H.872a.86.86 0 0 0-.86.86v3.49c0 .476.385.86.86.86h5.025l1.36 1.57c.141.162.43.158.563-.008l1.26-1.561h5.186a.86.86 0 0 0 .86-.86V.883a.86.86 0 0 0-.86-.86z"/>
        <path fill="#FFC34C" d="M1.507 1.454l-.26.526a.184.184 0 0 1-.138.1l-.58.084a.147.147 0 0 0-.081.251l.42.41a.184.184 0 0 1 .052.162l-.099.577c-.02.12.106.212.214.155l.518-.272a.184.184 0 0 1 .171 0l.519.272a.147.147 0 0 0 .213-.155l-.099-.577c-.01-.06.01-.12.053-.163l.42-.409a.147.147 0 0 0-.082-.25l-.58-.085a.184.184 0 0 1-.138-.1l-.26-.526a.147.147 0 0 0-.263 0zM4.432 1.454l-.26.526a.184.184 0 0 1-.138.1l-.58.084a.147.147 0 0 0-.081.251l.42.41a.184.184 0 0 1 .052.162l-.099.577c-.02.12.106.212.214.155l.518-.272a.184.184 0 0 1 .171 0l.519.272a.147.147 0 0 0 .213-.155l-.1-.577c-.01-.06.01-.12.054-.163l.42-.409a.147.147 0 0 0-.082-.25l-.58-.085a.184.184 0 0 1-.138-.1l-.26-.526a.147.147 0 0 0-.263 0zM7.357 1.454l-.26.526a.184.184 0 0 1-.138.1l-.58.084a.147.147 0 0 0-.081.251l.42.41a.184.184 0 0 1 .052.162l-.099.577c-.02.12.105.212.213.155l.519-.272a.184.184 0 0 1 .17 0l.52.272a.147.147 0 0 0 .213-.155l-.1-.577c-.01-.06.01-.12.054-.163l.42-.409a.147.147 0 0 0-.082-.25l-.58-.085a.184.184 0 0 1-.138-.1l-.26-.526a.147.147 0 0 0-.263 0zM10.407 1.454l-.259.526a.184.184 0 0 1-.138.1l-.58.084a.147.147 0 0 0-.082.251l.42.41a.184.184 0 0 1 .053.162l-.1.577c-.02.12.106.212.214.155l.519-.272a.184.184 0 0 1 .17 0l.52.272a.147.147 0 0 0 .213-.155l-.1-.577c-.01-.06.01-.12.053-.163l.42-.409a.147.147 0 0 0-.082-.25l-.58-.085a.184.184 0 0 1-.138-.1l-.259-.526a.147.147 0 0 0-.264 0zM13.426 1.454l-.259.526a.184.184 0 0 1-.138.1l-.58.084a.147.147 0 0 0-.081.251l.42.41a.184.184 0 0 1 .052.162l-.099.577c-.02.12.105.212.213.155l.519-.272a.184.184 0 0 1 .17 0l.52.272a.147.147 0 0 0 .213-.155l-.1-.577c-.01-.06.01-.12.054-.163l.42-.409a.147.147 0 0 0-.082-.25l-.58-.085a.184.184 0 0 1-.139-.1l-.259-.526a.147.147 0 0 0-.264 0z"/>
        <g fill="#FCE575">
            <path d="M7.273 5.234H5.897l1.36 1.57c.141.161.43.157.563-.009l.389-.482-.936-1.08zM1.388 4.374V.883a.86.86 0 0 1 .86-.86H.872a.86.86 0 0 0-.86.86v3.49c0 .476.385.86.86.86h1.376a.86.86 0 0 1-.86-.86z"/>
        </g>
        <path fill="#FFB74B" d="M1.035 3.72l.353-.186V1.696l-.14.284a.184.184 0 0 1-.139.1l-.58.085a.147.147 0 0 0-.081.25l.42.41a.184.184 0 0 1 .052.162l-.099.577c-.02.12.106.212.214.155z"/>
        <path fill="#FFEACF" d="M14.043 10.844a.435.435 0 0 0 .161-.341v-.171c0-.366-.28-.663-.627-.663h-3.044a.416.416 0 0 1-.404-.427V7.913c0-.568-.435-1.028-.972-1.028a.451.451 0 0 0-.438.463v1.603c0 .435-.171.85-.472 1.147l-.58.57H4.174v3.431h3.493l.598.492a.55.55 0 0 0 .343.12h4.627c.346 0 .626-.296.626-.662v-.374a.446.446 0 0 0-.031-.165c-.016-.04-.001-.087.035-.107a.43.43 0 0 0 .219-.38v-.547a.438.438 0 0 0-.102-.283.088.088 0 0 1 .006-.118.437.437 0 0 0 .129-.312v-.53a.44.44 0 0 0-.089-.266.09.09 0 0 1 .015-.123z"/>
        <path fill="#FFD59A" d="M9.157 6.885a.451.451 0 0 0-.438.463v1.603c0 .435-.171.85-.472 1.147l-.58.57H4.004v3.431H7.135v-2.776c0-.126.102-.228.228-.228h.64a.57.57 0 0 0 .4-.164l.412-.406a1.61 1.61 0 0 0 .472-1.147V7.776c0-.256.197-.464.439-.464.082 0 .163.011.24.032a.96.96 0 0 0-.81-.459z"/>
        <path fill="#FF624B" d="M6.056 14.997H1.794a.516.516 0 0 1-.516-.516v-4.195c0-.285.231-.517.516-.517h4.262c.285 0 .516.232.516.517v4.195a.516.516 0 0 1-.516.516z"/>
        <path fill="#FF4B34" d="M3.13 14.143a.427.427 0 0 1-.428-.427V9.769h-.997a.427.427 0 0 0-.427.428v4.373c0 .236.191.427.427.427h4.44a.427.427 0 0 0 .427-.427v-.427H3.129z"/>
        <circle cx="3.362" cy="12.537" r="1" fill="#FF4B34"/>
        <path fill="#FCF9DE" d="M12.925 14.309h-2.752a.206.206 0 0 1 0-.413h2.752a.206.206 0 0 1 0 .413z"/>
    </g>
</svg>
