<svg xmlns="http://www.w3.org/2000/svg" width="875" height="434" viewBox="0 0 875 434">
    <defs>
        <linearGradient id="a" x1=".035%" x2="100.008%" y1="50.009%" y2="50.009%">
            <stop offset="0%" stop-color="#188FFB"/>
            <stop offset="100%" stop-color="#164174"/>
        </linearGradient>
    </defs>
    <g fill="none" fill-rule="evenodd">
        <path stroke="#DFE5F4" stroke-width="2" d="M390.829 248.106l122.407-63.353 24.45 13.176 25.72 14.78M579.142 0v221.685l-15.736-8.977M513.236 184.753V79.045M462.242 210.91v-39.427M390.829 248.106V131.899M683.351 278.807l29.05 16.436v-16.436"/>
        <g transform="translate(379.724 236.74)">
            <circle cx="11.276" cy="11.26" r="2" fill="#00C692" fill-rule="nonzero"/>
            <circle cx="11.235" cy="11.235" r="5.769" stroke="#00C692" stroke-width=".5" opacity=".8"/>
            <circle cx="11.235" cy="11.235" r="11.235" stroke="#00C692"/>
        </g>
        <g transform="translate(452.905 201.515)">
            <circle cx="9.595" cy="9.485" r="2" fill="#00C692" fill-rule="nonzero"/>
            <circle cx="9.595" cy="9.485" r="4.5" stroke="#00C692" stroke-width=".5" opacity=".8"/>
            <circle cx="9.508" cy="9.898" r="9.413" stroke="#00C692"/>
        </g>
        <g transform="translate(498.061 170.542)">
            <circle cx="15.439" cy="14.958" r="2.5" fill="#00C692" fill-rule="nonzero"/>
            <circle cx="15.227" cy="14.746" r="7.288" stroke="#00C692" stroke-width=".5" opacity=".8"/>
            <circle cx="15.059" cy="14.578" r="14.12" stroke="#00C692"/>
        </g>
        <path stroke="#DFE5F4" stroke-width="2" d="M608.585 107.974V236.74l-29.443-15.055M1 259.21l293.765 166.433a51 51 0 0 0 50.283-.002l129.658-73.47"/>
        <path stroke="#DFE5F4" stroke-width="2" d="M410.383 313.284l156.401 94.596a24 24 0 0 0 24.749.056l113.498-67.949a8 8 0 0 0-.06-13.763l-163.764-96.12a11 11 0 0 0-11.091-.027l-119.61 69.443a8 8 0 0 0-.123 13.764zM653.898 371.01l79.897 49.778a48 48 0 0 0 48.712 1.208l91.678-50.986"/>
        <g>
            <path fill="#F3F6FA" fill-rule="nonzero" d="M434.173 310.286L580.9 394.988c.55.366 1.589.366 2.26-.122l100.915-58.278c.671-.367.671-.916.122-1.22l-146.729-84.703c-.55-.366-1.588-.366-2.26.122l-100.914 58.279c-.672.305-.672.854-.122 1.22z"/>
            <path stroke="#93A4CC" stroke-width=".25" d="M591.07 206.07v21.864M598.964 210.625v32.795M607.163 215.18v20.345"/>
            <path fill="#CCC" fill-rule="nonzero" d="M433.471 280.345v-3.523l4.411 1.154.448 2.794-1.535 1.822-2.493-1.336z"/>
            <path fill="#97ACDD" fill-rule="nonzero" d="M684.292 303.24v3.645l-2.51-.124-.526-.123v-2.41z"/>
            <path fill="#A9BBE0" fill-rule="nonzero" d="M434.173 281.135L580.9 365.837c.55.366 1.589.366 2.26-.122l100.915-58.279c.671-.366.671-.915.122-1.22l-146.729-84.702c-.55-.366-1.588-.366-2.26.122l-100.914 58.278c-.672.306-.672.916-.122 1.221z"/>
            <path fill="#46C9B0" fill-rule="nonzero" d="M536.715 96.119l.91-.58v.91z"/>
            <path fill="url(#a)" fill-rule="nonzero" d="M105.685 27.06l143 82.856c1.464.916 2.744 3.177 2.744 5.193v115.424c0 2.016-1.28 2.933-2.743 2.016l-143-82.794c-1.464-.917-2.744-3.178-2.744-5.194V29.076c-.06-1.894 1.158-2.933 2.743-2.016z" transform="translate(433.471 68.817)"/>
            <path fill="#DFE5F4" fill-rule="nonzero" d="M538.852 96.501l143 82.849c1.464.916 2.744 3.177 2.744 5.193v115.414c0 2.017-1.22 2.933-2.743 2.017l-143-82.788c-1.463-.917-2.744-3.177-2.744-5.193V98.578c-.06-2.077 1.159-2.993 2.743-2.077z"/>
            <path fill="#B4C3ED" fill-rule="nonzero" d="M539.144 209.011l142.532 82.387.794-.366-.794-102.236-142.532-82.325z"/>
            <path fill="#F6F8FB" fill-rule="nonzero" d="M539.751 208.624l142.416 82.47v-101.85l-142.416-82.47z"/>
            <path fill="#00377E" fill-rule="nonzero" d="M609.592 142.043c0 .555.486 1.235.911 1.605.426.37.911.124.911-.555 0-.556-.425-1.236-.91-1.606-.426-.247-.912 0-.912.556z"/>
            <path fill="#F6F8FB" fill-rule="nonzero" d="M434.173 277.213L580.9 361.889c.55.366 1.589.366 2.26-.122l100.915-58.242c.671-.366.671-.915.122-1.22l-146.729-84.738c-.55-.367-1.588-.367-2.26.122L434.295 275.93c-.672.366-.672.915-.122 1.282z"/>
            <path fill="#CED6F2" fill-rule="nonzero" d="M674.921 304.714l-141.196-81.772c-.366-.245-1.039-.245-1.466.122l-51.383 29.808c-.428.245-.428.673-.122.918l141.196 81.771c.366.245 1.038.245 1.466-.122l51.383-29.807c.489-.368.489-.735.122-.918z"/>
            <path fill="#97ACDD" fill-rule="nonzero" d="M615.322 330.464l6.524 3.876c.37.254 1.046.254 1.477-.127l5.97-3.558c.431-.255.431-.7.124-.954l-6.586-3.812c-.308-.255-1.047-.255-1.478.127l-5.908 3.558c-.493.19-.493.7-.123.89zM605.604 324.42l6.525 3.848c.37.253 1.046.253 1.477-.126l5.97-3.533c.431-.252.431-.694.123-.946l-6.524-3.849c-.37-.252-1.046-.252-1.477.126l-5.97 3.533c-.493.19-.493.694-.124.947zM595.594 319.258l6.527 3.848c.37.253 1.046.253 1.478-.126l5.91-3.533c.493-.252.493-.694.124-.946l-6.527-3.85c-.37-.251-1.047-.251-1.478.127l-5.973 3.533c-.369.316-.492.694-.061.947zM584.602 312.136l8.256 4.902c.361.245 1.024.245 1.446-.122l5.845-3.432c.422-.245.422-.674.12-.92l-8.255-4.901c-.362-.245-1.024-.245-1.446.122l-5.846 3.432c-.422.367-.422.735-.12.919zM535.158 283.903l45.484 26.454c.365.246 1.034.246 1.46-.122l5.898-3.438c.426-.245.426-.675.122-.92l-45.485-26.454c-.365-.246-1.034-.246-1.46.123l-5.898 3.437c-.426.245-.547.675-.121.92zM483.862 254.275l6.513 3.848c.369.253 1.045.253 1.475-.126l5.96-3.533c.43-.252.43-.694.123-.946l-6.513-3.849c-.369-.252-1.045-.252-1.475.126l-5.96 3.533c-.492.379-.553.694-.123.947zM493.555 259.74l6.524 3.85c.37.252 1.046.252 1.477-.127l5.97-3.533c.432-.252.432-.694.124-.946l-6.525-3.849c-.369-.252-1.046-.252-1.477.126l-5.97 3.533c-.492.253-.492.694-.123.947zM503.277 265.207l6.522 3.848c.369.253 1.046.253 1.476-.126l5.969-3.533c.43-.253.43-.694.123-.947l-6.522-3.848c-.37-.253-1.046-.253-1.477.126l-5.968 3.533c-.431.253-.554.694-.123.947zM512.989 271.28l6.524 3.848c.37.253 1.047.253 1.477-.126l5.97-3.533c.432-.252.432-.694.124-.946l-6.524-3.849c-.37-.252-1.047-.252-1.478.126l-5.97 3.533c-.492.253-.492.694-.123.947zM522.958 276.607l8.89 5.207c.36.245 1.02.245 1.441-.123l5.826-3.43c.42-.245.42-.674.12-.92l-8.889-5.206c-.36-.245-1.02-.245-1.441.122l-5.826 3.43c-.42.307-.42.675-.12.92zM613.245 317.927l18.311 10.65c.368.246 1.041.246 1.47-.124l5.94-3.447c.49-.246.49-.677.123-.923l-18.312-10.65c-.367-.246-1.04-.246-1.47.123l-5.94 3.447c-.49.37-.612.678-.122.924zM603.111 312.577l6.422 3.849c.364.252 1.03.252 1.454-.126l5.817-3.534c.484-.252.484-.694.12-.946l-6.421-3.849c-.364-.252-1.03-.252-1.454.127l-5.877 3.533c-.303.378-.364.82-.06.946zM593.458 307.111l6.524 3.849c.37.252 1.047.252 1.478-.126l5.97-3.533c.43-.253.43-.694.123-.947l-6.524-3.848c-.37-.253-1.046-.253-1.477.126l-5.97 3.533c-.493.252-.493.694-.124.946zM583.766 301.038l6.513 3.849c.368.252 1.044.252 1.474-.126l5.96-3.534c.43-.252.43-.694.123-.946l-6.513-3.849c-.368-.252-1.044-.252-1.474.127l-5.96 3.533c-.492.252-.554.694-.123.946zM573.979 295.514l6.545 3.904c.37.256 1.05.256 1.482-.128l5.989-3.584c.432-.256.432-.704.123-.96l-6.545-3.777c-.37-.256-1.05-.256-1.481.128l-5.99 3.585c-.432.256-.432.576-.123.832zM564.053 289.5l6.501 3.848c.368.252 1.043.252 1.473-.126l5.95-3.534c.429-.252.429-.694.122-.946l-6.502-3.849c-.368-.252-1.043-.252-1.472.127l-5.95 3.533c-.49.378-.613.757-.122.946zM553.937 284.033l6.545 3.849c.37.252 1.05.252 1.482-.126l5.99-3.533c.432-.253.432-.694.123-.947l-6.545-3.848c-.37-.253-1.05-.253-1.482.126l-5.989 3.533c-.432.378-.432.757-.124.946zM544.873 278.567l6.524 3.85c.37.251 1.047.251 1.477-.127l5.97-3.533c.432-.253.432-.694.124-.947l-6.524-3.848c-.37-.253-1.047-.253-1.478.126l-5.97 3.533c-.492.316-.492.694-.123.946zM534.857 272.798l6.522 3.849c.37.252 1.046.252 1.477-.127l5.968-3.533c.43-.252.43-.694.123-.946l-6.522-3.849c-.369-.252-1.046-.252-1.477.126l-5.968 3.534c-.43.315-.554.694-.123.946zM525.135 267.332l6.525 3.849c.369.252 1.046.252 1.477-.126l5.97-3.534c.43-.252.43-.694.123-.946l-6.524-3.849c-.37-.252-1.046-.252-1.477.127l-5.97 3.533c-.493.315-.493.694-.124.946zM515.139 261.563l6.513 3.848c.369.253 1.045.253 1.475-.126l5.96-3.533c.43-.252.43-.694.123-.946l-6.513-3.85c-.369-.251-1.045-.251-1.475.127l-5.96 3.533c-.492.379-.553.82-.123.947zM492.901 248.602l19.038 10.744c.369.241 1.044.241 1.474-.121l5.957-3.38c.43-.242.43-.664.123-.905l-19.038-10.744c-.369-.242-1.044-.242-1.474.12l-5.957 3.38c-.43.363-.43.664-.123.906zM626.862 315.356l13.78 7.76c.37.238 1.05.238 1.483-.12l5.994-3.342c.432-.24.432-.657.123-.896l-13.78-7.76c-.37-.238-1.05-.238-1.483.12l-5.994 3.343c-.494.358-.494.716-.123.895zM617.105 309.844l6.549 3.849c.37.252 1.05.252 1.483-.126l5.931-3.533c.494-.253.494-.695.124-.947l-6.55-3.848c-.37-.253-1.05-.253-1.482.126l-5.993 3.533c-.371.378-.371.757-.062.946zM607.387 303.771l6.542 3.849c.37.252 1.05.252 1.481-.127l5.987-3.533c.432-.252.432-.694.124-.946l-6.543-3.849c-.37-.252-1.049-.252-1.48.127l-5.988 3.533c-.37.378-.494.883-.123.946zM597.36 298.305l6.545 3.849c.37.252 1.05.252 1.482-.126l5.99-3.533c.432-.253.432-.695.123-.947l-6.545-3.848c-.37-.253-1.05-.253-1.482.126l-5.989 3.533c-.432.252-.432.757-.123.946zM588.041 293.143l6.502 3.849c.368.252 1.043.252 1.473-.127l5.95-3.533c.429-.252.429-.694.122-.946l-6.502-3.849c-.368-.252-1.043-.252-1.472.127l-5.95 3.533c-.49.189-.613.694-.123.946zM577.623 287.07l6.545 3.848c.37.253 1.05.253 1.482-.126l5.989-3.533c.432-.252.432-.694.123-.946l-6.545-3.849c-.37-.252-1.05-.252-1.482.126l-5.989 3.534c-.432.252-.432.694-.123.946zM568.255 281.604l6.524 3.849c.37.252 1.046.252 1.477-.127l5.97-3.533c.431-.252.431-.694.124-.946l-6.525-3.849c-.369-.252-1.046-.252-1.477.127l-5.97 3.533c-.493.378-.493.694-.123.946zM558.169 275.835l6.554 3.848c.37.253 1.05.253 1.484-.126l5.997-3.533c.433-.253.433-.694.124-.947l-6.554-3.848c-.371-.253-1.051-.253-1.484.126l-5.998 3.533c-.37.379-.433.694-.123.947zM548.517 270.065l6.524 3.849c.37.252 1.047.252 1.477-.127l5.97-3.533c.432-.252.432-.694.124-.946l-6.524-3.849c-.37-.252-1.047-.252-1.478.127l-5.97 3.533c-.492.378-.492.694-.123.946zM538.849 264.296l6.502 3.848c.368.253 1.043.253 1.472-.126l5.95-3.533c.43-.253.43-.694.123-.947l-6.502-3.848c-.368-.252-1.043-.252-1.473.126l-5.95 3.533c-.49.379-.613.694-.122.947zM529.038 258.526l6.544 3.849c.37.252 1.05.252 1.482-.127l5.99-3.533c.432-.252.432-.694.123-.946l-6.545-3.849c-.37-.252-1.05-.252-1.482.127l-5.989 3.533c-.432.378-.432.757-.123.946zM501.709 243.085l13.81 7.76c.37.239 1.052.239 1.485-.12l6.007-3.342c.434-.239.434-.656.124-.895l-13.81-7.76c-.37-.239-1.052-.239-1.485.12l-6.007 3.342c-.434.299-.434.657-.124.895zM519.366 253.06l6.524 3.849c.37.252 1.046.252 1.477-.126l5.97-3.533c.431-.253.431-.694.124-.947l-6.525-3.848c-.369-.253-1.046-.253-1.477.126l-5.97 3.533c-.493.378-.493.883-.123.946zM639.056 311.119l11.023 6.227c.368.24 1.041.24 1.47-.12l5.94-3.353c.49-.24.49-.659.123-.898l-11.024-6.227c-.367-.24-1.04-.24-1.47.12l-5.94 3.353c-.49.359-.612.658-.122.898zM629.245 305.897l6.545 3.848c.37.253 1.05.253 1.481-.126l5.99-3.533c.432-.252.432-.694.123-.946l-6.545-3.849c-.37-.252-1.05-.252-1.482.126l-5.989 3.533c-.432.379-.432.694-.123.947zM619.318 300.127l6.502 3.849c.368.252 1.043.252 1.472-.126l5.95-3.534c.43-.252.43-.694.123-.946l-6.502-3.849c-.307-.252-1.043-.252-1.472.127l-5.95 3.533c-.49.378-.613.757-.123.946zM609.51 294.661l6.432 3.849c.304.252 1.032.252 1.457-.126l5.826-3.533c.425-.253.425-.694.121-.947l-6.433-3.848c-.364-.253-1.031-.253-1.456.126l-5.887 3.533c-.364.379-.364.757-.06.946zM599.835 288.892l6.524 3.848c.37.253 1.047.253 1.478-.126l5.97-3.533c.43-.252.43-.694.123-.946l-6.524-3.849c-.37-.252-1.047-.252-1.478.126l-5.97 3.533c-.492.253-.492.758-.123.947zM589.749 283.122l6.554 3.849c.371.252 1.051.252 1.484-.126l5.998-3.533c.432-.253.432-.694.123-.947l-6.554-3.848c-.37-.253-1.05-.253-1.484.126l-5.997 3.533c-.371.19-.433.694-.124.946zM580.097 277.353l6.525 3.848c.369.253 1.046.253 1.477-.126l5.97-3.533c.431-.252.431-.694.123-.946l-6.524-3.849c-.37-.252-1.046-.252-1.477.126l-5.97 3.533c-.493.253-.493.694-.124.947zM570.126 272.19l6.502 3.85c.368.252 1.042.252 1.472-.127l5.95-3.533c.429-.252.429-.694.122-.946l-6.502-3.849c-.368-.252-1.042-.252-1.472.126l-5.95 3.533c-.49.316-.613.694-.122.947zM560.314 266.118l6.545 3.848c.37.252 1.05.252 1.482-.126l5.99-3.533c.432-.253.432-.694.123-.947l-6.545-3.848c-.37-.253-1.05-.253-1.482.126l-5.99 3.533c-.431.379-.431.694-.123.947zM550.642 260.652l6.525 3.848c.37.253 1.046.253 1.477-.126l5.97-3.533c.431-.252.431-.694.123-.946l-6.524-3.849c-.37-.252-1.046-.252-1.477.126l-5.97 3.533c-.493.379-.493.694-.124.947zM540.838 254.882l6.426 3.849c.363.252 1.03.252 1.454-.126l5.88-3.534c.425-.252.425-.694.122-.946l-6.426-3.849c-.364-.252-1.03-.252-1.455.127l-5.88 3.533c-.303.378-.424.694-.121.946zM521.516 243.647l6.513 3.848c.369.253 1.044.253 1.475-.126l5.96-3.533c.43-.252.43-.694.123-.946l-6.514-3.849c-.368-.252-1.044-.252-1.474.126l-5.96 3.533c-.492.379-.553.884-.123.947zM511.774 237.877l6.525 3.849c.369.252 1.046.252 1.477-.126l5.97-3.533c.431-.253.431-.694.123-.947l-6.524-3.848c-.37-.253-1.046-.253-1.477.126l-5.97 3.533c-.493.252-.493.757-.124.946zM531.208 249.416l6.525 3.849c.369.252 1.046.252 1.477-.126l5.97-3.533c.431-.253.431-.694.123-.947l-6.524-3.848c-.37-.253-1.046-.253-1.477.126l-5.97 3.533c-.493.379-.493.757-.124.946zM652.626 308.63l6.545 3.848c.37.253 1.05.253 1.482-.126l5.99-3.533c.431-.252.431-.694.123-.947l-6.545-3.848c-.37-.252-1.05-.252-1.482.126l-5.99 3.533c-.431.379-.431.757-.123.947zM643.306 303.164l6.482 3.848c.367.253 1.04.253 1.467-.126l5.932-3.533c.489-.252.489-.694.122-.946l-6.482-3.849c-.367-.252-1.04-.252-1.467.126l-5.931 3.533c-.49.316-.612.694-.123.947zM632.888 297.394l6.524 3.849c.37.252 1.046.252 1.477-.126l5.97-3.533c.493-.253.493-.694.124-.947l-6.525-3.848c-.369-.253-1.046-.253-1.477.126l-5.97 3.533c-.43.315-.43.694-.123.946zM623.266 291.928l6.502 3.849c.368.252 1.042.252 1.472-.126l5.95-3.533c.43-.253.43-.694.122-.947l-6.502-3.848c-.368-.253-1.042-.253-1.472.126l-5.95 3.533c-.49.379-.613.694-.122.946zM613.499 286.159l6.504 3.849c.368.252 1.043.252 1.472-.127l5.952-3.533c.49-.252.49-.694.123-.946l-6.504-3.849c-.368-.252-1.043-.252-1.473.126l-5.952 3.534c-.49.378-.49.694-.122.946zM603.734 280.39l6.436 3.848c.364.252 1.032.252 1.457-.126l5.828-3.533c.425-.253.425-.694.122-.947l-6.436-3.848c-.364-.253-1.032-.253-1.457.126l-5.829 3.533c-.425.379-.425.82-.121.946zM594.115 275.227l6.502 3.849c.368.252 1.042.252 1.472-.126l5.95-3.533c.429-.253.429-.694.122-.947l-6.502-3.848c-.368-.253-1.042-.253-1.472.126l-5.95 3.533c-.49.252-.613.694-.122.946zM584.303 269.154l6.545 3.849c.37.252 1.05.252 1.482-.126l5.99-3.534c.431-.252.431-.694.123-.946l-6.545-3.849c-.37-.252-1.05-.252-1.482.127l-5.99 3.533c-.431.252-.431.694-.123.946zM574.377 263.688l6.502 3.849c.368.252 1.043.252 1.472-.126l5.95-3.533c.43-.253.43-.694.122-.947l-6.501-3.848c-.368-.253-1.043-.253-1.473.126l-5.95 3.533c-.49.378-.613.757-.122.946zM564.262 257.615l6.545 3.849c.37.252 1.05.252 1.482-.126l5.989-3.534c.432-.252.432-.694.123-.946l-6.545-3.849c-.37-.252-1.05-.252-1.481.127l-5.99 3.533c-.432.378-.432.757-.123.946zM554.894 252.15l6.524 3.848c.37.252 1.046.252 1.477-.126l5.97-3.533c.431-.253.431-.694.124-.947l-6.525-3.848c-.369-.253-1.046-.253-1.477.126l-5.97 3.533c-.493.315-.493.694-.123.946zM545.201 246.38l6.513 3.848c.369.253 1.045.253 1.475-.126l5.96-3.533c.43-.252.43-.694.123-.946l-6.513-3.849c-.369-.252-1.045-.252-1.475.126l-5.96 3.533c-.492.316-.553.694-.123.947zM535.156 240.914l6.524 3.849c.37.252 1.047.252 1.477-.127l5.97-3.533c.432-.252.432-.694.124-.946l-6.524-3.849c-.37-.252-1.047-.252-1.478.126l-5.97 3.534c-.492.315-.492.694-.123.946zM520.884 232.471l11.08 6.227c.368.24 1.045.24 1.476-.12l5.97-3.352c.432-.24.432-.659.124-.899l-11.08-6.227c-.369-.239-1.046-.239-1.476.12l-5.97 3.353c-.493.36-.493.659-.124.898zM660.864 302.65l7.4 4.367c.36.246 1.023.246 1.444-.123l2.105-1.23c.421-.246.421-.676.12-.922l-7.4-4.366c-.36-.246-1.022-.246-1.443.123l-2.105 1.23c-.482.368-.482.676-.12.922zM650.54 296.274l7.4 4.366c.36.246 1.022.246 1.443-.123l2.106-1.23c.42-.246.42-.676.12-.922l-7.4-4.366c-.36-.246-1.022-.246-1.443.123l-2.106 1.23c-.481.246-.481.676-.12.922zM639.315 290.2l7.562 4.367c.369.246 1.045.246 1.475-.123l2.152-1.23c.492-.246.492-.676.123-.922l-7.562-4.366c-.369-.246-1.045-.246-1.475.123l-2.152 1.23c-.43.368-.553.676-.123.922zM628.291 284.128l7.453 4.366c.364.246 1.03.246 1.455-.123l2.12-1.23c.425-.246.425-.677.122-.923l-7.454-4.366c-.303-.246-1.03-.246-1.454.123l-2.12 1.23c-.304.246-.425.677-.122.923zM617.397 277.447l7.429 4.366c.362.246 1.026.246 1.45-.123l2.113-1.23c.423-.246.423-.676.12-.922l-7.428-4.366c-.302-.246-1.026-.246-1.45.123l-2.113 1.23c-.423.307-.423.676-.12.922zM606.517 271.374l7.374 4.366c.363.246 1.027.246 1.45-.123l2.116-1.23c.423-.246.423-.676.12-.922l-7.433-4.366c-.363-.246-1.028-.246-1.451.123l-2.115 1.23c-.424.246-.424.738-.06.922zM595.634 264.997l7.562 4.366c.369.246 1.045.246 1.475-.123l2.152-1.23c.43-.246.43-.676.123-.922l-7.562-4.366c-.369-.246-1.045-.246-1.476.123l-2.151 1.23c-.492.369-.615.738-.123.922zM584.702 258.62l7.562 4.366c.369.246 1.045.246 1.476-.123l2.151-1.23c.43-.245.43-.676.123-.922l-7.562-4.366c-.369-.246-1.045-.246-1.475.123l-2.152 1.23c-.492.369-.615.738-.123.922zM574.018 252.547l7.4 4.366c.36.246 1.022.246 1.444-.123l2.105-1.23c.421-.246.421-.676.12-.922l-7.4-4.366c-.36-.246-1.022-.246-1.443.123l-2.106 1.23c-.48.369-.48.738-.12.922zM563.042 246.17l7.429 4.366c.362.246 1.027.246 1.45-.123l2.113-1.23c.423-.245.423-.676.12-.922l-7.428-4.366c-.362-.246-1.026-.246-1.449.123l-2.114 1.23c-.423.369-.423.738-.12.922zM552.11 239.49l7.43 4.366c.362.246 1.026.246 1.449-.123l2.113-1.23c.423-.246.423-.676.121-.922l-7.428-4.366c-.363-.246-1.027-.246-1.45.123l-2.113 1.23c-.423.246-.423.676-.121.922zM541.247 233.113l7.384 4.366c.36.246 1.02.246 1.44-.123l2.102-1.23c.42-.246.42-.676.12-.922l-7.384-4.366c-.36-.246-1.02-.246-1.441.123l-2.101 1.23c-.48.369-.54.676-.12.922zM530.044 227.344l7.562 4.366c.369.246 1.045.246 1.475-.123l2.152-1.23c.43-.246.43-.677.123-.923l-7.562-4.366c-.369-.246-1.045-.246-1.476.123l-2.151 1.23c-.492.246-.615.677-.123.923z"/>
            <path fill="#1D425A" fill-rule="nonzero" d="M615.316 330.19l6.527 3.848c.37.252 1.046.252 1.478-.126l5.972-3.533c.431-.253.431-.694.123-.947l-6.527-3.848c-.307-.253-1.046-.253-1.477.126l-5.911 3.533c-.555.378-.555.694-.185.946zM605.604 324.42l6.525 3.848c.37.253 1.046.253 1.477-.126l5.97-3.533c.431-.252.431-.694.123-.946l-6.524-3.849c-.37-.252-1.046-.252-1.477.126l-5.97 3.533c-.493.379-.493.694-.124.947zM595.594 318.954l6.527 3.849c.37.252 1.046.252 1.478-.127l5.91-3.533c.493-.252.493-.694.124-.946l-6.527-3.849c-.37-.252-1.047-.252-1.478.126l-5.973 3.534c-.369.378-.492.694-.061.946zM584.602 311.832l8.256 4.902c.361.246 1.024.246 1.446-.122l5.845-3.432c.422-.245.422-.674.12-.919l-8.255-4.902c-.362-.245-1.024-.245-1.446.123l-5.846 3.431c-.422.307-.422.674-.12.92zM535.158 283.6l45.484 26.454c.365.245 1.034.245 1.46-.123l5.898-3.437c.426-.246.426-.675.122-.92l-45.485-26.455c-.365-.245-1.034-.245-1.46.123l-5.898 3.437c-.426.246-.547.675-.121.92zM483.862 253.971l6.513 3.849c.369.252 1.045.252 1.475-.126l5.96-3.534c.43-.252.43-.694.123-.946l-6.513-3.848c-.369-.253-1.045-.253-1.475.126l-5.96 3.533c-.492.315-.553.694-.123.946zM493.555 259.133l6.524 3.849c.37.252 1.046.252 1.477-.126l5.97-3.533c.432-.253.432-.694.124-.947l-6.525-3.848c-.369-.253-1.046-.253-1.477.126l-5.97 3.533c-.492.379-.492.757-.123.946zM503.277 265.207l6.522 3.848c.369.253 1.046.253 1.476-.126l5.969-3.533c.43-.253.43-.694.123-.947l-6.522-3.848c-.37-.253-1.046-.253-1.477.126l-5.968 3.533c-.431.379-.554.757-.123.947zM512.989 270.672l6.524 3.849c.37.252 1.047.252 1.477-.126l5.97-3.533c.432-.253.432-.694.124-.947l-6.524-3.848c-.37-.253-1.047-.253-1.478.126l-5.97 3.533c-.492.252-.492.694-.123.946zM522.958 276.607l8.89 5.207c.36.245 1.02.245 1.441-.123l5.826-3.43c.42-.245.42-.674.12-.92l-8.889-5.206c-.36-.245-1.02-.245-1.441.122l-5.826 3.43c-.42.246-.42.675-.12.92zM613.245 317.623l18.311 10.65c.368.246 1.041.246 1.47-.123l5.94-3.448c.49-.246.49-.677.123-.923l-18.312-10.65c-.367-.246-1.04-.246-1.47.123l-5.94 3.448c-.49.246-.612.677-.122.923zM603.111 312.273l6.422 3.85c.364.251 1.03.251 1.454-.127l5.817-3.533c.484-.253.484-.694.12-.947l-6.421-3.848c-.364-.253-1.03-.253-1.454.126l-5.877 3.533c-.303.252-.364.757-.06.946zM593.465 306.779l6.521 3.876c.37.254 1.046.254 1.477-.127l5.967-3.559c.43-.254.43-.699.123-.953l-6.583-3.813c-.369-.254-1.046-.254-1.476.127l-5.968 3.559c-.43.19-.43.699-.061.89zM583.766 300.734l6.513 3.85c.368.251 1.044.251 1.474-.127l5.96-3.533c.43-.253.43-.694.123-.947l-6.513-3.848c-.368-.253-1.044-.253-1.474.126l-5.96 3.533c-.492.379-.554.757-.123.946zM573.979 295.269l6.545 3.848c.37.253 1.05.253 1.482-.126l5.989-3.533c.432-.252.432-.694.123-.946l-6.545-3.849c-.37-.252-1.05-.252-1.481.126l-5.99 3.533c-.432.316-.432.694-.123.947zM564.053 289.5l6.501 3.848c.368.252 1.043.252 1.473-.126l5.95-3.534c.429-.252.429-.694.122-.946l-6.502-3.849c-.368-.252-1.043-.252-1.472.127l-5.95 3.533c-.49.315-.613.694-.122.946zM553.937 283.73l6.545 3.848c.37.253 1.05.253 1.482-.126l5.99-3.533c.432-.252.432-.694.123-.946l-6.545-3.849c-.37-.252-1.05-.252-1.482.126l-5.989 3.533c-.432.379-.432.694-.124.947zM544.873 277.96l6.524 3.849c.37.252 1.047.252 1.477-.126l5.97-3.534c.432-.252.432-.694.124-.946l-6.524-3.849c-.37-.252-1.047-.252-1.478.127l-5.97 3.533c-.492.378-.492.694-.123.946zM534.857 272.494l6.522 3.849c.37.252 1.046.252 1.477-.126l5.968-3.533c.43-.253.43-.694.123-.947l-6.522-3.848c-.369-.253-1.046-.253-1.477.126l-5.968 3.533c-.43.379-.554.82-.123.946zM525.135 267.028l6.525 3.85c.369.251 1.046.251 1.477-.127l5.97-3.533c.43-.253.43-.694.123-.947l-6.524-3.848c-.37-.253-1.046-.253-1.477.126l-5.97 3.533c-.493.252-.493.694-.124.946zM515.139 261.259l6.513 3.849c.369.252 1.045.252 1.475-.127l5.96-3.533c.43-.252.43-.694.123-.946l-6.513-3.849c-.369-.252-1.045-.252-1.475.126l-5.96 3.534c-.492.252-.553.694-.123.946zM492.901 248.298l19.038 10.744c.369.241 1.044.241 1.474-.12l5.957-3.38c.43-.242.43-.665.123-.906l-19.038-10.744c-.369-.241-1.044-.241-1.474.12l-5.957 3.38c-.43.242-.43.725-.123.906zM626.862 315.052l13.78 7.76c.37.239 1.05.239 1.483-.12l5.994-3.342c.432-.239.432-.657.123-.895l-13.78-7.76c-.37-.239-1.05-.239-1.483.12l-5.994 3.342c-.494.298-.494.657-.123.895zM617.105 309.54l6.549 3.85c.37.252 1.05.252 1.483-.127l5.931-3.533c.494-.253.494-.694.124-.947l-6.55-3.848c-.37-.253-1.05-.253-1.482.126l-5.993 3.533c-.371.19-.371.694-.062.947zM607.387 303.467l6.542 3.849c.37.252 1.05.252 1.481-.126l5.987-3.533c.432-.253.432-.694.124-.947l-6.543-3.848c-.37-.253-1.049-.253-1.48.126l-5.988 3.533c-.37.252-.494.694-.123.946zM597.36 298.002l6.545 3.848c.37.253 1.05.253 1.482-.126l5.99-3.533c.432-.253.432-.694.123-.947l-6.545-3.848c-.37-.252-1.05-.252-1.482.126l-5.989 3.533c-.432.253-.432.694-.123.947zM588.041 292.536l6.502 3.848c.368.253 1.043.253 1.473-.126l5.95-3.533c.429-.252.429-.694.122-.946l-6.502-3.849c-.368-.252-1.043-.252-1.472.126l-5.95 3.533c-.49.379-.613.694-.123.947zM577.623 286.766l6.545 3.849c.37.252 1.05.252 1.482-.126l5.989-3.533c.432-.253.432-.694.123-.947l-6.545-3.848c-.37-.253-1.05-.253-1.482.126l-5.989 3.533c-.432.378-.432.694-.123.946zM568.255 280.997l6.524 3.848c.37.253 1.046.253 1.477-.126l5.97-3.533c.431-.252.431-.694.124-.946l-6.525-3.849c-.369-.252-1.046-.252-1.477.126l-5.97 3.533c-.493.379-.493.757-.123.947zM558.169 275.835l6.554 3.848c.37.253 1.05.253 1.484-.126l5.997-3.533c.433-.253.433-.694.124-.947l-6.554-3.848c-.371-.253-1.051-.253-1.484.126l-5.998 3.533c-.37.379-.433.757-.123.947zM548.517 269.761l6.524 3.849c.37.252 1.047.252 1.477-.126l5.97-3.533c.432-.253.432-.694.124-.947l-6.524-3.848c-.37-.253-1.047-.253-1.478.126l-5.97 3.533c-.492.379-.492.757-.123.946zM538.849 263.992l6.502 3.849c.368.252 1.043.252 1.472-.127l5.95-3.533c.43-.252.43-.694.123-.946l-6.502-3.849c-.368-.252-1.043-.252-1.473.126l-5.95 3.534c-.49.315-.613.694-.122.946zM529.038 258.222l6.544 3.849c.37.252 1.05.252 1.482-.126l5.99-3.533c.432-.253.432-.694.123-.947l-6.545-3.848c-.37-.253-1.05-.253-1.482.126l-5.989 3.533c-.432.19-.432.694-.123.946zM501.709 242.782l13.81 7.76c.37.238 1.052.238 1.485-.12l6.007-3.343c.434-.238.434-.656.124-.895l-13.81-7.76c-.37-.238-1.052-.238-1.485.12l-6.007 3.342c-.434.359-.434.657-.124.896zM519.366 252.757l6.524 3.848c.37.253 1.046.253 1.477-.126l5.97-3.533c.431-.253.431-.694.124-.947l-6.525-3.848c-.369-.252-1.046-.252-1.477.126l-5.97 3.533c-.493.253-.493.694-.123.947zM639.056 310.815l11.023 6.227c.368.24 1.041.24 1.47-.12l5.94-3.353c.49-.24.49-.658.123-.898l-11.024-6.227c-.367-.24-1.04-.24-1.47.12l-5.94 3.353c-.49.36-.612.718-.122.898zM629.245 305.593l6.545 3.849c.37.252 1.05.252 1.481-.127l5.99-3.533c.432-.252.432-.694.123-.946l-6.545-3.849c-.37-.252-1.05-.252-1.482.126l-5.989 3.534c-.432.315-.432.694-.123.946zM619.318 299.824l6.502 3.848c.368.252 1.043.252 1.472-.126l5.95-3.533c.43-.253.43-.694.123-.947l-6.502-3.848c-.307-.253-1.043-.253-1.472.126l-5.95 3.533c-.49.316-.613.82-.123.947zM609.51 294.358l6.432 3.848c.304.253 1.032.253 1.457-.126l5.826-3.533c.425-.252.425-.694.121-.946l-6.433-3.849c-.364-.252-1.031-.252-1.456.126l-5.887 3.533c-.364.253-.364.694-.06.947zM599.835 288.892l6.524 3.848c.37.253 1.047.253 1.478-.126l5.97-3.533c.43-.252.43-.694.123-.946l-6.524-3.849c-.37-.252-1.047-.252-1.478.126l-5.97 3.533c-.492.253-.492.694-.123.947zM589.749 282.515l6.554 3.849c.371.252 1.051.252 1.484-.127l5.998-3.533c.432-.252.432-.694.123-.946l-6.554-3.849c-.37-.252-1.05-.252-1.484.127l-5.997 3.533c-.371.378-.433.694-.124.946zM580.097 277.05l6.525 3.848c.369.252 1.046.252 1.477-.126l5.97-3.534c.431-.252.431-.694.123-.946l-6.524-3.849c-.37-.252-1.046-.252-1.477.127l-5.97 3.533c-.493.378-.493.694-.124.946zM570.126 271.583l6.502 3.849c.368.252 1.042.252 1.472-.126l5.95-3.533c.429-.253.429-.694.122-.947l-6.502-3.848c-.368-.253-1.042-.253-1.472.126l-5.95 3.533c-.49.379-.613.694-.122.946zM560.314 265.814l6.545 3.848c.37.253 1.05.253 1.482-.126l5.99-3.533c.432-.252.432-.694.123-.946l-6.545-3.849c-.37-.252-1.05-.252-1.482.126l-5.99 3.533c-.431.379-.431.758-.123.947zM550.642 260.044l6.525 3.849c.37.252 1.046.252 1.477-.126l5.97-3.533c.431-.253.431-.694.123-.947l-6.524-3.848c-.37-.253-1.046-.253-1.477.126l-5.97 3.596c-.493.316-.493.694-.124.883zM540.838 254.579l6.426 3.848c.363.252 1.03.252 1.454-.126l5.88-3.533c.425-.253.425-.694.122-.947l-6.426-3.848c-.364-.253-1.03-.253-1.455.126l-5.88 3.533c-.303.316-.424.694-.121.947zM521.516 243.343l6.513 3.849c.369.252 1.044.252 1.475-.126l5.96-3.534c.43-.252.43-.694.123-.946l-6.514-3.849c-.368-.252-1.044-.252-1.474.127l-5.96 3.533c-.492.252-.553.694-.123.946zM511.774 237.515l6.525 3.905c.369.256 1.046.256 1.477-.128l5.97-3.585c.431-.256.431-.704.123-.96l-6.524-3.776c-.37-.256-1.046-.256-1.477.128l-5.97 3.584c-.493.128-.493.576-.124.832zM531.208 249.113l6.525 3.848c.369.253 1.046.253 1.477-.126l5.97-3.533c.431-.252.431-.694.123-.946l-6.524-3.849c-.37-.252-1.046-.252-1.477.126l-5.97 3.533c-.493.19-.493.694-.124.947zM652.626 308.326l6.545 3.849c.37.252 1.05.252 1.482-.127l5.99-3.533c.431-.252.431-.694.123-.946l-6.545-3.849c-.37-.252-1.05-.252-1.482.126l-5.99 3.534c-.431.378-.431.694-.123.946zM643.306 302.556l6.482 3.849c.367.252 1.04.252 1.467-.126l5.932-3.533c.489-.253.489-.694.122-.947l-6.482-3.848c-.367-.253-1.04-.253-1.467.126l-5.931 3.533c-.49.379-.612.694-.123.946zM632.888 297.09l6.524 3.85c.37.252 1.046.252 1.477-.127l5.97-3.533c.493-.252.493-.694.124-.946l-6.525-3.85c-.369-.251-1.046-.251-1.477.127l-5.97 3.533c-.43.379-.43.694-.123.947zM623.266 291.321l6.502 3.849c.368.252 1.042.252 1.472-.126l5.95-3.534c.43-.252.43-.694.122-.946l-6.502-3.849c-.368-.252-1.042-.252-1.472.127l-5.95 3.533c-.49.378-.613.82-.122.946zM613.499 285.855l6.504 3.849c.368.252 1.043.252 1.472-.126l5.952-3.533c.49-.253.49-.694.123-.947l-6.504-3.848c-.368-.253-1.043-.253-1.473.126l-5.952 3.533c-.49.252-.49.757-.122.946zM603.734 280.086l6.436 3.848c.364.253 1.032.253 1.457-.126l5.828-3.533c.425-.252.425-.694.122-.946l-6.436-3.849c-.364-.252-1.032-.252-1.457.126l-5.829 3.533c-.425.253-.425.757-.121.947zM594.115 274.62l6.502 3.849c.368.252 1.042.252 1.472-.127l5.95-3.533c.429-.252.429-.694.122-.946l-6.502-3.849c-.368-.252-1.042-.252-1.472.126l-5.95 3.534c-.49.252-.613.757-.122.946zM584.303 269.154l6.545 3.849c.37.252 1.05.252 1.482-.126l5.99-3.534c.431-.252.431-.694.123-.946l-6.545-3.849c-.37-.252-1.05-.252-1.482.127l-5.99 3.533c-.431.315-.431.694-.123.946zM574.377 263.385l6.502 3.848c.368.253 1.043.253 1.472-.126l5.95-3.533c.43-.252.43-.694.122-.947l-6.501-3.848c-.368-.252-1.043-.252-1.473.126l-5.95 3.533c-.49.316-.613.694-.122.947zM564.262 257.311l6.545 3.849c.37.252 1.05.252 1.482-.126l5.989-3.533c.432-.253.432-.694.123-.947l-6.545-3.848c-.37-.253-1.05-.253-1.481.126l-5.99 3.533c-.432.379-.432.694-.123.946zM554.894 251.846l6.524 3.848c.37.253 1.046.253 1.477-.126l5.97-3.533c.431-.252.431-.694.124-.946l-6.525-3.85c-.369-.251-1.046-.251-1.477.127l-5.97 3.533c-.493.379-.493.694-.123.947zM545.201 246.076l6.513 3.849c.369.252 1.045.252 1.475-.126l5.96-3.534c.43-.252.43-.694.123-.946l-6.513-3.849c-.369-.252-1.045-.252-1.475.127l-5.96 3.533c-.492.378-.553.694-.123.946zM535.156 240.61l6.524 3.849c.37.252 1.047.252 1.477-.126l5.97-3.533c.432-.253.432-.694.124-.947l-6.524-3.848c-.37-.253-1.047-.253-1.478.126l-5.97 3.533c-.492.378-.492.82-.123.946zM520.884 232.168l11.08 6.227c.368.24 1.045.24 1.476-.12l5.97-3.353c.432-.24.432-.659.124-.898l-11.08-6.227c-.369-.24-1.046-.24-1.476.12l-5.97 3.353c-.493.299-.493.658-.124.898zM660.864 302.043l7.4 4.366c.36.246 1.023.246 1.444-.122l2.105-1.23c.421-.246.421-.677.12-.923l-7.4-4.366c-.36-.246-1.022-.246-1.443.123l-2.105 1.23c-.482.369-.482.861-.12.922zM650.54 296.274l7.4 4.366c.36.246 1.022.246 1.443-.123l2.106-1.23c.42-.246.42-.676.12-.922l-7.4-4.366c-.36-.246-1.022-.246-1.443.123l-2.106 1.23c-.481.369-.481.738-.12.922zM639.315 289.897l7.562 4.366c.369.246 1.045.246 1.475-.123l2.152-1.23c.492-.246.492-.676.123-.922l-7.562-4.366c-.369-.246-1.045-.246-1.475.123l-2.152 1.23c-.43.369-.553.738-.123.922zM628.291 283.52l7.453 4.366c.364.246 1.03.246 1.455-.123l2.12-1.23c.425-.245.425-.676.122-.922l-7.454-4.366c-.303-.246-1.03-.246-1.454.123l-2.12 1.23c-.304.369-.425.676-.122.922zM617.397 277.144l7.429 4.366c.362.246 1.026.246 1.45-.123l2.113-1.23c.423-.246.423-.677.12-.923l-7.428-4.366c-.302-.246-1.026-.246-1.45.123l-2.113 1.23c-.423.37-.423.677-.12.923zM606.517 271.07l7.374 4.366c.363.246 1.027.246 1.45-.123l2.116-1.23c.423-.245.423-.676.12-.922l-7.433-4.366c-.363-.246-1.028-.246-1.451.123l-2.115 1.23c-.424.246-.424.676-.06.922zM595.634 264.39l7.562 4.366c.369.246 1.045.246 1.475-.123l2.152-1.23c.43-.246.43-.676.123-.922l-7.562-4.366c-.369-.246-1.045-.246-1.476.123l-2.151 1.23c-.492.368-.615.676-.123.922zM584.702 258.317l7.562 4.366c.369.246 1.045.246 1.476-.123l2.151-1.23c.43-.246.43-.676.123-.922l-7.562-4.366c-.369-.246-1.045-.246-1.475.123l-2.152 1.23c-.492.245-.615.676-.123.922zM574.018 252.244l7.4 4.366c.36.246 1.022.246 1.444-.123l2.105-1.23c.421-.246.421-.677.12-.923l-7.4-4.366c-.36-.246-1.022-.246-1.443.123l-2.106 1.23c-.48.308-.48.677-.12.923zM563.042 245.867l7.429 4.366c.362.246 1.027.246 1.45-.123l2.113-1.23c.423-.246.423-.676.12-.922l-7.428-4.366c-.362-.246-1.026-.246-1.449.123l-2.114 1.23c-.423.184-.423.676-.12.922zM552.11 239.49l7.43 4.366c.362.246 1.026.246 1.449-.123l2.113-1.23c.423-.246.423-.676.121-.922l-7.428-4.366c-.363-.246-1.027-.246-1.45.123l-2.113 1.23c-.423.369-.423.738-.121.922zM541.247 232.81l7.384 4.366c.36.246 1.02.246 1.44-.123l2.102-1.23c.42-.246.42-.677.12-.923l-7.384-4.366c-.36-.246-1.02-.246-1.441.123l-2.101 1.23c-.48.37-.54.738-.12.923zM530.044 226.736l7.562 4.366c.369.246 1.045.246 1.475-.123l2.152-1.23c.43-.245.43-.676.123-.922l-7.562-4.366c-.369-.246-1.045-.246-1.476.123l-2.151 1.23c-.492.369-.615.738-.123.922z"/>
            <path fill="#CED6F2" fill-rule="nonzero" d="M481.19 299.659l.367.367 63.702 36.963c.55.367 1.588.367 2.26-.123l35.486-20.562c.244-.122.366-.367.427-.428v-.123c.122-.367 0-.55-.366-.795l-63.703-36.963c-.55-.367-1.588-.367-2.26.123l-35.485 20.5c-.428.368-.55.735-.428 1.04z"/>
            <path fill="#DFE5F4" fill-rule="nonzero" d="M481.145 299.391c0 .122.123.245.367.367l63.76 36.927c.55.367 1.589.367 2.261-.122l35.517-20.542c.245-.123.367-.367.428-.428 0-.123-.122-.245-.367-.367l-63.76-36.927c-.55-.367-1.589-.367-2.26.122l-35.518 20.542a.943.943 0 0 0-.428.428z"/>
            <path fill="#CED6F2" fill-rule="nonzero" d="M513.03 318.18l.418.244 15.675-9.17-.419-.244zM495.013 310.166l31.618 18.318c.244.123.367.368.367.43-.123.673-.367 1.347-.428 1.96-11.902-6.923-23.805-13.785-35.708-20.708 1.16-.122 2.259-.245 3.419-.245.183 0 .549.123.732.245z"/>
            <path fill="#DFE5F4" fill-rule="nonzero" d="M554.807 230.746l106.699 62c.366.245 1.036.245 1.463-.123l1.586-.92-51.46-30.785-56.459-32.073-1.707 1.042c-.305.307-.427.675-.122.859z"/>
            <path fill="#97ACDD" fill-opacity=".1" fill-rule="nonzero" d="M684.292 268.016l-5.83-3.355c-7.348-4.331-13.3-15.74-13.3-25.623 0-9.883 5.952-14.397 13.3-10.066l5.83 3.355v35.69z"/>
            <path fill="#97ACDD" fill-opacity=".15" fill-rule="nonzero" d="M685.507 236.74l-35.566-35.69c-5.979-5.99-8.846-18.7-6.345-28.296 2.623-9.533 9.517-12.344 15.495-6.355l26.416 26.462v43.879z"/>
            <path fill="#97ACDD" fill-rule="nonzero" d="M774.183 311.07L677.3 254.81c-7.378-4.35-13.353-15.81-13.353-25.739 0-9.928 5.975-14.463 13.353-10.112l96.883 56.26c7.378 4.351 13.353 15.811 13.353 25.74 0 9.805-5.975 14.34-13.353 10.112z"/>
            <path fill="#FFF" fill-rule="nonzero" d="M771.754 311.922l-96.883-56.224c-7.378-4.349-13.353-15.802-13.353-25.724 0-9.921 5.975-14.454 13.353-10.105l96.883 56.224c7.377 4.348 13.353 15.801 13.353 25.723 0 9.86-5.915 14.454-13.353 10.106z"/>
            <path fill="#DFE5F4" fill-rule="nonzero" d="M672.155 238.24c.38.429.825.674 1.206.918.444.245.824.368 1.142.368l.951.428c.381.245.698.551 1.08.918.38.368.57.796.824 1.225.254.428.254.918.254 1.346v.368c0 .245-.127.428-.254.428-.127.123-.38.123-.571 0l-6.853-3.856c-.254-.123-.38-.368-.57-.551-.128-.245-.255-.429-.255-.796v-.367a2.3 2.3 0 0 1 .254-1.04c.254-.246.444-.368.825-.43.317 0 .698.123 1.079.245l.888.796zm0-.918c-.38-.429-.698-.918-.825-1.47-.127-.55-.38-1.04-.38-1.468 0-.429.126-.919.38-1.163.254-.245.444-.429.825-.429.38 0 .698.123 1.206.367.444.245.824.551 1.142 1.041.38.429.698.918.825 1.47.253.55.38 1.04.38 1.468 0 .429-.127.919-.38 1.163-.254.245-.445.429-.825.429-.381 0-.698-.122-1.142-.367-.381-.245-.889-.612-1.206-1.041z"/>
            <path fill="#00C638" fill-rule="nonzero" d="M770.835 295.981c0 1.354.91 2.954 2.125 3.63 1.154.677 2.126.124 2.126-1.23s-.911-2.954-2.126-3.63c-1.214-.739-2.125-.124-2.125 1.23z"/>
            <path fill="#DFE5F4" fill-rule="nonzero" d="M752.348 285.011c-.127-.12-.254-.358-.444-.657l-.127-.239c-1.396-1.911-2.348-3.106-2.856-3.763l-.126-.12c-.127-.12-.127-.239-.127-.418v-.358c0-.24.127-.418.253-.418.127-.12.381-.12.572 0l6.852 3.763c.254.12.38.358.571.538.127.239.254.418.254.776v.359c0 .12 0 .239-.127.239h-.063c-.444.12-1.396.358-2.729.657h-.127c-.253.12-.38.12-.444.12-.253 0-.38 0-.507-.12-.444.06-.571-.06-.825-.359zm-3.617-4.002v3.644c0 .239.127.418.254.776.127.24.38.419.571.538l6.79 3.823c.253.12.38.12.57 0 .127-.12.254-.239.254-.418V285.608h-.127c-.38.12-1.205.359-2.601.658l-.127.12c-.254.119-.444.119-.571.119-.254 0-.444 0-.698-.12-.254-.12-.508-.358-.698-.657-.127-.239-.317-.418-.571-.776l-.127-.24c-1.523-2.03-2.475-3.165-2.919-3.703.127 0 0 0 0 0zM691.65 253.016l39.639 22.773c2.01 1.154 3.714-.121 3.714-2.793s-1.705-5.891-3.714-6.984l-39.639-22.773c-2.009-1.154-3.714.121-3.714 2.793.122 2.55 1.827 5.709 3.714 6.984z"/>
            <path fill="#97ACDD" fill-opacity=".15" fill-rule="nonzero" d="M734.625 267.211l-35.454-35.634 51.015 29.267c-2.502 9.674-9.52 12.49-15.56 6.367z"/>
            <path fill="#97ACDD" fill-rule="nonzero" d="M730.419 261.129l-79.252-79.041c-5.988-5.968-8.86-18.634-6.355-28.194 2.628-9.5 9.532-12.301 15.52-6.333l79.253 79.04c5.988 5.968 8.86 18.695 6.354 28.195-2.444 9.621-9.47 12.483-15.52 6.333z"/>
            <path fill="#FFF" fill-rule="nonzero" d="M727.443 261.21l-79.313-79.096c-5.988-5.972-8.86-18.647-6.354-28.214 2.627-9.506 9.532-12.309 15.52-6.337l79.252 79.096c5.988 5.972 8.86 18.647 6.355 28.214-2.444 9.506-9.35 12.37-15.46 6.337z"/>
            <path fill="#DFE5F4" fill-rule="nonzero" d="M650.614 165.062c.245.415.552.89.92 1.186.37.356.677.534 1.045.652l.676.653c.368.356.552.652.798 1.127.246.415.369.89.369 1.423 0 .534 0 .89-.123 1.305l-.123.237a1.48 1.48 0 0 1-.307.416c-.123 0-.369 0-.43-.238l-5.466-5.279c-.246-.237-.369-.415-.369-.652 0-.237-.123-.534 0-.771l.123-.237c.123-.415.369-.653.553-.89.246-.237.553-.237.798-.237.369 0 .553.237.922.534l.614.77zm.368-.89a4.844 4.844 0 0 1-.43-1.542c-.123-.534 0-1.008.123-1.424.123-.415.369-.77.553-1.008.246-.237.553-.356.921-.237.369 0 .676.237 1.044.534.369.355.553.77.799 1.186.245.534.368 1.008.49 1.542.124.534 0 1.008-.122 1.423-.123.416-.368.772-.553 1.009-.245.237-.552.356-.92.237-.37 0-.676-.237-1.045-.534-.43-.296-.676-.712-.86-1.186z"/>
            <path fill="#FF003D" fill-rule="nonzero" d="M730.261 242.748c-.353 1.215.118 3.158 1.117 4.069.882.91 1.94.668 2.293-.547.353-1.214-.117-3.158-1.058-4.068-1-1.033-2-.668-2.352.546z"/>
            <path fill="#DFE5F4" fill-rule="nonzero" d="M717.043 230.26c-.127-.12-.253-.416-.38-.771l-.127-.237c-.822-2.074-1.391-3.496-1.644-4.266v-.119c0-.118-.127-.355 0-.414l.126-.356c.127-.237.253-.355.38-.415.126 0 .38 0 .443.237l5.63 5.274c.253.237.38.414.38.651.126.356.126.534 0 .77l-.127.356c0 .119-.126.237-.253.237h-3.606c-.253 0-.316-.118-.443-.237 0-.178-.253-.355-.38-.71zm-2.468-4.86s0 .12 0 0l-1.075 3.496c-.127.237 0 .415 0 .77 0 .356.253.534.38.652l5.63 5.274c.253.237.316.237.443.237.126 0 .253-.237.38-.415l.949-3.496v-.118s0-.119-.127-.119h-3.417c-.253 0-.442-.118-.695-.355-.253-.237-.38-.415-.443-.77a6.65 6.65 0 0 1-.38-.89l-.126-.236c-.696-1.896-1.14-3.26-1.519-4.03.127.12.127 0 0 0zM666.541 185.52l32.587 32.4c1.719 1.709 3.621.915 4.357-1.708.676-2.624-.122-6.102-1.718-7.81L669.12 176c-1.719-1.709-3.621-.915-4.358 1.708-.613 2.746.185 6.163 1.78 7.81z"/>
            <path fill="#97ACDD" fill-opacity=".15" fill-rule="nonzero" d="M708.651 216.523l-28.003-48.714 45.245 45.65c-.183.307-.366.675-.55.981-4.952 8.579-12.473 9.559-16.692 2.083z"/>
            <path fill="#97ACDD" fill-rule="nonzero" d="M709.707 202.541l-55.917-97.106c-4.33-7.39-3.72-20.337 1.22-28.948 5-8.49 12.317-9.527 16.646-2.016l55.917 97.106c4.269 7.39 3.72 20.338-1.22 28.949-5 8.489-12.439 9.527-16.646 2.015z"/>
            <path fill="#FFF" fill-rule="nonzero" d="M706.652 202.006l-55.9-97.158c-4.328-7.394-3.718-20.349 1.22-28.965 4.998-8.493 12.313-9.532 16.641-2.016l55.9 97.158c4.328 7.394 3.718 20.348-1.22 28.964-4.876 8.494-12.313 9.35-16.641 2.017z"/>
            <path fill="#FFE600" fill-rule="nonzero" d="M714.226 187.26c-.639 1.175-.639 3.09 0 4.265.64 1.174 1.743 1.174 2.382 0s.639-3.09 0-4.265c-.697-1.174-1.743-1.298-2.382 0z"/>
            <path fill="#DFE5F4" fill-rule="nonzero" d="M704.31 168.021c0-.242-.125-.423-.125-.786v-.242a136.23 136.23 0 0 1-.438-4.595v-.12c0-.121 0-.363.125-.424l.25-.362c.126-.242.251-.363.439-.363s.375.12.438.363l3.943 6.529c.125.242.25.423.25.786 0 .363-.125.544-.25.786l-.25.363c-.126.12-.126.241-.25.12h-.126a70.686 70.686 0 0 0-2.691-.665h-.063c-.25 0-.375-.12-.438-.12a1.723 1.723 0 0 1-.5-.363c-.188-.363-.314-.544-.314-.907zm-1.063-5.26l-2.003 3.265c-.125.242-.25.423-.25.786 0 .363.125.544.25.786l3.943 6.53c.125.24.25.362.5.362s.376-.121.438-.363l1.878-3.144v-.12s0-.121-.125-.121c-.313-.121-1.127-.363-2.566-.666h-.25c-.25-.12-.501-.12-.564-.241-.25-.121-.438-.242-.563-.424-.125-.241-.25-.544-.25-.906 0-.242-.126-.544-.126-1.028v-.363c-.25-2.116-.312-3.506-.312-4.171.125-.121.125-.182 0-.182zM666.865 110.26l22.91 39.768c1.161 2.013 3.3 1.83 4.644-.549 1.344-2.379 1.466-5.916.366-7.93l-22.91-39.768c-1.1-2.013-3.3-1.83-4.643.55-1.344 2.317-1.589 5.916-.367 7.928zM657.924 88.133c.127.55.382 1.162.573 1.59.191.427.573.794.956 1.039l.573 1.039c.255.428.446.916.446 1.467a3.88 3.88 0 0 1 0 1.711c-.128.55-.255 1.039-.446 1.467l-.128.244c-.127.245-.382.367-.445.367-.255 0-.383-.122-.446-.367l-4.522-7.395c-.127-.245-.255-.55-.255-.795 0-.367.128-.55.255-.795l.127-.244c.255-.428.573-.672.828-.795.382-.122.7-.122.956 0 .382.123.573.428.828.795l.7.672zm.573-.916a4.444 4.444 0 0 1 0-1.834c.128-.55.255-1.161.573-1.59.255-.427.574-.794.956-.916s.7-.122 1.083 0c.382.122.7.428.955.917.255.428.446 1.039.573 1.589.127.55.127 1.222 0 1.834-.127.55-.255 1.16-.573 1.589-.255.428-.573.794-.955.917-.383.122-.701.122-1.083 0-.382-.123-.7-.428-.956-.917-.254-.428-.445-1.04-.573-1.59z"/>
        </g>
    </g>
</svg>
