<svg xmlns="http://www.w3.org/2000/svg" width="46" height="46" viewBox="0 0 46 46">
    <g fill="#1D425A" fill-rule="nonzero" opacity=".5">
        <path d="M23.608 25.062a.974.974 0 1 0 1.378 1.379.974.974 0 1 0-1.378-1.379z"/>
        <path d="M39.106 2.9c-1.673 1.295-2.128 1.962-8.06 7.833l-3.556-.58 1.632-1.631a2.922 2.922 0 0 0 0-4.135 2.923 2.923 0 0 0-4.136 0l-4.609 4.609L4.258 6.37a3.288 3.288 0 0 0-2.456 5.91l16.063 11.632-3.008 3.008c-1.03 1.03-2.115 2.448-3.23 4.218l-7.49-2.203a3.15 3.15 0 0 0-2.681 5.613l6.14 4.251c-1.07 2.36-1.72 4.066-1.75 4.144a.975.975 0 0 0 1.258 1.258c.079-.03 1.785-.68 4.144-1.75l4.252 6.142a3.15 3.15 0 0 0 5.612-2.682l-2.202-7.49c1.77-1.116 3.187-2.2 4.218-3.23l3.007-3.008 11.633 16.063a3.288 3.288 0 0 0 5.91-2.457l-2.625-16.118 4.609-4.61a2.923 2.923 0 0 0 0-4.135 2.922 2.922 0 0 0-4.135 0l-1.632 1.632-.579-3.556c5.877-5.938 6.533-6.383 7.829-8.056l.005-.006c3.006-3.896 3.71-7.83 1.75-9.792-1.961-1.96-5.897-1.257-9.794 1.751zM26.365 5.765a.975.975 0 1 1 1.379 1.378l-2.625 2.625-2.371-.387 3.617-3.616zm-23.42 4.936a1.338 1.338 0 0 1 1-2.406l25.403 4.136L19.26 22.517 2.945 10.701zM2.398 31.11a1.201 1.201 0 0 1 1.188-.304l7.007 2.06a66.343 66.343 0 0 0-2.16 4.142l-5.868-4.061a1.201 1.201 0 0 1-.167-1.837zM18.94 47.65a1.202 1.202 0 0 1-1.837-.166l-4.062-5.868a66.828 66.828 0 0 0 4.142-2.16l2.06 7.006c.124.422.008.877-.303 1.188zm23.967-25.345a.974.974 0 1 1 1.377 1.38L40.667 27.3l-.386-2.37 2.625-2.625zm-1.153 23.797a1.339 1.339 0 0 1-2.406 1.002L27.53 30.788 37.618 20.7l4.135 25.401zM21.75 33.812c-1.072 1.074-2.642 2.232-4.665 3.444-2.63 1.575-5.743 3.066-8.55 4.259 1.225-2.884 2.745-6.047 4.354-8.707 1.176-1.947 2.303-3.464 3.348-4.509C40.044 4.55 38.634 5.773 40.08 4.618c1.603-.103 3.013.373 3.996 1.356.982.982 1.458 2.393 1.356 3.996-1.158 1.448.052.051-23.682 23.843zM47.1 7.41a6.501 6.501 0 0 0-1.646-2.814 6.506 6.506 0 0 0-2.812-1.645c1.41-.716 3.786-1.517 4.88-.423.864.865.65 2.768-.422 4.882z"/>
        <path d="M29.122 19.549l-2.757 2.756a.975.975 0 1 0 1.379 1.378l2.756-2.756a.974.974 0 1 0-1.378-1.378zM34.635 14.035l-2.757 2.757a.975.975 0 0 0 1.378 1.379l2.758-2.757a.975.975 0 0 0-1.379-1.379z"/>
    </g>
</svg>
