<svg xmlns="http://www.w3.org/2000/svg" width="400" height="340" viewBox="0 0 400 340">
    <g fill="none" fill-rule="evenodd" transform="matrix(-1 0 0 1 400 0)">
        <circle cx="321.767" cy="21.451" r="6.309" fill="#F1F1F1" fill-rule="nonzero"/>
        <circle cx="283.912" cy="267.508" r="6.309" fill="#F1F1F1" fill-rule="nonzero"/>
        <circle cx="126.183" cy="82.019" r="6.309" fill="#F1F1F1" fill-rule="nonzero"/>
        <ellipse cx="67.508" cy="329.338" fill="#F1F1F1" fill-rule="nonzero" rx="67.508" ry="10.095"/>
        <path fill="#00C692" fill-rule="nonzero" d="M103.337 257.413l16.537-5.25a62.04 62.04 0 0 0-6.177-19.986l-16.536 5.25a38.045 38.045 0 0 1 6.176 19.986z"/>
        <circle cx="62.461" cy="114.196" r="15.773" fill="#2F2E41" fill-rule="nonzero"/>
        <path fill="#9F616A" fill-rule="nonzero" d="M45.846 313.453l-2.944 13.36h7.15l2.945-15.141zM80.757 312.934v11.777l7.571.841v-12.618zM42.902 175.827s.841 18.67 1.683 19.973c.84 1.303 8.412 19.973 8.412 19.973l3.785-12.157s-5.888-9.987-5.047-15.631c.841-5.645.311-12.59.311-12.59l-9.144.432z"/>
        <circle cx="67.508" cy="119.243" r="11.987" fill="#9F616A" fill-rule="nonzero"/>
        <path fill="#9F616A" fill-rule="nonzero" d="M57.17 121.136s.435 17.528-2.603 20.157c-3.037 2.629 17.357.438 17.357.438s-4.339-12.27-.868-14.899c3.472-2.629-13.885-5.696-13.885-5.696z"/>
        <path fill="#2F2E41" fill-rule="nonzero" d="M74.105 139.365s-2.564-4.754-5.983-4.321c-3.418.432-14.528 1.296-14.956 2.16-.427.865-1.709 3.89-2.564 4.754-.854.865-7.264 2.161-7.691 7.347-.428 5.186 15.383 36.734 15.383 36.734s-2.137 7.347-1.71 9.075c.428 1.73-2.136 6.915-1.709 9.076.428 2.16-6.41 15.126-2.99 31.98v27.226s-11.538 47.106-8.12 50.564c3.419 3.457 14.956 1.296 17.093 0 2.136-1.297 11.11-66.554 11.11-66.554l4.273-22.04.427 48.402s-.854 40.624 2.137 41.92c2.991 1.297 14.529 1.729 15.383-.864.667-2.022 3.932-55.83 5.338-79.417a89.093 89.093 0 0 0-1.882-24.277c-1.778-8.159-4.36-17.744-7.302-21.634-5.555-7.347-8.973-30.683-8.973-30.683l7.264-13.398s-4.273-4.321-6.837-4.321-7.691-1.729-7.691-1.729z"/>
        <path fill="#2F2E41" fill-rule="nonzero" d="M44.691 147.634l-2.244 1.526s-1.586 27.375-.31 29.075c1.277 1.7 10.155.87 10.824-.628.669-1.497-8.27-29.973-8.27-29.973z"/>
        <path fill="#9F616A" fill-rule="nonzero" d="M80.757 172.696s.42 17.971 2.935 23.106c2.515 5.134 11.737 26.529 11.737 26.529s-.535 23.548 4.134 17.764c4.67-5.783 1.735-19.476 1.735-19.476l-7.965-31.664s-4.192-14.12-3.773-18.399c.42-4.279-8.803 2.14-8.803 2.14z"/>
        <path fill="#2F2E41" fill-rule="nonzero" d="M87.379 318.022s.425-.34 1.702.934c1.278 1.274 4.684 2.972 4.258 7.642-.426 4.67-2.98 5.519-2.98 5.519v-1.274H89.08v2.123s-2.128 6.792-11.92 2.547c0 0-.426-3.396 0-5.52.426-2.122.426-12.31 1.703-11.886 1.277.425 4.683.85 5.534 2.547.852 1.699 3.406 1.104 2.98-2.632zM43.852 319.284s-.426-.34-1.703.934c-1.277 1.274-4.683 2.972-4.258 7.642.426 4.67 2.98 5.518 2.98 5.518v-1.273h1.278v2.122s2.129 6.793 11.92 2.548c0 0 .426-3.397 0-5.52-.425-2.122-.425-12.31-1.702-11.886-1.278.425-4.684.85-5.535 2.547-.852 1.698-3.406 1.103-2.98-2.632zM82.212 145.11l5.847 1.271s0 9.321 1.671 13.134c1.671 3.813 4.595 12.71 3.342 13.134-1.253.424-12.949 6.355-13.784 2.966-.836-3.39-2.924-30.505 2.924-30.505z"/>
        <circle cx="44.795" cy="94.006" r="15.773" fill="#2F2E41" fill-rule="nonzero"/>
        <path fill="#2F2E41" fill-rule="nonzero" d="M31.07 106.802a15.94 15.94 0 0 0 14.372 2.14c4.858-1.638 8.614-5.51 10.079-10.387-.745 5.874-4.756 10.833-10.374 12.828A15.93 15.93 0 0 1 28.922 108a15.623 15.623 0 0 1-4.289-15.886c-.722 5.695 1.746 11.327 6.436 14.688z"/>
        <circle cx="58.044" cy="117.35" r="11.356" fill="#2F2E41" fill-rule="nonzero"/>
        <ellipse cx="68.139" cy="112.934" fill="#2F2E41" fill-rule="nonzero" rx="10.095" ry="8.202"/>
        <ellipse cx="71.293" cy="121.767" fill="#A0616A" fill-rule="nonzero" rx="1.893" ry="3.155"/>
        <path fill="#F1F1F1" fill-rule="nonzero" d="M174.711 9.331l219.974 66.15-53.067 176.973-219.974-66.15z"/>
        <path stroke="#3F3D56" stroke-width="2" d="M262.461 60.568l51.735 21.451"/>
        <path fill="#3F3D56" fill-rule="nonzero" d="M264.613 65.615l.767-.352-1.768-3.716 3.896-1.463-.303-.778-4.744 1.784zM310.713 84.543l-.303-.778 3.896-1.463-1.768-3.716.767-.353 2.152 4.527z"/>
        <ellipse cx="288.328" cy="71.924" fill="#3F3D56" fill-rule="nonzero" rx="4.416" ry="5.047"/>
        <path stroke="#3F3D56" stroke-width="2" d="M258.675 206.94l47.95-29.022"/>
        <path fill="#3F3D56" fill-rule="nonzero" d="M263.555 209.464l.167-.886-4.007-.893 1.111-4.286-.8-.244-1.35 5.22zM306.534 182.965l-.799-.244 1.111-4.286-4.007-.894.168-.885 4.88 1.09z"/>
        <ellipse cx="283.281" cy="193.06" fill="#3F3D56" fill-rule="nonzero" rx="4.416" ry="5.047"/>
        <path stroke="#3F3D56" stroke-width="2" d="M198.099 114.826l.017 56.783"/>
        <path fill="#3F3D56" fill-rule="nonzero" d="M194.322 116.842l.678.508 3.106-2.691 3.11 2.69.677-.509-3.787-3.275zM194.322 168.333l.678-.508 3.108 2.69 3.107-2.692.678.508-3.785 3.278z"/>
        <ellipse cx="198.738" cy="142.587" fill="#3F3D56" fill-rule="nonzero" rx="4.416" ry="5.047"/>
        <path fill="#3F3D56" fill-rule="nonzero" d="M158.991 0h78.233v97.161h-78.233z"/>
        <path fill="#FF6584" fill-rule="nonzero" d="M193.06 36.593h-18.006a62.875 62.875 0 0 1 0-21.451h18.006a38.568 38.568 0 0 0 0 21.451z"/>
        <path fill="#00C692" fill-rule="nonzero" d="M203.155 46.688h18.005a62.875 62.875 0 0 0 0-21.451h-18.005a38.568 38.568 0 0 1 0 21.45zM185.489 82.019h18.006a62.875 62.875 0 0 0 0-21.451h-18.006a38.568 38.568 0 0 1 0 21.45z"/>
        <path fill="#3F3D56" fill-rule="nonzero" d="M321.767 92.114H400v97.161h-78.233z"/>
        <path fill="#00C692" fill-rule="nonzero" d="M333.123 113.565h55.521v2.524h-55.521zM333.123 122.397h55.521v2.524h-55.521zM333.123 131.23h55.521v2.524h-55.521zM333.123 140.063h55.521v2.524h-55.521zM333.123 148.896h55.521v2.524h-55.521zM345.741 158.991h29.022v10.095h-29.022z"/>
        <path fill="#3F3D56" fill-rule="nonzero" d="M165.3 193.06h78.233v97.161H165.3z"/>
        <path fill="#00C692" fill-rule="nonzero" d="M176.656 247.319h55.521v2.524h-55.521zM176.656 256.151h55.521v2.524h-55.521zM176.656 264.984h55.521v2.524h-55.521zM176.656 273.817h55.521v2.524h-55.521z"/>
        <path fill="#00C692" fill-rule="nonzero" d="M194.322 227.13h-18.006a62.875 62.875 0 0 1 0-21.452h18.006a38.568 38.568 0 0 0 0 21.451zM201.893 208.202h32.808v2.524h-32.808zM201.893 215.773h32.808v2.524h-32.808zM201.893 223.344h32.808v2.524h-32.808zM201.893 230.915h32.808v2.524h-32.808z" opacity=".3"/>
    </g>
</svg>
