<svg xmlns="http://www.w3.org/2000/svg" width="56" height="31" viewBox="0 0 56 31">
    <path fill="#1D425A" fill-rule="nonzero" d="M47.213 8.185c-1.744 0-3.407.354-4.923.995l-3.625-7.1h5.067c.55 0 .997.451.997 1.006 0 .555-.447 1.006-.997 1.006h-1.081c-.57 0-1.03.466-1.03 1.04 0 .575.46 1.04 1.03 1.04h1.081c1.686 0 3.057-1.384 3.057-3.086S45.418 0 43.732 0h-6.757c-.359 0-.692.189-.88.499-.186.31-.2.695-.035 1.017l1.802 3.531H22.995l-1.5-2.967h2.372c.57 0 1.03-.466 1.03-1.04 0-.574-.46-1.04-1.03-1.04h-6.756c-.57 0-1.03.466-1.03 1.04 0 .574.46 1.04 1.03 1.04h2.072l2.002 3.96-2.353 3.68a12.613 12.613 0 0 0-6.045-1.535C5.737 8.185 0 13.975 0 21.092 0 28.21 5.736 34 12.787 34c6.703 0 12.218-5.235 12.745-11.868h3.022L27.38 25.99h-.676c-.569 0-1.03.466-1.03 1.04 0 .574.461 1.04 1.03 1.04h3.709c.569 0 1.03-.466 1.03-1.04 0-.574-.461-1.04-1.03-1.04h-.878l1.356-4.453 8.571-13.355.999 1.955a12.938 12.938 0 0 0-6.034 10.956C34.427 28.21 40.163 34 47.213 34S60 28.21 60 21.092c0-7.117-5.736-12.907-12.787-12.907zm-24.946-.002l6 11.87h-2.735a12.935 12.935 0 0 0-4.972-9.201l1.707-2.67zm1.196 11.87h-8.785l4.76-7.446a10.848 10.848 0 0 1 4.025 7.445zM12.787 31.92c-5.915 0-10.727-4.857-10.727-10.828 0-5.97 4.812-10.828 10.727-10.828 1.773 0 3.446.44 4.922 1.212l-5.788 9.052c-.204.32-.22.727-.039 1.062.18.334.527.542.905.542h10.676c-.52 5.485-5.11 9.788-10.676 9.788zm17.268-12.906L24.047 7.127h13.637l-7.63 11.887zM47.213 31.92c-5.914 0-10.726-4.857-10.726-10.828a10.85 10.85 0 0 1 4.922-9.098l4.889 9.575a1.029 1.029 0 0 0 1.387.447c.506-.263.705-.89.444-1.4l-4.89-9.578a10.58 10.58 0 0 1 3.974-.774c5.915 0 10.727 4.858 10.727 10.828S53.128 31.92 47.213 31.92z" opacity=".5"/>
</svg>
