<svg xmlns="http://www.w3.org/2000/svg" width="15" height="15" viewBox="0 0 15 15">
    <g fill="#FFF" fill-rule="evenodd">
        <path fill-rule="nonzero" d="M7.436 0C3.336 0 0 3.336 0 7.436s3.336 7.435 7.436 7.435 7.435-3.335 7.435-7.435S11.536 0 7.436 0zm0 13.29a5.86 5.86 0 0 1-5.854-5.854 5.86 5.86 0 0 1 5.854-5.854 5.86 5.86 0 0 1 5.853 5.854 5.86 5.86 0 0 1-5.853 5.853z"/>
        <path d="M11.31 7.206H7.97V3.188a.612.612 0 0 0-1.225 0v4.63c0 .338.274.613.612.613h3.954a.612.612 0 0 0 0-1.225z"/>
    </g>
</svg>
