<svg xmlns="http://www.w3.org/2000/svg" xmlns:xlink="http://www.w3.org/1999/xlink" width="658" height="605" viewBox="0 0 658 605">
    <defs>
        <path id="a" d="M179.44 0L55.755 77.685C35.177 90.61 28.973 117.77 41.898 138.348a44 44 0 0 0 11.786 12.474L741.234 639V0H179.44z"/>
    </defs>
    <g fill="none" fill-rule="evenodd" transform="translate(-35)">
        <mask id="b" fill="#fff">
            <use xlink:href="#a"/>
        </mask>
        <use fill="#1D425A" xlink:href="#a"/>
        <g mask="url(#b)" opacity=".1">
            <path fill="#00C692" d="M575.4 391.4c-20 12.8-35.733 27.067-47.2 42.8-11.467 15.733-17.2 34.267-17.2 55.6 0 12 2.533 24.067 7.6 36.2 5.067 12.133 12.667 22.2 22.8 30.2 10.133 8 22.267 12 36.4 12 11.467 0 21.667-2.667 30.6-8s15.867-12.533 20.8-21.6c4.933-9.067 7.4-19.067 7.4-30 0-12.533-3.8-25.333-11.4-38.4-7.6-13.067-17.533-24.133-29.8-33.2-12.267-9.067-24.8-14.133-37.6-15.2 5.333-5.333 11.733-10.933 19.2-16.8a728.062 728.062 0 0 1 22.8-17.2c18.4 6.133 32.933 17.8 43.6 35 10.667 17.2 16 36.333 16 57.4 0 18.667-3.8 36.6-11.4 53.8-7.6 17.2-18.733 31.2-33.4 42-14.667 10.8-32 16.2-52 16.2-16 0-30.733-3.933-44.2-11.8-13.467-7.867-24.067-18.6-31.8-32.2-7.733-13.6-11.6-28.667-11.6-45.2 0-29.067 8.6-54.267 25.8-75.6 17.2-21.333 39.667-36.133 67.4-44.4l7.2 8.4z"/>
            <path fill="#FFF" d="M630.317 406.304c2.037-1.636 3.623-2.723 4.683-3.504 14.667-10.8 32-16.2 52-16.2 16 0 30.733 3.933 44.2 11.8 13.467 7.867 24.067 18.6 31.8 32.2 7.733 13.6 11.6 28.667 11.6 45.2 0 29.067-8.6 54.267-25.8 75.6-17.2 21.333-39.667 36.133-67.4 44.4l-7.2-8.4c20-12.8 35.733-27.067 47.2-42.8 11.467-15.733 17.2-34.267 17.2-55.6 0-12-2.533-24.067-7.6-36.2-5.067-12.133-12.667-22.2-22.8-30.2-10.133-8-22.267-12-36.4-12-11.467 0-21.845 3.139-30.778 8.472-2.576-3.448-4.583-6.025-6.022-7.731-.932-1.105-2.493-2.784-4.683-5.037zM613 470.2c0 12.533 3.8 25.333 11.4 38.4 7.6 13.067 17.533 24.133 29.8 33.2 12.267 9.067 24.8 14.133 37.6 15.2-5.333 5.333-11.733 10.933-19.2 16.8a728.062 728.062 0 0 1-22.8 17.2c-18.4-6.133-32.933-17.8-43.6-35-10.667-17.2-16-36.333-16-57.4 0-18.667 3.8-36.6 11.4-53.8.198-.448.5-1.114.906-2 4.8 4.002 5.09 4.404 6.371 5.792.373.404 3.717 4.02 5.937 6.765-1.21 7.594-1.814 12.542-1.814 14.843z"/>
        </g>
    </g>
</svg>
