<svg xmlns="http://www.w3.org/2000/svg" xmlns:xlink="http://www.w3.org/1999/xlink" width="40" height="35" viewBox="0 0 40 35">
    <defs>
        <path id="a" d="M1.554 8.277C1.8 9.43 2.4 10.107 3 10.507h6.323c.77-.522 1.554-1.507 1.554-3.353v-4.77S10.969 1.2 12.062.816c0 0 .63-.446-.047-.692 0 0-3-.246-3 2.215V5.97s.123 1.339-.584 1.893V3.369s.046-1.43.784-1.969c0 0 .493-.877-.584-.646 0 0-2.062.292-2.154 2.708L6.43 8.077h-.493l-.046-4.615C5.8 1.062 3.738.754 3.738.754c-1.076-.246-.584.646-.584.646.738.538.784 1.97.784 1.97v4.538c-.707-.508-.584-1.939-.584-1.939V2.34c0-2.462-3-2.216-3-2.216C-.338.37.308.815.308.815c1.077.4 1.184 1.57 1.184 1.57v3.338l.062 2.554z"/>
    </defs>
    <g fill="none" fill-rule="evenodd">
        <path fill="#9EDCF2" fill-rule="nonzero" d="M30.908 30.738c0 2.139-4.954 3.862-11.062 3.862S8.785 32.862 8.785 30.738c0-2.138 4.953-3.861 11.061-3.861s11.062 1.723 11.062 3.861z"/>
        <g transform="translate(13.538 29.385)">
            <mask id="b" fill="#fff">
                <use xlink:href="#a"/>
            </mask>
            <path fill="#7DBCE7" fill-rule="nonzero" d="M17.37 1.354c0 2.138-4.955 3.861-11.062 3.861C.2 5.215-4.754 3.477-4.754 1.354-4.754-.785.2-2.508 6.308-2.508c6.107 0 11.061 1.723 11.061 3.862z" mask="url(#b)"/>
        </g>
        <path fill="#9EDCF2" fill-rule="nonzero" d="M7.215 19.37l-.323 1.107s-.077.4.293.477c.4-.016.369-.385.338-.492l-.308-1.093z"/>
        <path fill="#010101" fill-rule="nonzero" d="M39.354 14.708l.03-.139c-3.246-.646-6.569-.661-8.584-.569.323-1.185.43-2.57.43-4.092 0-2.2-.83-3.954-2.153-5.277.23-.754.538-2.431-.308-4.57 0 0-1.507-.476-4.938 1.816a17.252 17.252 0 0 0-4.2-.508c-1.57 0-3.154.2-4.646.6C11.446-.446 9.892.046 9.892.046c-1.015 2.539-.384 4.43-.2 4.892-1.2 1.293-1.923 2.939-1.923 4.954 0 1.523.17 2.893.6 4.077-2.03-.077-5.23-.046-8.369.585l.03.138c3.14-.63 6.37-.646 8.385-.569.093.246.2.492.308.723-2 .062-5.4.323-8.661 1.246l.046.139C3.4 15.308 6.83 15.06 8.815 15c1.2 2.215 3.539 3.662 7.723 4.108-.6.4-1.2 1.077-1.446 2.23-.815.385-3.369 1.339-4.907-1.307 0 0-.862-1.57-2.508-1.693 0 0-1.6-.03-.108 1 0 0 1.062.508 1.8 2.4 0 0 .97 3.231 5.6 2.185v3.308s-.092 1.184-1.184 1.569c0 0-.647.446.046.692 0 0 3 .246 3-2.215v-3.63s-.123-1.447.584-1.94v5.97s-.046 1.43-.784 1.97c0 0-.493.876.584.645 0 0 2.062-.292 2.154-2.707l.046-6.047h.493l.046 6.047c.092 2.4 2.154 2.707 2.154 2.707 1.077.246.584-.646.584-.646-.738-.538-.784-1.97-.784-1.97v-5.922c.707.554.584 1.892.584 1.892v3.63c0 2.462 3 2.216 3 2.216.693-.246.046-.692.046-.692-1.076-.4-1.184-1.57-1.184-1.57v-4.768c0-1.862-.785-2.847-1.554-3.354 4.462-.446 6.6-1.877 7.585-4.123 1.953.046 5.477.292 8.83 1.246l.047-.139c-3.339-.938-6.831-1.184-8.816-1.246.092-.23.17-.461.246-.708 2.062-.076 5.4-.076 8.662.57z"/>
        <path fill="#F5CCB3" fill-rule="nonzero" d="M26.862 9.8c.953.877 1.523 1.923 1.523 3.046 0 5.292-3.939 5.43-8.8 5.43-4.862 0-8.8-.738-8.8-5.43 0-1.123.553-2.17 1.507-3.03 1.585-1.447 4.262-.678 7.293-.678 3.03 0 5.692-.784 7.277.662z"/>
        <path fill="#FFF" fill-rule="nonzero" d="M16.662 13.123c0 1.462-.816 2.63-1.831 2.63-1.016 0-1.831-1.184-1.831-2.63 0-1.461.815-2.63 1.83-2.63 1.016-.016 1.832 1.169 1.832 2.63z"/>
        <path fill="#AF5C51" fill-rule="nonzero" d="M16.077 13.154c0 .97-.554 1.754-1.215 1.754-.677 0-1.216-.785-1.216-1.754 0-.97.554-1.754 1.216-1.754.661 0 1.215.785 1.215 1.754z"/>
        <path fill="#FFF" fill-rule="nonzero" d="M26.492 13.123c0 1.462-.815 2.63-1.83 2.63-1.016 0-1.831-1.184-1.831-2.63 0-1.461.815-2.63 1.83-2.63 1-.016 1.831 1.169 1.831 2.63z"/>
        <path fill="#AF5C51" fill-rule="nonzero" d="M25.892 13.154c0 .97-.554 1.754-1.215 1.754-.677 0-1.215-.785-1.215-1.754 0-.97.553-1.754 1.215-1.754.677 0 1.215.785 1.215 1.754zm-5.815 2.308a.463.463 0 0 1-.923 0c0-.262.2-.462.461-.462.247 0 .462.2.462.462zm-1.523 1.153c-.03-.077.015-.153.092-.184s.154.015.185.092c.123.339.43.554.784.554.354 0 .662-.23.785-.554.03-.077.108-.123.185-.092.077.03.123.107.092.184a1.13 1.13 0 0 1-1.062.754 1.13 1.13 0 0 1-1.061-.754z"/>
        <path fill="#C4E5D9" fill-rule="nonzero" d="M8.385 18.708c0 .123-.139.215-.323.215-.17 0-.324-.092-.324-.215s.139-.216.324-.216c.184 0 .323.093.323.216zm.892.492c0 .123-.139.215-.323.215-.17 0-.323-.092-.323-.215s.138-.215.323-.215c.184 0 .323.092.323.215zm.538.646c0 .123-.138.216-.323.216-.169 0-.323-.093-.323-.216s.139-.215.323-.215c.185-.016.323.092.323.215zm.493.739c0 .123-.139.215-.323.215-.17 0-.323-.092-.323-.215s.138-.216.323-.216c.184-.015.323.093.323.216zm.538.677c0 .123-.138.215-.323.215-.17 0-.323-.092-.323-.215 0-.124.138-.216.323-.216s.323.092.323.216zm.739.6c0 .123-.139.215-.323.215-.17 0-.324-.092-.324-.215 0-.124.139-.216.324-.216.184-.015.323.092.323.216zm1.03.384c0 .123-.138.216-.323.216-.169 0-.323-.093-.323-.216s.139-.215.323-.215c.185 0 .323.092.323.215zm1.031 0c0 .123-.138.216-.323.216-.17 0-.323-.093-.323-.216s.138-.215.323-.215.323.092.323.215zm1.046-.17c0 .124-.138.216-.323.216-.169 0-.323-.092-.323-.215s.139-.215.323-.215c.17 0 .323.092.323.215z"/>
    </g>
</svg>
