<svg xmlns="http://www.w3.org/2000/svg" width="46" height="46" viewBox="0 0 46 46">
    <path fill="#2C3E50" fill-rule="nonzero" d="M25 0C11.176 0 0 11.176 0 25s11.176 25 25 25 25-11.176 25-25S38.824 0 25 0zm-7.546 3.405a35.913 35.913 0 0 0-3.384 5.849H8.395a22.67 22.67 0 0 1 9.059-5.85zM6.605 11.38h6.565a37.614 37.614 0 0 0-2.516 12.557H2.157A22.805 22.805 0 0 1 6.605 11.38zm0 27.24a22.805 22.805 0 0 1-4.448-12.557h8.497a37.404 37.404 0 0 0 2.557 12.557H6.605zm1.79 2.126h5.726a38.439 38.439 0 0 0 3.374 5.87 22.75 22.75 0 0 1-9.1-5.87zm15.542 7.107a24.364 24.364 0 0 1-3.14-.358 36.118 36.118 0 0 1-4.325-6.738h7.465v7.096zm0-9.233H15.5a35.581 35.581 0 0 1-2.72-12.557h11.156V38.62zm0-14.683H12.78a35.834 35.834 0 0 1 2.7-12.557h8.456v12.557zm.01-14.683h-7.495a34.927 34.927 0 0 1 4.346-6.739 22.652 22.652 0 0 1 3.149-.358v7.097zm19.448 2.126a22.698 22.698 0 0 1 4.448 12.557h-8.497a37.404 37.404 0 0 0-2.557-12.557h6.606zm-1.79-2.126H35.88a37.663 37.663 0 0 0-3.384-5.87 22.716 22.716 0 0 1 9.11 5.87zM26.063 2.157c1.064.052 2.117.174 3.14.358a36.118 36.118 0 0 1 4.325 6.739h-7.465V2.157zm0 9.223H34.5a35.533 35.533 0 0 1 2.72 12.557H26.063V11.38zm0 14.683H37.22a35.834 35.834 0 0 1-2.7 12.557h-8.456V26.063zm-.01 21.78v-7.097h7.495a34.927 34.927 0 0 1-4.346 6.739 22.652 22.652 0 0 1-3.149.358zm6.442-1.227a37.548 37.548 0 0 0 3.364-5.87h5.757a22.823 22.823 0 0 1-9.121 5.87zm4.264-7.996a39.267 39.267 0 0 0 2.576-12.557h8.518a22.805 22.805 0 0 1-4.448 12.557h-6.646z" opacity=".5"/>
</svg>
