<svg xmlns="http://www.w3.org/2000/svg" width="50" height="50" viewBox="0 0 50 50">
    <g fill="#000" fill-rule="nonzero">
        <path d="M18.015 40.16c-.347.064-.499.227-.455.487.043.26.238.347.585.26.347-.087.499-.239.455-.455-.043-.239-.238-.336-.585-.293zM16.162 40.42c-.347 0-.52.118-.52.357 0 .282.184.4.552.358.347 0 .52-.12.52-.358 0-.281-.184-.4-.552-.357zM13.625 40.321c-.086.239.055.401.423.488.325.13.531.065.618-.195.065-.238-.076-.411-.423-.52-.325-.087-.531-.012-.618.227z"/>
        <path d="M47.2 2.747C45.366.916 43.161 0 40.581 0H9.365c-2.58 0-4.786.916-6.618 2.747C.916 4.58 0 6.785 0 9.365v31.217c0 2.58.916 4.786 2.747 6.617 1.832 1.832 4.039 2.748 6.618 2.748h7.284c.477 0 .834-.016 1.073-.048.238-.033.476-.174.715-.423.239-.25.358-.613.358-1.09l-.017-2.21c-.01-1.41-.016-2.527-.016-3.35l-.748.13c-.477.086-1.079.124-1.805.113-.726-.01-1.48-.086-2.26-.227a5.066 5.066 0 0 1-2.178-.975 4.127 4.127 0 0 1-1.431-2l-.325-.749c-.217-.498-.558-1.05-1.024-1.657-.467-.608-.938-1.02-1.415-1.236l-.228-.163a2.391 2.391 0 0 1-.422-.39 1.807 1.807 0 0 1-.293-.456c-.065-.152-.01-.276.163-.374.173-.098.487-.146.943-.146l.65.097c.434.087.97.347 1.61.78.64.434 1.165.998 1.577 1.691.499.89 1.1 1.566 1.805 2.032.704.467 1.414.7 2.13.7.715 0 1.332-.054 1.853-.162a6.474 6.474 0 0 0 1.463-.488c.195-1.453.726-2.57 1.593-3.35a22.268 22.268 0 0 1-3.333-.586c-.986-.26-2.005-.682-3.056-1.268-1.052-.585-1.925-1.311-2.618-2.179-.694-.867-1.263-2.005-1.707-3.414-.444-1.41-.667-3.036-.667-4.878 0-2.623.857-4.856 2.57-6.699-.803-1.972-.727-4.183.227-6.633.629-.195 1.56-.049 2.796.439 1.236.488 2.141.905 2.716 1.252.574.346 1.035.64 1.382.878a23.082 23.082 0 0 1 6.243-.845c2.146 0 4.228.281 6.244.845l1.236-.78c.846-.52 1.843-.998 2.992-1.431 1.149-.434 2.027-.553 2.634-.358.975 2.45 1.062 4.661.26 6.634 1.712 1.842 2.569 4.075 2.569 6.698 0 1.843-.222 3.475-.667 4.894-.444 1.42-1.018 2.559-1.723 3.415-.704.856-1.582 1.577-2.634 2.162-1.051.585-2.07 1.009-3.057 1.268-.986.26-2.097.456-3.333.586 1.127.976 1.69 2.514 1.69 4.618v7.772c0 .368.054.666.163.894.109.227.282.384.52.471.24.087.45.141.635.163a7.3 7.3 0 0 0 .797.032h7.283c2.58 0 4.786-.916 6.617-2.748 1.832-1.831 2.748-4.038 2.748-6.617V9.365c0-2.58-.916-4.786-2.748-6.618z"/>
        <path d="M9.885 36.355c-.151.108-.13.281.065.52.218.216.39.249.521.097.152-.108.13-.281-.066-.52-.216-.195-.39-.228-.52-.097zM8.813 35.542c-.065.152.01.282.227.39.173.109.315.087.423-.065.065-.152-.011-.282-.228-.39-.217-.066-.357-.044-.422.065zM10.894 37.623c-.196.108-.196.304 0 .585.195.282.379.358.552.228.196-.152.196-.358 0-.618-.173-.281-.357-.347-.552-.195zM12.032 39.086c-.195.174-.152.379.13.618.26.26.477.292.65.097.174-.173.13-.379-.13-.618-.26-.26-.477-.292-.65-.097z"/>
    </g>
</svg>
