<svg xmlns="http://www.w3.org/2000/svg" width="47" height="46" viewBox="0 0 47 46">
    <g fill="#1D425A" fill-rule="nonzero" opacity=".5">
        <path d="M23.027 33.913a.978.978 0 0 0-1.382-1.382.978.978 0 0 0 1.381 1.382zM18.403 10.74c0 5.92 4.818 10.739 10.74 10.739 5.92 0 10.739-4.818 10.739-10.74C39.882 4.818 35.064 0 29.142 0c-5.921 0-10.739 4.818-10.739 10.74zm19.526 0c0 4.844-3.942 8.786-8.787 8.786-4.845 0-8.786-3.942-8.786-8.787 0-4.845 3.941-8.786 8.786-8.786s8.787 3.941 8.787 8.786z"/>
        <path d="M11.294 49.711a.976.976 0 0 0 1.378.008l4.733-4.663a2.95 2.95 0 0 0 .695-3.03l1.018-.981a2.911 2.911 0 0 1 2.033-.822h12.98a8.741 8.741 0 0 0 6.128-2.49c.068-.066-.516.621 8.854-10.577a3.91 3.91 0 0 0-.464-5.504 3.915 3.915 0 0 0-5.478.435L37.41 28.01a3.924 3.924 0 0 0-3.036-1.454H23.487a12.595 12.595 0 0 0-4.888-.976c-4.702 0-8.807 2.171-11.01 6.242a2.916 2.916 0 0 0-2.61.81L.333 37.289a.976.976 0 0 0-.002 1.377L11.294 49.71zm7.304-22.18c1.496 0 2.941.301 4.298.895a.975.975 0 0 0 .392.082h11.086c1.059 0 1.953.863 1.953 1.952a1.955 1.955 0 0 1-1.953 1.953H26.41a.976.976 0 0 0 0 1.952h7.965a3.91 3.91 0 0 0 3.871-4.415c5.573-5.729 6.359-6.533 6.392-6.574a1.96 1.96 0 0 1 2.753-.232c.822.695.927 1.93.229 2.756l-8.757 10.468a6.798 6.798 0 0 1-4.732 1.903H21.151a4.854 4.854 0 0 0-3.389 1.369l-.83.8-7.648-7.648c1.788-3.353 5.142-5.26 9.314-5.26zM6.36 34.011a.974.974 0 0 1 1.209-.138c.169.103-.316-.339 8.456 8.421.39.39.369 1.012.005 1.376l-4.035 3.976-9.593-9.666 3.958-3.97zM27.97 4.882v1.144a2.933 2.933 0 0 0-1.952 2.76 2.932 2.932 0 0 0 2.93 2.93.977.977 0 0 1 0 1.952c-.418 0-.868-.262-1.269-.738a.977.977 0 0 0-1.494 1.256c.522.62 1.135 1.053 1.786 1.272v1.139a.976.976 0 1 0 1.952 0v-1.144a2.934 2.934 0 0 0 1.953-2.761 2.932 2.932 0 0 0-2.929-2.929.977.977 0 0 1 0-1.953c.346 0 .711.177 1.056.51a.977.977 0 0 0 1.358-1.402c-.496-.48-.991-.751-1.438-.9V4.883a.976.976 0 1 0-1.952 0z"/>
    </g>
</svg>
