<svg xmlns="http://www.w3.org/2000/svg" width="53" height="50" viewBox="0 0 53 50">
    <g fill="none" fill-rule="nonzero">
        <path fill="#EFEDEE" d="M33.165.065h-21.14L8.181 9.29 0 12.09v33.268a4.577 4.577 0 0 0 4.577 4.577h28.588a4.577 4.577 0 0 0 4.577-4.577V4.642A4.577 4.577 0 0 0 33.165.065z"/>
        <path fill="#D4D2D3" d="M0 12.09h9.024a3.002 3.002 0 0 0 3.001-3.002V.065L0 12.09z"/>
        <path fill="#465059" d="M32.531 7.694H16.993a.788.788 0 1 1 0-1.576H32.53a.788.788 0 1 1 0 1.576z"/>
        <path fill="#D4D2D3" d="M37.742 13.67a15.893 15.893 0 0 0-6.6-1.422c-4.258 0-8.261 1.658-11.272 4.669-6.215 6.215-6.215 16.328 0 22.543a15.836 15.836 0 0 0 11.272 4.67c2.315 0 4.554-.492 6.6-1.424V13.671z"/>
        <g fill="#465059">
            <path d="M24.66 20.258H5.155a.788.788 0 1 1 0-1.577H24.66a.788.788 0 1 1 0 1.577zM24.66 25.788H5.155a.788.788 0 1 1 0-1.576H24.66a.788.788 0 1 1 0 1.576zM24.66 31.32H5.155a.788.788 0 1 1 0-1.577H24.66a.788.788 0 1 1 0 1.576zM24.66 36.85H5.155a.788.788 0 1 1 0-1.576H24.66a.788.788 0 1 1 0 1.576zM43.4 37.164c6.314 2.663 11.33 7.008 7.527 10.81-3.802 3.802-8.147-1.213-10.81-7.527l3.283-3.283z"/>
        </g>
        <ellipse cx="40.183" cy="37.231" fill="#BAB8B9" rx="2.802" ry="3.828" transform="rotate(-135 40.183 37.23)"/>
        <g fill="#3C474D">
            <path d="M24.66 18.68h-6.314a15.795 15.795 0 0 0-1.033 1.578h7.347a.788.788 0 0 0 0-1.577zM24.66 24.212h-8.95c-.134.52-.24 1.047-.32 1.576h9.27a.788.788 0 1 0 0-1.576zM24.66 29.743h-9.376c.051.528.13 1.054.233 1.576h9.143a.788.788 0 0 0 0-1.576zM24.66 35.274H16.86c.267.538.567 1.065.898 1.576h6.9a.788.788 0 1 0 0-1.576z"/>
        </g>
        <circle cx="31.142" cy="28.188" r="12.787" fill="#DA5B65"/>
        <circle cx="31.142" cy="28.188" r="8.848" fill="#51D7F7"/>
        <path fill="#49C3E0" d="M26.987 33.394a8.848 8.848 0 0 1 1.288-13.577 8.848 8.848 0 0 0 7.835 15.692 8.847 8.847 0 0 1-9.123-2.115z"/>
        <g fill="#3A484A">
            <path d="M27.772 32.643a.786.786 0 0 1-.557-.23l-.637-.637a.788.788 0 0 1 1.115-1.115l.637.636a.788.788 0 0 1-.558 1.346zM34.808 25.607a.786.786 0 0 1-.557-.23l-.637-.637a.788.788 0 0 1 1.115-1.115l.636.637a.788.788 0 0 1-.557 1.345zM30.48 29.953c-.052 0-.104-.002-.156-.006a.788.788 0 1 1 .106-1.573.837.837 0 0 0 .642-.255.836.836 0 0 0 .255-.642.788.788 0 1 1 1.574-.106 2.412 2.412 0 0 1-.714 1.863 2.42 2.42 0 0 1-1.707.719z"/>
        </g>
        <path fill="#465059" d="M32.531 45.55H21.217a.788.788 0 1 1 0-1.577h11.314a.788.788 0 1 1 0 1.577z"/>
    </g>
</svg>
