<svg xmlns="http://www.w3.org/2000/svg" width="13" height="12" viewBox="0 0 13 12">
    <path fill="#474747" fill-rule="nonzero" d="M0 1.394c0-.404.141-.737.424-1C.707.13 1.074 0 1.527 0c.445 0 .804.13 1.08.388.282.267.423.614.423 1.042 0 .388-.137.711-.412.97-.283.267-.654.4-1.115.4h-.012c-.445 0-.804-.133-1.079-.4A1.343 1.343 0 0 1 0 1.394zM.158 12V3.903h2.69V12H.158zm4.181 0H7.03V7.479c0-.283.033-.501.097-.655.113-.275.285-.507.515-.697.23-.19.52-.285.867-.285.905 0 1.358.61 1.358 1.83V12h2.69V7.358c0-1.196-.282-2.103-.848-2.722-.566-.618-1.313-.927-2.242-.927-1.043 0-1.855.449-2.437 1.346v.024h-.012l.012-.024V3.903H4.34c.016.259.024 1.063.024 2.412 0 1.35-.008 3.245-.025 5.685z"/>
</svg>
