<svg xmlns="http://www.w3.org/2000/svg" width="15" height="15" viewBox="0 0 15 15">
    <g fill="#27305A" fill-rule="evenodd">
        <path d="M1.059 6.712A6.21 6.21 0 0 1 5.021 1.95l-.096.168a.493.493 0 0 0 .176.668.476.476 0 0 0 .66-.179l.666-1.167A.495.495 0 0 0 6.25.77L5.097.096a.48.48 0 0 0-.66.18.493.493 0 0 0 .177.667l.12.07a7.188 7.188 0 0 0-4.626 5.53 7.27 7.27 0 0 0 .319 3.704.483.483 0 0 0 .619.292.49.49 0 0 0 .288-.627 6.278 6.278 0 0 1-.275-3.2zM12.466 11.72a.478.478 0 0 0-.68.06A6.105 6.105 0 0 1 6.028 13.9a6.1 6.1 0 0 1-2.824-1.316h.156a.486.486 0 0 0 .483-.49c0-.27-.216-.489-.483-.489H2.074a.477.477 0 0 0-.355.112.49.49 0 0 0-.17.326v.001a.486.486 0 0 0-.002.043v.007l-.001 1.348c0 .27.216.49.482.49a.486.486 0 0 0 .483-.49v-.17a7.064 7.064 0 0 0 3.35 1.592c.407.073.816.108 1.223.108a7.087 7.087 0 0 0 5.441-2.564.493.493 0 0 0-.059-.69zM14.875 9.227a.48.48 0 0 0-.66-.18l-.159.094c.007-.035.015-.07.02-.104a7.212 7.212 0 0 0-1.174-5.369A7.035 7.035 0 0 0 8.324.714a.483.483 0 0 0-.56.397c-.046.266.13.52.392.567a6.077 6.077 0 0 1 3.955 2.552 6.23 6.23 0 0 1 1.016 4.627l-.07-.124a.48.48 0 0 0-.66-.179.493.493 0 0 0-.177.668l.666 1.168a.484.484 0 0 0 .418.245.478.478 0 0 0 .241-.066l1.153-.674a.493.493 0 0 0 .177-.668z"/>
    </g>
</svg>
