<svg xmlns="http://www.w3.org/2000/svg" width="12" height="12" viewBox="0 0 12 12">
    <g fill="#1D425A" fill-rule="nonzero">
        <path d="M.33 10.08a1.123 1.123 0 1 0 1.589 1.588l3.689-3.69-1.59-1.588L.33 10.08zM9.55 3.242l1.606-.83.841-1.627-.784-.784-1.625.842-.833 1.605-1.954 1.957.793.794z"/>
        <path d="M9.901 7.507l-.15-.015c-.275 0-.535.056-.778.146L4.361 3.025c.09-.243.146-.503.146-.777l-.015-.151A2.24 2.24 0 0 0 2.26 0c-.346 0-.67.085-.963.225L2.79 1.719a.733.733 0 0 1 .168.27.748.748 0 0 1-.698 1.008.743.743 0 0 1-.26-.05.745.745 0 0 1-.27-.17L.239 1.285c-.14.293-.225.617-.225.963A2.24 2.24 0 0 0 2.11 4.48l.151.015c.274 0 .534-.056.777-.145l4.611 4.612a2.263 2.263 0 0 0-.144.777l.015.151a2.238 2.238 0 0 0 2.232 2.096 2.2 2.2 0 0 0 .963-.225l-1.493-1.493a.765.765 0 0 1-.17-.269.747.747 0 0 1 .7-1.01c.088 0 .175.02.26.052.099.036.192.089.27.168l1.492 1.493c.141-.294.225-.617.225-.963 0-1.19-.927-2.153-2.097-2.232z"/>
    </g>
</svg>
