<svg xmlns="http://www.w3.org/2000/svg" width="67" height="50" viewBox="0 0 67 50">
    <path fill="#1D425A" fill-rule="nonzero" d="M29.4 37.2c0 3.867-1.267 6.967-3.8 9.3-2.533 2.333-5.733 3.5-9.6 3.5-4.667 0-8.5-1.533-11.5-4.6-3-3.067-4.5-7.467-4.5-13.2 0-6.133 1.767-12.167 5.3-18.1C8.833 8.167 13.8 3.467 20.2 0l4.6 7c-3.467 2.4-6.233 5.067-8.3 8-2.067 2.933-3.433 6.333-4.1 10.2 1.2-.533 2.6-.8 4.2-.8 3.733 0 6.8 1.2 9.2 3.6 2.4 2.4 3.6 5.467 3.6 9.2zm36.8 0c0 3.867-1.267 6.967-3.8 9.3-2.533 2.333-5.733 3.5-9.6 3.5-4.667 0-8.5-1.533-11.5-4.6-3-3.067-4.5-7.467-4.5-13.2 0-6.133 1.767-12.167 5.3-18.1C45.633 8.167 50.6 3.467 57 0l4.6 7c-3.467 2.4-6.233 5.067-8.3 8-2.067 2.933-3.433 6.333-4.1 10.2 1.2-.533 2.6-.8 4.2-.8 3.733 0 6.8 1.2 9.2 3.6 2.4 2.4 3.6 5.467 3.6 9.2z" opacity=".1"/>
</svg>
