<svg xmlns="http://www.w3.org/2000/svg" width="66" height="50" viewBox="0 0 66 50">
    <path fill="#1D425A" fill-rule="nonzero" d="M36.689 12.8c0-3.867 1.263-6.967 3.788-9.3C43.003 1.167 46.193 0 50.048 0c4.653 0 8.475 1.533 11.466 4.6C64.504 7.667 66 12.067 66 17.8c0 6.133-1.761 12.167-5.284 18.1-3.523 5.933-8.474 10.633-14.855 14.1l-4.586-7c3.456-2.4 6.214-5.067 8.275-8 2.06-2.933 3.423-6.333 4.087-10.2-1.196.533-2.592.8-4.187.8-3.722 0-6.78-1.2-9.172-3.6-2.393-2.4-3.59-5.467-3.59-9.2zM0 12.8c0-3.867 1.263-6.967 3.789-9.3C6.314 1.167 9.505 0 13.359 0c4.653 0 8.475 1.533 11.466 4.6 2.99 3.067 4.486 7.467 4.486 13.2 0 6.133-1.761 12.167-5.284 18.1-3.522 5.933-8.474 10.633-14.855 14.1l-4.586-7c3.456-2.4 6.215-5.067 8.275-8 2.06-2.933 3.423-6.333 4.088-10.2-1.197.533-2.592.8-4.188.8-3.722 0-6.78-1.2-9.172-3.6C1.196 19.6 0 16.533 0 12.8z" opacity=".1"/>
</svg>
