<svg xmlns="http://www.w3.org/2000/svg" width="10" height="15" viewBox="0 0 10 15">
    <g fill="none" fill-rule="nonzero">
        <path fill="#FFA730" d="M2.516 6.506v8.305c0 .152.169.222.258.107l1.782-2.31a.137.137 0 0 1 .222 0l1.783 2.31c.089.115.258.045.258-.107V6.506H2.516z"/>
        <path fill="#E58D23" d="M3.804 6.506H2.516v8.305c0 .152.169.222.258.107l1.03-1.335V6.506z"/>
        <path fill="#FFB74B" d="M6.2 13.149a.193.193 0 0 1-.192-.194V10.76a.193.193 0 0 1 .386 0v2.196a.193.193 0 0 1-.193.194z"/>
        <circle cx="4.605" cy="10.266" r="1" fill="#E58D23"/>
        <path fill="#FF624B" d="M4.653 9.671a.323.323 0 0 1-.272-.154 1.955 1.955 0 0 0-1.683-.947c-.216 0-.429.035-.634.105a.322.322 0 0 1-.425-.312v-.022-.025c0-.87-.558-1.626-1.389-1.88a.32.32 0 0 1-.214-.219L.034 6.21a.323.323 0 0 1 .05-.282c.244-.323.38-.705.396-1.106A2.032 2.032 0 0 0 .1 3.579a.253.253 0 0 1-.034-.225l.01-.033.024-.07a.251.251 0 0 1 .178-.164l.037-.009A1.964 1.964 0 0 0 1.8 1.17v-.028L1.8 1.118a.32.32 0 0 1 .14-.275l.023-.015.01-.006a.32.32 0 0 1 .292-.024l.005.003A1.975 1.975 0 0 0 4.614.135.323.323 0 0 1 5.132.13a1.953 1.953 0 0 0 1.797.774c.091-.01.189-.028.298-.058a.293.293 0 0 1 .246.045L7.484.9l.032.024a.293.293 0 0 1 .12.245v.066c0 .865.578 1.64 1.407 1.886a.323.323 0 0 1 .172.494 1.954 1.954 0 0 0-.357 1.13c0 .422.133.825.383 1.164a.32.32 0 0 1 .05.285.32.32 0 0 1-.2.209 1.975 1.975 0 0 0-1.295 1.84.323.323 0 0 1-.425.304 1.965 1.965 0 0 0-2.376.95l-.002.002a.321.321 0 0 1-.282.173H4.653z"/>
        <path fill="#FF4B34" d="M5.338 8.57c-.216 0-.43.035-.634.105a.322.322 0 0 1-.426-.312V8.34l.001-.024c0-.87-.558-1.626-1.39-1.881a.32.32 0 0 1-.214-.218l-.002-.007a.323.323 0 0 1 .051-.283c.243-.322.38-.704.395-1.105a2.032 2.032 0 0 0-.38-1.243.253.253 0 0 1-.034-.225l.011-.033.024-.07a.251.251 0 0 1 .177-.164l.037-.009A1.964 1.964 0 0 0 4.44 1.17v-.028l-.001-.024a.32.32 0 0 1 .164-.29l.009-.006a.32.32 0 0 1 .293-.024l.005.003a1.955 1.955 0 0 0 1.328.06A1.953 1.953 0 0 1 5.132.13a.323.323 0 0 0-.518.004A1.975 1.975 0 0 1 2.27.801L2.265.798a.32.32 0 0 0-.293.024l-.009.006-.024.015a.32.32 0 0 0-.14.275l.001.024v.028c0 .904-.61 1.688-1.486 1.908l-.036.01A.251.251 0 0 0 .1 3.25l-.023.07-.011.033a.253.253 0 0 0 .033.225c.262.37.397.811.38 1.243a1.954 1.954 0 0 1-.394 1.105.323.323 0 0 0-.051.283l.002.007a.32.32 0 0 0 .214.218 1.957 1.957 0 0 1 1.39 1.881v.024l-.001.023a.324.324 0 0 0 .426.312c.204-.07.417-.105.633-.105.693 0 1.322.354 1.683.947a.323.323 0 0 0 .272.154H4.711a.321.321 0 0 0 .282-.173l.002-.003c.199-.378.507-.672.875-.853a1.989 1.989 0 0 0-.532-.072z"/>
        <circle cx="4.667" cy="4.834" r="3.389" fill="#FFC34C"/>
        <circle cx="4.667" cy="4.834" r="2.746" fill="#FCE575"/>
        <path fill="#FFC34C" d="M4.482 3.145l-.364.737a.258.258 0 0 1-.194.141l-.814.119a.206.206 0 0 0-.114.352l.589.574c.06.06.088.145.074.228l-.14.81a.206.206 0 0 0 .3.218l.728-.382a.258.258 0 0 1 .24 0l.728.382a.206.206 0 0 0 .3-.217l-.14-.81a.258.258 0 0 1 .075-.23l.589-.573a.206.206 0 0 0-.114-.352l-.814-.119a.258.258 0 0 1-.195-.14l-.364-.738a.206.206 0 0 0-.37 0z"/>
        <path fill="#FFF4C1" d="M5.585 7.178a.193.193 0 0 1-.073-.372c.008-.003.84-.35 1.064-1.04a.193.193 0 1 1 .367.12c-.28.863-1.245 1.261-1.286 1.278a.193.193 0 0 1-.072.014z"/>
        <path fill="#FFA730" d="M4.335 5.457a.258.258 0 0 0-.074-.228l-.59-.574a.206.206 0 0 1 .115-.352l.814-.119a.258.258 0 0 0 .194-.14l.251-.509-.192-.39a.206.206 0 0 0-.37 0l-.365.737a.258.258 0 0 1-.194.141l-.814.119a.206.206 0 0 0-.114.352l.589.574c.06.06.088.144.074.228l-.14.81a.206.206 0 0 0 .3.218l.403-.212.113-.655z"/>
        <path fill="#FFD551" d="M7.606 4.834c0 .15-.011.3-.034.444l.256.035a3.186 3.186 0 0 0-.92-2.757l-.103.264c.496.526.801 1.235.801 2.014z"/>
    </g>
</svg>
