<svg xmlns="http://www.w3.org/2000/svg" width="15" height="12" viewBox="0 0 15 12">
    <path fill="#474747" fill-rule="nonzero" d="M9.864.003V0h.692l.253.05c.169.033.322.076.46.13.137.053.27.115.399.186.128.071.245.143.35.217.104.073.197.15.28.232.08.082.208.104.381.064.173-.04.36-.096.56-.167.2-.07.397-.15.592-.24.195-.088.314-.145.357-.168l.066-.04.003-.004.013-.007.013-.007.014-.006.013-.007.003-.004.004-.003.004-.002.002-.004.014-.004.013-.003-.003.02-.004.02-.006.02-.007.02-.007.013-.006.013-.007.02a.463.463 0 0 0-.013.054c-.005.022-.047.11-.127.266a3.33 3.33 0 0 1-.3.472c-.12.16-.226.28-.321.363-.096.082-.16.14-.19.173a.571.571 0 0 1-.114.093l-.067.044-.013.006-.013.007-.003.004-.004.003-.004.002-.002.004-.014.007-.013.007-.003.004-.004.002-.004.003-.002.004-.003.004-.004.003-.004.002-.003.004h.067l.373-.08a6.67 6.67 0 0 0 .712-.193l.36-.12.04-.013.02-.006.012-.007.014-.007.013-.006.013-.007.027-.004.027-.003v.027l-.007.003-.007.004-.002.004-.004.002-.004.003-.003.004-.003.004-.004.003-.004.002-.002.004-.003.004-.004.003-.007.013-.006.014-.004.002a58.53 58.53 0 0 1-.17.226c-.11.15-.17.225-.18.227a3.815 3.815 0 0 1-.32.337 6.7 6.7 0 0 1-.507.461.63.63 0 0 0-.253.501c-.003.197-.013.42-.03.668a8.46 8.46 0 0 1-.1.806 9.601 9.601 0 0 1-.6 2.043c-.146.346-.299.657-.459.932a8.988 8.988 0 0 1-.845 1.238 7.944 7.944 0 0 1-.522.57l-.346.346c-.02.02-.107.092-.26.218a9.156 9.156 0 0 1-.493.38 5.697 5.697 0 0 1-.482.316c-.147.084-.323.18-.53.289-.206.11-.429.21-.668.303-.24.094-.493.18-.759.26a6.93 6.93 0 0 1-.772.186c-.249.045-.53.082-.845.114l-.473.046v.007H4.22v-.007l-.113-.007a6.069 6.069 0 0 1-.187-.013 22.224 22.224 0 0 1-.552-.073 7.973 7.973 0 0 1-.752-.133 9.979 9.979 0 0 1-.812-.253 7.9 7.9 0 0 1-.923-.377 36.858 36.858 0 0 1-.479-.24 3.402 3.402 0 0 1-.216-.122l-.12-.073-.002-.004-.004-.003-.004-.002-.003-.004-.013-.007-.013-.007-.003-.004-.004-.002-.004-.003-.003-.004-.002-.004-.004-.003H0v-.026l.013.002.014.004.06.007c.04.004.148.011.326.02a6.006 6.006 0 0 0 1.917-.22c.284-.075.544-.165.782-.269.237-.104.406-.182.506-.234.1-.05.251-.145.455-.282l.307-.206.002-.004.004-.003.004-.003.003-.004.002-.004.004-.002.004-.003.003-.004.013-.004.014-.003.002-.013.004-.013.004-.003.003-.004-.106-.007a2.001 2.001 0 0 1-.52-.073 3.002 3.002 0 0 1-.459-.16 3.54 3.54 0 0 1-.816-.496 5.84 5.84 0 0 1-.266-.272 2.693 2.693 0 0 1-.511-.793l-.11-.242-.007-.02-.007-.02-.004-.014-.003-.013.02.003.02.004.147.02c.097.013.25.018.459.013.208-.004.353-.013.433-.027.08-.013.128-.022.146-.026l.027-.007.033-.006.033-.007.003-.004.004-.003.004-.002.002-.004-.026-.007-.027-.007-.026-.006-.027-.007-.027-.007a2.446 2.446 0 0 1-.093-.026 5.105 5.105 0 0 1-.36-.147 2.748 2.748 0 0 1-.465-.246 3.217 3.217 0 0 1-.33-.262 3.767 3.767 0 0 1-.342-.37 2.663 2.663 0 0 1-.333-.526c-.098-.2-.171-.39-.22-.573a3.09 3.09 0 0 1-.096-.552l-.024-.28.014.003.013.004.013.007.014.006.013.007.013.007.207.093c.137.062.308.115.512.16.204.044.326.068.366.073l.06.007h.12l-.003-.004-.004-.003-.004-.003-.002-.004-.003-.004-.004-.002-.004-.003-.003-.004-.013-.007-.013-.006-.003-.004-.004-.003-.004-.003-.003-.004-.013-.006-.013-.007-.003-.004-.114-.085a1.746 1.746 0 0 1-.23-.217 7.831 7.831 0 0 1-.239-.28 2.159 2.159 0 0 1-.213-.313 3.792 3.792 0 0 1-.197-.423 3.005 3.005 0 0 1-.216-1.028c-.004-.168 0-.312.014-.432A3.164 3.164 0 0 1 .879.839L.992.586l.006-.02.007-.02.004-.003.003-.004.002-.004.004-.003.004.003.003.004.003.004.004.003.004.002.002.004.003.004.004.003.007.013.006.014.004.002.003.004.18.2c.12.133.261.282.426.446.164.164.255.25.272.256.018.007.04.027.067.06.027.034.115.112.266.236.151.125.349.269.593.433.244.164.514.326.812.486.297.16.616.304.958.433.342.128.581.213.719.252.137.04.373.091.705.154.333.062.584.102.753.12.168.017.284.027.346.03l.093.003-.003-.02-.004-.02-.026-.167a3.128 3.128 0 0 1-.027-.466 3.055 3.055 0 0 1 .186-1.065c.062-.173.123-.311.183-.416.06-.104.139-.222.237-.356A2.87 2.87 0 0 1 8.712.4c.2-.11.384-.195.553-.253.168-.057.31-.095.426-.113a1.48 1.48 0 0 0 .173-.03z"/>
</svg>
