<svg xmlns="http://www.w3.org/2000/svg" width="293" height="200" viewBox="0 0 293 200">
    <g fill="none" fill-rule="nonzero">
        <path fill="#3F3D56" d="M110.828 190.339c0 5.205-24.41 9.426-54.522 9.426s-54.523-4.221-54.523-9.426c0-1.302 1.524-2.54 4.28-3.667 8.026-3.284 26.505-5.617 48.225-5.752.67-.006 1.343-.008 2.018-.008 30.112 0 54.522 4.222 54.522 9.427z"/>
        <path fill="#000" d="M54.288 180.92a30.954 30.954 0 0 1-48.224 5.752c8.025-3.284 26.504-5.617 48.224-5.752z" opacity=".1"/>
        <ellipse cx="28.535" cy="160.02" fill="#3F3D56" rx="28.535" ry="30.573"/>
        <path fill="#3F3D56" d="M63.548 21.232c4.046 15.587 17.098 25.66 29.182 22.524"/>
        <path fill="#00C692" d="M92.73 43.756c-4.091-15.761 3.51-31.348 16.995-34.848M71.836 20.59c3.843 14.805 13.188 25.166 20.894 23.166"/>
        <path fill="#3F3D56" d="M92.73 43.756C87.502 23.616 95.884 4.046 111.47 0"/>
        <path fill="#A8A8A8" d="M88.182 45.149s3.076-.9 3.838-1.808c.761-.908 4.39-2.698 4.899-1.691.508 1.007 6.037 4.098 2.544 5.034-3.493.937-8.275 1.566-9.355 1.24-1.08-.326-1.926-2.775-1.926-2.775z"/>
        <path fill="#000" d="M99.429 46.297c-3.493.937-8.275 1.566-9.355 1.24-.823-.249-1.509-1.727-1.79-2.419-.064.02-.102.03-.102.03s.846 2.45 1.926 2.776c1.08.326 5.862-.303 9.355-1.24 1.008-.27 1.264-.72 1.106-1.247-.057.358-.39.659-1.14.86z" opacity=".2"/>
        <path fill="#F2F2F2" d="M87.389 32.122h205.35v118.981H87.389z"/>
        <path fill="#00C692" d="M92.229 68.237H204.84v58.981H92.229z" opacity=".3"/>
        <path fill="#3F3D56" d="M213.503 65.666h45.167v2.499h-45.167zM213.503 70.278h65.732v2.499h-65.732zM213.503 81.426h45.167v2.499h-45.167zM213.503 99.877h45.167v2.499h-45.167zM213.503 86.039h65.732v2.499h-65.732zM213.503 90.652h65.732v2.499h-65.732zM213.503 95.264h65.732v2.499h-65.732z"/>
        <path fill="#00C692" d="M213.503 111.025h23.641v6.535h-23.641z"/>
        <path fill="#A0616A" d="M80.124 103.927s4.244-12.024 7.309-8.252c3.065 3.772-4.715 10.138-4.715 10.138l-2.594-1.886z"/>
        <path fill="#575A89" d="M60.084 92.139l2.553.946s1.22 5.42.748 6.362c-.472.944-.707.236 0 2.122s2.829 6.838 3.065 7.545c.236.707 13.674-4.48 13.674-7.073 0 0 2.83 3.3 4.244 4.008 0 0-15.56 11.317-17.682 12.731-2.122 1.415-3.301.708-5.187-.943-1.886-1.65-9.903-15.325-9.903-15.325l8.488-10.373z"/>
        <path fill="#2F2E41" d="M66.921 175.836s-.235 2.593-.707 2.829c-.472.236-4.008 6.13 0 7.309 4.008 1.179 6.366.707 7.309 1.179.943.471 17.446 1.414 17.682-1.18.236-2.593-8.016-3.064-8.016-3.064s-7.544-4.951-8.723-7.545c-1.179-2.593-7.545.472-7.545.472zM19.06 180.551s-5.658 9.666-4.243 10.845c1.415 1.18 15.191 5.475 17.21 5.659 2.594.235 4.48-1.886 2.359-3.065-2.122-1.18-6.602-6.13-6.602-7.78v-4.244l-8.723-1.415z"/>
        <path fill="#2F2E41" d="M13.638 117.366s-4.951 6.13 2.83 16.032L29.433 149.9s-8.016 12.732-8.251 19.333c-.236 6.602-1.886 5.187-2.358 8.016-.472 2.83-2.593 1.415-.943 3.537s7.78 4.008 9.666 2.357c1.886-1.65 1.886-3.772 1.886-4.715 0-.943 3.301-6.366 3.537-8.016.236-1.65 8.96-15.089 8.96-15.089s2.828-8.016-.472-12.496c-3.301-4.48-5.482-10.832-5.482-10.832s9.725 11.776 16.563 14.605c0 0 2.593.471 2.121 1.65-.471 1.179 0 1.886.708 3.065.707 1.179 5.658 14.853 7.309 18.39 1.65 3.536.943 5.658 2.829 6.837 1.886 1.179 10.373.236 10.373-.943 0-1.179-1.178-4.244-1.886-5.894-.707-1.65-6.365-20.748-5.894-24.048.472-3.301-.236-7.78-3.772-9.667-3.537-1.886-21.455-17.21-22.398-17.21-.943 0-28.292-1.415-28.292-1.415z"/>
        <circle cx="61.027" cy="70.448" r="9.902" fill="#A0616A"/>
        <path fill="#A0616A" d="M53.011 71.391s-3.065 5.423-6.837 6.13c-3.772.708 9.902 11.553 9.902 11.553s3.3-10.374 6.13-10.845c2.83-.472-9.195-6.838-9.195-6.838z"/>
        <path fill="#575A89" d="M62.678 93.553c0 3.065-9.195 11.789-9.195 11.789l-8.724 7.308s-.235 2.594-1.179 2.83c-.943.235-2.121.235-1.178 1.65.943 1.415 3.3 4.48 1.178 4.951-.64.097-1.284.159-1.93.184-.566.033-1.231.064-1.979.092-1.744.061-3.927.101-6.292.085-.672-.003-1.356-.01-2.051-.024-8.915-.177-19.241-1.202-18.397-4.58 1.414-5.66.471-7.545 3.536-10.61 3.065-3.065 8.016-13.675 8.016-13.675s9.903-16.74 18.154-16.74l1.714-.45a3.925 3.925 0 0 1 4.284 1.646c1.655 2.52 4.265 6.307 5.79 7.528 2.358 1.886 2.726.533 2.726.533s5.527 4.418 5.527 7.483z"/>
        <path fill="#A0616A" d="M41.694 129.39s6.838 10.61 2.594 12.495c-4.244 1.887-6.602-11.08-6.602-11.08l4.008-1.415z"/>
        <path fill="#2F2E41" d="M54.554 69.33c.38-.048.5-.528.564-.905.342-2.023 1.85-3.94 3.875-4.267a5.487 5.487 0 0 1 2.308.186 8.76 8.76 0 0 1 2.963 1.458c.467.354.917.764 1.48.93.372.109 1.95.81 2.318.929.81.26 1.481 1.109 2.316.94.798-.16 1.102-1.124 1.23-1.928.292-1.833-.757-4.567-1.8-6.102-.79-1.165-2.13-1.836-3.47-2.272a24.93 24.93 0 0 0-4.811-.956c-2.203-.26-4.484-.398-6.595.283-2.11.68-4.033 2.346-4.427 4.529-.082.454-.097.92-.198 1.37-.245 1.1-.973 2.025-1.397 3.07a5.909 5.909 0 0 0 .18 4.79c.588 1.182 1.61 2.318 1.39 3.62l1.819-1.435c.542-.307.795-.952.607-1.546l-.264-2.278c-.049-.417-.09-.868.118-1.232.808-1.413 1.16.896 1.794.816z"/>
        <path fill="#000" d="M37.45 113.122l2.221 9.235c-2.24.08-5.203.122-8.343.061-.793-2.376-1.55-4.854-2.13-7.174-2.121-8.488 1.415-21.455 3.301-27.585 1.887-6.13 6.602-7.78 6.602-7.78s2.358.707 5.423 2.83c3.064 2.12-7.073 30.413-7.073 30.413z" opacity=".1"/>
        <path fill="#000" d="M39.337 112.65l2.313 9.615c-.566.033-1.231.064-1.979.092-1.744.061-3.927.101-6.292.085-.851-2.525-1.674-5.19-2.294-7.67-2.122-8.487 1.414-21.454 3.3-27.584 1.887-6.13 6.013.589 6.013.589s-1.65-4.008 1.414-1.886c3.065 2.122-2.475 26.76-2.475 26.76z" opacity=".1"/>
        <path fill="#575A89" d="M40.044 79.407s-4.715 1.65-6.602 7.78c-1.886 6.13-5.422 19.098-3.3 27.585 2.122 8.488 6.601 19.097 6.601 19.097s4.48-3.3 6.13-2.593l-4.48-18.626s10.139-28.292 7.074-30.413c-3.065-2.122-5.423-2.83-5.423-2.83z"/>
        <path fill="#3F3D56" d="M87.389 62.122H200v58.981H87.389z"/>
        <ellipse cx="145.789" cy="92.767" fill="#FFF" rx="12.743" ry="12.766"/>
        <path fill="#00C692" d="M145.79 77.825c-8.412 0-15.23 6.819-15.23 15.23 0 8.41 6.818 15.23 15.23 15.23 8.41 0 15.23-6.82 15.23-15.23-.025-8.401-6.83-15.205-15.23-15.23zm-3.127 23.35l-7.805-7.805 2.189-2.19 5.623 5.624 11.87-11.87 2.188 2.19-14.065 14.05z"/>
    </g>
</svg>
