<svg xmlns="http://www.w3.org/2000/svg" width="53" height="50" viewBox="0 0 53 50">
    <g fill="none" fill-rule="nonzero">
        <path fill="#49C3E0" d="M46.782 25.785L45.891 25l.891-.785c-.395-10.629-8.77-19.216-19.31-19.946l-1.456.661-1.455-.66a20.702 20.702 0 0 0-12.584 5.41l.01 1.116h-1.14v-.001a20.703 20.703 0 0 0-5.597 13.42l.693.81-.693.76c.395 10.629 8.771 19.217 19.311 19.946l1.455-.912 1.456.911a20.704 20.704 0 0 0 12.584-5.41v-1.298l1.13.182a20.703 20.703 0 0 0 5.596-13.419z"/>
        <g fill="#00A5C6">
            <path d="M26.241 4.828a20.68 20.68 0 0 1 2.383-.445 22.417 22.417 0 0 0-.534-.06l-.048-.006c-.19-.018-.379-.034-.57-.047l-1.23.558zM25.687 45.025a20.764 20.764 0 0 1-8.476-4.703c-4.457-4.083-6.947-10.072-6.726-16.107a20.697 20.697 0 0 1 5.597-13.42 20.865 20.865 0 0 1 9.872-5.893l-1.393-.633a20.739 20.739 0 0 0-9.841 3.287l-.038.024a20.895 20.895 0 0 0-2.705 2.1l.01 1.116-1.14-.001a20.702 20.702 0 0 0-5.597 13.42l.693.81-.693.76c.007.164.015.328.024.49.286 4.71 2.238 9.27 5.415 12.753a20.884 20.884 0 0 0 8.947 5.754c1.589.512 3.259.836 4.925.949l1.126-.706zM28.094 45.677c.18-.018.36-.038.538-.06a20.725 20.725 0 0 1-1.854-.32l.694.433c.187-.013.373-.028.559-.047l.063-.006z"/>
        </g>
        <path fill="#EFEDEE" d="M35.1 13.883a25.644 25.644 0 0 0 5.98-3 .782.782 0 0 0 .105-.087c-.362-.387-.739-.76-1.13-1.118a24.099 24.099 0 0 1-5.64 2.781l-.016-.03c-1.72-3.298-4.102-6.095-6.927-8.16a21.054 21.054 0 0 0-2.91 0c-2.826 2.065-5.207 4.862-6.928 8.16l-.016.03a24.096 24.096 0 0 1-5.641-2.781c-.39.358-.767.731-1.13 1.118.033.031.068.06.106.087a25.642 25.642 0 0 0 5.98 3c-1.42 3.198-2.21 6.726-2.31 10.332H5.25c-.01.26-.016.522-.016.785s.007.524.016.785h9.373a27.379 27.379 0 0 0 2.32 10.328 25.643 25.643 0 0 0-5.99 3.004.793.793 0 0 0-.105.087c.362.386.738.76 1.129 1.117a24.103 24.103 0 0 1 5.65-2.784c1.698 3.27 4.057 6.091 6.934 8.193a21.03 21.03 0 0 0 2.911 0c2.877-2.102 5.236-4.924 6.933-8.193a24.097 24.097 0 0 1 5.65 2.785c.392-.358.768-.732 1.13-1.118a.79.79 0 0 0-.106-.087 25.642 25.642 0 0 0-5.988-3.004 27.382 27.382 0 0 0 2.32-10.328h9.372c.01-.26.016-.522.016-.785s-.007-.525-.016-.785H37.41c-.101-3.606-.891-7.135-2.31-10.332zm-9.869 30.392c-2.49-1.881-4.55-4.354-6.074-7.202a26.163 26.163 0 0 1 6.074-.885v8.087zm0-9.658a27.69 27.69 0 0 0-6.78 1.02 25.787 25.787 0 0 1-2.257-9.852h9.037v8.832zm0-10.402h-9.037a25.787 25.787 0 0 1 2.256-9.853c2.172.613 4.447.957 6.781 1.02v8.833zm0-10.404a26.162 26.162 0 0 1-6.074-.884c1.523-2.849 3.583-5.321 6.074-7.202v8.086zm1.57-8.087c2.491 1.881 4.552 4.354 6.075 7.203a26.16 26.16 0 0 1-6.075.884V5.724zm0 38.551v-8.087c2.089.06 4.125.358 6.075.885-1.523 2.849-3.584 5.321-6.075 7.202zm6.782-8.637a27.687 27.687 0 0 0-6.782-1.02v-8.833h9.038a25.787 25.787 0 0 1-2.256 9.853zM26.8 24.215v-8.833a27.686 27.686 0 0 0 6.782-1.02 25.786 25.786 0 0 1 2.256 9.853h-9.037z"/>
        <path fill="#333E40" d="M22.392 41.107c0-5.82-4.893-10.554-10.908-10.554C5.47 30.553.576 35.287.576 41.107v3.9a2.485 2.485 0 0 0 2.486 2.485h16.845a2.485 2.485 0 0 0 2.485-2.486v-3.9z"/>
        <path fill="#283234" d="M3.717 45.006v-3.9c0-5.303 4.065-9.705 9.338-10.444a11.3 11.3 0 0 0-1.57-.11C5.47 30.553.575 35.288.575 41.107v3.9a2.485 2.485 0 0 0 2.486 2.485h3.14a2.485 2.485 0 0 1-2.485-2.485z"/>
        <circle cx="20.666" cy="41.107" r="2.302" fill="#E6B09C"/>
        <path fill="#C76D5F" d="M51.456 10.619c0-5.82-4.893-10.554-10.908-10.554-6.014 0-10.908 4.734-10.908 10.554h21.816z"/>
        <path fill="#AF4E42" d="M42.119.175a11.3 11.3 0 0 0-1.57-.11c-6.015 0-10.909 4.734-10.909 10.554h3.141c0-5.304 4.065-9.705 9.338-10.444z"/>
        <circle cx="49.73" cy="10.619" r="2.302" fill="#E6B09C"/>
        <path fill="#FFC4B0" d="M20.666 41.065c-.018-3.846-4.03-6.413-7.533-4.825-.265.12-.504.245-.714.363-.58.329-1.29.329-1.87 0a9.061 9.061 0 0 0-.714-.363c-3.503-1.588-7.515.979-7.533 4.825v.042c0 4.875 4.11 8.828 9.182 8.828 5.071 0 9.182-3.953 9.182-8.828v-.042z"/>
        <path fill="#E6B09C" d="M9.188 49.656c-2.923-2.282-4.792-5.765-4.792-9.668v-.059a7.402 7.402 0 0 1 .966-3.647 5.38 5.38 0 0 0-2.572 2.58 2.03 2.03 0 0 0-.488-.057 2.302 2.302 0 1 0 .31 4.581c.85 3.067 3.375 5.478 6.576 6.27z"/>
        <g fill="#3A484A">
            <path d="M7.014 42.266a.785.785 0 0 1-.785-.786v-.739a.785.785 0 1 1 1.57 0v.74a.785.785 0 0 1-.785.785zM16.123 42.266a.785.785 0 0 1-.785-.786v-.739a.785.785 0 1 1 1.57 0v.74a.785.785 0 0 1-.785.785zM11.484 42.812c-.71 0-1.376-.298-1.83-.816a.785.785 0 0 1 1.182-1.034c.156.178.392.28.648.28a.854.854 0 0 0 .648-.28.785.785 0 1 1 1.182 1.034 2.424 2.424 0 0 1-1.83.816z"/>
        </g>
        <path fill="#FFC4B0" d="M49.73 10.577c-.018-3.846-4.03-6.413-7.533-4.825-.264.12-.504.245-.714.364-.58.328-1.29.328-1.87 0a9.061 9.061 0 0 0-.714-.364c-3.502-1.588-7.514.979-7.533 4.825v.042c0 4.876 4.11 8.828 9.182 8.828 5.071 0 9.182-3.952 9.182-8.828v-.042z"/>
        <path fill="#E6B09C" d="M39.827 19.42c-3.769-1.758-6.367-5.472-6.367-9.77V9.6a6.441 6.441 0 0 1 1.382-3.983 5.394 5.394 0 0 0-2.987 2.753 2.302 2.302 0 1 0-.49 4.55c.11 0 .213-.008.312-.024.985 3.556 4.219 6.23 8.15 6.524z"/>
        <g fill="#3A484A">
            <path d="M36.12 11.778a.785.785 0 0 1-.786-.785v-.74a.785.785 0 1 1 1.57 0v.74a.785.785 0 0 1-.785.785zM45.227 11.778a.785.785 0 0 1-.785-.785v-.74a.785.785 0 1 1 1.57 0v.74a.785.785 0 0 1-.785.785zM40.548 12.324c-.71 0-1.376-.297-1.83-.816a.785.785 0 0 1 1.183-1.034c.155.178.391.28.647.28a.854.854 0 0 0 .648-.28.785.785 0 1 1 1.182 1.034 2.424 2.424 0 0 1-1.83.816z"/>
        </g>
        <g fill="#D4D2D3">
            <path d="M10.847 10.796c.033.031.067.06.106.087a25.44 25.44 0 0 0 3.44 1.962l.995-1.27a23.927 23.927 0 0 1-3.411-1.897c-.39.358-.767.731-1.13 1.118zM10.489 25.785l-.004-1.57H5.25c-.01.26-.016.522-.016.785s.007.524.016.785h5.239z"/>
        </g>
    </g>
</svg>
