<svg xmlns="http://www.w3.org/2000/svg" width="157" height="117" viewBox="0 0 157 117">
    <g fill="none" fill-rule="evenodd">
        <path fill="#F2F2F2" fill-rule="nonzero" d="M144.16 28.255C126.4 3.54 88.882-6.485 51.985 4.313 32.478 10.02 13.67 21.458 4.35 43.604c-16.662 39.59 18.321 52.233 41.197 56.263 11.061 1.948 21.48 5.221 31 9.678 17.127 8.017 47.443 15.121 70.304-18.275 16.57-24.206 9.14-46.553-2.69-63.015z"/>
        <path fill="#3F3D56" fill-rule="nonzero" d="M41.192 33.144A4.573 4.573 0 0 0 40.893 32a.518.518 0 0 0-.263-.324.543.543 0 0 0-.261-.003l-1.342.205a.514.514 0 0 0-.306.119c-.175.184-.003.48-.008.733-.006.285-.26.516-.534.593-.28.057-.57.053-.848-.01l-1.876-.292a3.093 3.093 0 0 0 1.419-.947c.247-.292.378-.838.021-.977a.876.876 0 0 0-.325-.026c-.85.007-1.52-.703-2.315-1.002a2.559 2.559 0 0 0-2.88.859l1 .048a.444.444 0 0 1 .266.07c.219.18-.054.526-.023.808.04.366.526.444.893.481.366.037.831.335.655.658-1.842.635-3.716-1.24-5.65-1.009-.49.059-.951.25-1.43.372-2.919.738-5.937-1.232-8.919-.815-.663.113-1.314.285-1.947.514-.406.133-.83.277-1.124.586-.295.309-.407.838-.128 1.16a6.533 6.533 0 0 1-2.29-.217c.41.228.663.661.66 1.13a13.585 13.585 0 0 0-3.48 1.062c.207.343.448.665.72.96l-1.522.977c.514.13.78.83.481 1.269.533-.237.864-.851 1.434-.975.374-.082.754.07 1.108.214.355.144.744.283 1.11.175.368-.107.638-.583.405-.886a18.98 18.98 0 0 1 4.822-.753.605.605 0 0 1 .365.069c.212.147.156.466.145.724-.012.259.19.599.42.482-.27.236-.039.68.222.927.26.248.575.59.415.912-.041.084-.112.152-.152.237-.118.25.07.542.291.709.222.166.493.282.647.513.154.23.084.634-.191.666l-.782-.994c-.268.278-.45.625-.529 1.002.83.678.954 2.058.26 2.874-.355.417-.86.67-1.3.996-.44.325-.848.788-.847 1.336.002.946-.076 1.825.279 2.702a41.622 41.622 0 0 0 2.26 4.714c.223.4.512.838.965.907a55.7 55.7 0 0 1-1.546-4.245c.299.001.643.025.818.267.145.2.114.472.159.715.057.235.153.46.283.664l2.733 4.868c.226.404.486.837.919 1 .277.105.597.085.852.236.2.118.334.327.538.438.575.314 1.376-.288 1.914.087.154.107.252.277.393.4.497.43 1.312.142 1.886.463.37.207.561.621.759.996.494.94 1.293 1.86 2.351 1.934.333.024.672-.04.997.035.325.074.645.357.593.686-.09.565.19 1.183.115 1.75-.137 1.031-1.6 1.485-1.726 2.518-.028.226.015.46-.038.681-.067.272-.27.493-.343.763-.137.51.23 1.02.632 1.364.402.344.882.64 1.102 1.122.233.509.118 1.102.194 1.656.165 1.21 1.21 2.108 2.286 2.686.328.177.68.347.892.653.277.4.25.925.342 1.402.226 1.168 1.21 2.13 1.237 3.32.02.845-.45 1.612-.73 2.41a5.62 5.62 0 0 0 .459 4.66c.21.355.46.69.61 1.074.264.685.178 1.465.423 2.159.323.917 1.21 1.674 1.126 2.643.403.837 1.293 1.248 2.188 1.497l1.604.447c.307.085.628.171.94.11.314-.063.612-.322.604-.641-.787-.177-1.598-.366-2.247-.845-.648-.48-1.093-1.333-.847-2.101.115-.356.357-.768.126-1.062-.132-.168-.373-.212-.522-.366-.233-.24-.153-.643.014-.932.167-.289.409-.547.476-.874a.912.912 0 0 0-.427-.95c.297-.112.568-.285.794-.509.208-.238.305-.606.14-.877.488.062 1.064.092 1.384-.28.256-.299.239-.744.137-1.124-.1-.38-.271-.748-.277-1.14 1.126.053 2.253.015 3.372-.115a2.186 2.186 0 0 0-1.025-1.283c.507-.086.968-.693 1.129-1.181.16-.489.119-1.02.02-1.525a.818.818 0 0 1-.015-.4c.057-.181.235-.292.4-.387l2.516-1.445c.15-.075.286-.176.403-.297.263-.31.224-.777.09-1.16-.136-.384-.352-.744-.404-1.148-.155-1.206 1.135-2.07 1.571-3.206.171-.445.206-.93.239-1.406.036-.511.038-1.105-.354-1.434-.377-.316-.965-.246-1.358-.54-.361-.269-.486-.792-.88-1.01-.358-.197-.808-.071-1.206-.164-.701-.164-1.143-.972-1.859-1.047-.404-.042-.861.155-1.193-.08-.292-.207-.303-.624-.359-.978a2.731 2.731 0 0 0-2.204-2.211c-.417-.067-.87-.042-1.225-.27-.359-.233-.523-.667-.805-.988-.455-.518-1.17-.701-1.84-.859l-2.728-.641c-.484-.114-1.108-.174-1.368.25a1.96 1.96 0 0 0-.162.509 1.576 1.576 0 0 1-1.482 1.115 1.753 1.753 0 0 0-1.033-.8c-.277-.077-.573-.085-.837-.198a1.175 1.175 0 0 1-.51-1.63 1.462 1.462 0 0 0-.25-1.759c-.463-.416-1.134-.517-1.756-.475-.163-.356.11-.756.403-1.015.294-.258.65-.512.714-.898.1-.606-.674-1.067-1.261-.886-.588.18-.963.752-1.211 1.314-.142.323-.263.663-.488.935-.224.273-.586.468-.927.38-.484-.123-.671-.698-.778-1.186-.144-.655-.289-1.318-.259-1.988.03-.67.256-1.357.75-1.81.804-.739 2.038-.666 3.124-.548-.256-.29-.193-.776.081-1.048.295-.262.699-.361 1.08-.266.328.068.622.245.837.5.309.377.396.885.63 1.311.233.427.757.792 1.186.563.371-.198.43-.712.338-1.122-.093-.41-.289-.809-.255-1.228.064-.799.892-1.28 1.623-1.61.731-.328 1.568-.771 1.684-1.564.004-.156.034-.31.087-.455a.892.892 0 0 1 .327-.308c2.134-1.41 4.303-2.838 6.742-3.608.127-.04.142.004.271-.027.181-.105.061-.394-.112-.51-.174-.117-.406-.206-.45-.41-.032-.151.056-.298.08-.45.056-.374-.39-.718-.737-.57-.196-.259.191-.56.505-.646a13.718 13.718 0 0 1 2.882-.471.52.52 0 0 1 .328.056c.163.113.142.373.026.535-.116.162-.296.264-.44.4-.323.314-.443.781-.313 1.211.509.26 1.062.526 1.626.434.563-.09 1.063-.724.799-1.23-.247-.47-.988-.577-1.116-1.093-.149-.604.707-1.142.514-1.733-.084-.26-.343-.412-.541-.6a1.625 1.625 0 0 1-.356-1.802 2.05 2.05 0 0 1-1.798-.563c-.43-.434-.773-1.119-1.384-1.1-.56.019-1.044.673-1.568.473-.129-.049-.265-.149-.39-.09a.322.322 0 0 0-.145.241c-.133.637.096 1.363-.251 1.913-.378.599-1.252.682-1.71 1.222-.248.293-.344.688-.573.997-.228.309-.713.505-.987.236a1.361 1.361 0 0 0-.37-1.655 3.632 3.632 0 0 0-.817-.397 4.844 4.844 0 0 1-.912-.509.899.899 0 0 1-.335-.358.817.817 0 0 1 .023-.567c.283-.812.993-1.401 1.844-1.529.365-.05.79-.032 1.031-.31.128-.147.195-.37.38-.43a.561.561 0 0 1 .352.044l1.363.48c.152.068.32.096.485.08a.33.33 0 0 0 .285-.346c-.044-.226-.392-.335-.36-.563a.376.376 0 0 1 .114-.192 4.871 4.871 0 0 1 3.863-1.526c.172.283-.1.617-.326.858-.226.242-.408.672-.135.858a.75.75 0 0 0 .363.082c.336.045.662.144.966.293.47.204.933.429 1.385.672-.04-.298-.078-.613.035-.892.113-.28.435-.498.716-.39.27.105.41.464.698.497.385.043.536-.525.376-.877-.161-.352-.48-.647-.506-1.034-.018-.26.082-.584-.127-.741a.567.567 0 0 0-.245-.087l-5.198-.956c-.309-.057-.755-.013-.768.3-.008.175.148.348.08.51-.075.171-.318.155-.494.216-.275.094-.413.42-.386.71.048.286.16.559.325.798-.338-.141-.85-.167-1.188-.309zM37.045 28.732a1.683 1.683 0 0 0-1.85.554c-.085.112-.157.268-.085.39.103.175.365.106.558.043.283-.101.592-.109.88-.021.181.062.343.172.525.232.18.075.388.045.54-.079.125-.127.133-.325.133-.504a.405.405 0 0 0-.104-.333.53.53 0 0 0-.238-.07.823.823 0 0 1-.482-.282M38.92 28.21a.428.428 0 0 0-.415.603c.226.062.46.077.692.045a.591.591 0 0 0 .484-.443 1.113 1.113 0 0 1-.788-.15M45.207 27.339a7.96 7.96 0 0 0-1.774.602c.548.21.893.754.852 1.34a.697.697 0 0 0 .008.33c.065.158.254.218.42.258.298.091.61.13.92.118a.938.938 0 0 0 .763-.466c.046-.128.099-.253.159-.375.398-.606 1.58.127 2.007-.459.15-.206.137-.517.333-.68a.748.748 0 0 1 .343-.131c.859-.17 1.727-.294 2.6-.37.413-.036.952-.185.955-.6a7.201 7.201 0 0 0-4.593.618c-.512.257-1.19.796-1.683.456-.185-.127-.176-.47-.43-.613-.26-.147-.604-.087-.88-.028z"/>
        <path fill="#3F3D56" fill-rule="nonzero" d="M50.301 28.291l.731.14a.947.947 0 0 0-.986 1.027c.685.229 1.431.006 2.153.037.72.03 1.56.545 1.437 1.257-.037.215-.162.43-.097.638.045.146.174.25.247.385.151.28.03.635-.161.89-.192.255-.449.458-.617.729-.418.674-.18 1.545.069 2.298.072.284.204.55.39.777.368.393.969.427 1.507.434.392.006.84-.013 1.088-.317.324-.396.098-1.014.31-1.48.194-.422.687-.603 1.133-.731.818-.236 1.651-.436 2.424-.791.96-.442 1.858-1.13 2.913-1.187.296-.016.6.019.884-.062.285-.081.556-.328.535-.623-.019-.253-.232-.439-.4-.629-.167-.19-.298-.483-.144-.685l2.766-.516c-.196-.535-.35-1.238.101-1.586.163-.126.38-.176.519-.327.236-.259.117-.704-.155-.924-.272-.22-.64-.271-.99-.3-1.212-.1-2.432-.034-3.647.032l-7.126.39c-.478.027-1.03-.013-1.468.15-.372.138-.636.392-1.06.48-.784.165-1.647.054-2.356.494zM63.399 34.07a.294.294 0 0 0-.213.048.269.269 0 0 0-.07.164c-.046.27.01.547.158.776a.76.76 0 0 0 .695.333c.33-.042.572-.322.875-.46.466-.21 2.447-.54 1.077-1.28-.472-.255-.777-.03-1.15.138a2.616 2.616 0 0 1-1.372.281zM75.401 27.873a.782.782 0 0 0-.38.331.334.334 0 0 0 .125.444c.06.022.123.032.187.03l.65.019c.277.008.622.067.696.334.055.197-.068.451.081.593.064.05.14.08.221.086.215.055.438.062.656.021.473-.127.225-.416.374-.673.228-.394.188-.155.59-.38.297-.167.68-.47.433-.894-.431-.739-2.997-.228-3.633.09zM88.243 27.502l-.378.05c-.852.114-1.708.229-2.529.485.355.14.728.231 1.108.271.209.01.417.04.62.089.363.107.728.386 1.078.243.217-.088.288-.314.468-.434.124-.083.595-.217.648-.3.425-.675-.688-.448-1.015-.404zM89.902 29.219a7.085 7.085 0 0 0-1.394 1.02c-.178.168-.359.375-.343.618.022.324.366.51.664.637l1.208.512c.146-.207.012-.492-.14-.695-.15-.203-.33-.438-.264-.682.077-.279.416-.374.701-.422.464-.078 1.717-.072 1.566-.82-.177-.881-1.532-.429-1.998-.168zM89.66 79.108c-.116.333-.127.725.072 1.016.223.326.67.448 1.056.365.385-.102.728-.323.981-.63.231-.258.422-.55.564-.866.2-.491.34-1.005.418-1.53l.375-1.968c.084-.44.08-1.79-.728-1.35-.221.12-.733 1.068-.964 1.337-.417.485-.473.955-.692 1.542-.275.735-.828 1.348-1.083 2.084zM132.374 89.184a5.896 5.896 0 0 1-.768-.366 6.478 6.478 0 0 0-.39 2.123l1.811-1.025c.272-.154.581-.368.575-.681a.216.216 0 0 0-.1-.196.244.244 0 0 0-.127-.015c-.268.023-.513.155-.766.247-.254.091-.55.14-.782.004M141.927 89.792a3.92 3.92 0 0 0-.581.208c-.416.212-.698.613-1.072.892-.358.266-.789.413-1.212.555-.124.11-.067.331.068.428a.84.84 0 0 0 .478.107c.44.01.903.014 1.287-.198.217-.14.42-.302.606-.48.45-.376.99-.624 1.525-.863a1.75 1.75 0 0 0 .532-.318c.336-.331.36-.842-.125-.955-.391-.09-1.133.503-1.506.624zM146.147 87.035a1.51 1.51 0 0 0-.462-1.238c-.005.456-.019.942-.275 1.319-.183.268-.469.45-.67.705-.2.256-.288.662-.053.886a.88.88 0 0 0 .521.18c.467.055 1.008.086 1.336-.252.179-.184.266-.457.484-.593a.589.589 0 0 0 .212-.152c.09-.143-.053-.332-.214-.383-.16-.052-.338-.028-.5-.077-.162-.049-.31-.23-.228-.378M138.646 70.321a2.1 2.1 0 0 1-.75.045c-.416-.077-.74-.39-1.075-.647a4.745 4.745 0 0 0-2.773-.97c-.912-.016-1.833.231-2.73.058.059.326.337.57.635.716.297.145.625.218.924.36.479.23.858.625 1.07 1.113.096.224.156.469.302.665.298.4.863.489 1.361.456.65-.043 1.329-.23 1.934.012.462.186.793.59 1.18.905.386.315.93.549 1.373.322a2.27 2.27 0 0 1-1.571-2.185c.435.04 1.688.024 1.62-.715-.057-.626-1.127-.202-1.5-.135zM132.956 75.417c.077-.423.5-.797.368-1.207-.09-.284-.42-.424-.717-.43-.298-.008-.59.081-.888.09a4.326 4.326 0 0 0-.581.008c-.591.097-.955.716-1.512.936-.339.134-.719.109-1.071.201-.8.21-1.305.965-1.864 1.574a6.651 6.651 0 0 1-3.376 1.97c-.454.104-.943.172-1.304.467-.478.39-.596 1.06-.702 1.67a27.574 27.574 0 0 1-1.343 4.927l1.898.242c.361.046.735.091 1.083-.016.252-.095.491-.222.712-.379a7.107 7.107 0 0 1 2.776-1.002c.497-.068 1.018-.08 1.485.104.466.185.866.603.905 1.104a1.166 1.166 0 0 1 1.166.283c.297.303.492.691.556 1.11.05.26.1.571.341.68.197.09.422-.007.637-.024.73-.058 1.335.793 2.052.646.77-.157.958-1.309 1.709-1.54.43-.132 1.035.029 1.242-.372.182-.353-.181-.761-.144-1.157.046-.487.62-.694 1.064-.901 1.527-.717 2.252-2.773 1.512-4.289-.439-.898-1.302-1.605-1.46-2.592-.123-.76.176-1.644-.308-2.242-.246-.304-.663-.472-.81-.835-.092-.228-.055-.487-.105-.728-.05-.241-.26-.494-.498-.431-.691.181-.912 2.317-1.282 2.836-.563.789-1.718.27-1.54-.703zM120.176 71.128c-.236-.066-.494-.131-.72-.036-.227.094-.36.427-.177.592 1.421-.056 2.851-.11 4.26.082 1.625.223 3.232.774 4.863.612a24.744 24.744 0 0 0-2.837-.659l-1.596-.305c-.429-.09-.861-.156-1.297-.2-.91-.075-1.6.166-2.496-.086zM121.6 66.178c-.119-.01-.265-.019-.326.083-.058.097.008.225-.023.334-.043.148-.237.186-.39.166-.154-.02-.32-.069-.455.005a.385.385 0 0 0-.15.438c.056.157.146.3.264.419.2.253.43.482.682.684.488.36 1.15.534 1.458 1.058.043.101.11.191.194.262.148.093.34.022.5-.05l.557-.255c.1-.036.19-.097.261-.177.127-.173.05-.419-.058-.605-.107-.186-.244-.379-.22-.592.04-.381.53-.527.73-.852.204-.328.072-.751.095-1.137.027-.45.31-1.036-.145-1.372-.387-.286-.757-.022-1.035.294-.586.666-.863 1.387-1.94 1.297zM124.983 59.448c.19.364.587.582.795.937.225.384.2.881.443 1.254.25.383.755.586.895 1.021.153.475-.194 1.052.083 1.468a.616.616 0 0 0 .904.083.663.663 0 0 0-.028-.925c-.164-.15-.4-.215-.537-.39a.817.817 0 0 1-.139-.338 2.217 2.217 0 0 1 .035-1.063.473.473 0 0 0 .027-.277c-.062-.18-.305-.193-.475-.276-.388-.189-.378-.735-.31-1.16-.046.283-1.055-.2-1.16-.36-.21-.318-.096-.933-.137-1.286-.454.219-.628.866-.396 1.312zM114.818 65.055c-.186-.208-.467-.427-.717-.3-.19.095-.243.359-.168.559.091.194.231.36.406.484.52.429 1.081.816 1.535 1.315.812.893 1.243 2.098 2.126 2.92.178.19.413.318.67.362.257.024.546-.14.576-.397.024-.212-.123-.401-.268-.558-.343-.373-.718-.717-1.042-1.107a.93.93 0 0 1-.267-.557c-.002-.21.19-.43.393-.378-.247-.063-.43-.475-.794-.553-.303-.064-.377.124-.738-.031-.69-.296-1.23-1.219-1.712-1.759zM131.007 44.754a5.705 5.705 0 0 1-.582-.208c-.511-.153-1.188.223-1.12.752.045.352.373.59.554.895.268.453.197 1.027.056 1.534a1.2 1.2 0 0 1-.194.437c-.13.138-.286.25-.458.33-.691.387-1.3.904-1.794 1.523a.44.44 0 0 0-.109.205c-.024.179.156.309.257.458.226.331.063.777.085 1.178a.333.333 0 0 0 .14.292c.136.069.298-.049.372-.182.244-.444.06-1.156.52-1.37.086-.04.191-.057.25-.133.091-.121.002-.3.05-.445.069-.217.366-.227.594-.217.393.016.786-.036 1.16-.155a.772.772 0 0 0 .385-.222c.137-.172.125-.415.097-.633a8.577 8.577 0 0 0-1.013-3.092c.403.051.842.096 1.19-.114.195-.118.429-.47.332-.71-.153-.378-.429-.06-.772-.123zM79.293 50.726c.048.26.096.532.01.781-.084.25-.35.458-.603.382-.196-.06-.309-.256-.447-.406-.773-.834-2.516-.352-2.993-1.383-.195-.421-.062-.926-.195-1.37a1.22 1.22 0 0 0-1.235-.84 2.537 2.537 0 0 0-.71.213c-1.51.604-3.093 1-4.709 1.178-.307.018-.61.074-.904.164-.664.24-1.117.856-1.44 1.483-.322.628-.56 1.307-.993 1.865-.454.586-1.091.996-1.685 1.44a1.72 1.72 0 0 0-.556.583c-.129.264-.122.571-.112.865l.122 3.57c.015.46.035.935.24 1.346.257.513.764.85 1.116 1.303.359.466.546 1.041.53 1.629-.008.236-.032.516.152.664.112.073.243.11.377.109l4.829.395c.85.07 1.79.184 2.345.83.262.306.472.746.873.778.172.014.34-.056.512-.07.434-.034.815.295 1.056.658.364.553.529 1.213.468 1.873-.04.413-.168.816-.195 1.23-.105 1.579 1.233 2.95 1.259 4.532.015.93-.427 1.8-.857 2.624.694 1.053.125 2.455.402 3.686.263 1.167 1.236 2.081 1.479 3.253.11.537.117 1.197.59 1.473.208.101.438.148.669.134a8.81 8.81 0 0 0 4.011-.913c.585-.29 1.192-.724 1.294-1.369.082-.52-.182-1.102.087-1.555.316-.534 1.127-.492 1.592-.902.755-.666.167-1.937.473-2.896.275-.862 1.221-1.32 1.69-2.094.185-.333.318-.692.394-1.066.215-.891.349-1.8.4-2.716.012-.556.053-1.112.122-1.664.506-3.144 3.614-5.249 4.623-8.269.097-.288.142-.672-.115-.836a.735.735 0 0 0-.488-.05l-2.226.28c-.277.035-.57.067-.824-.047-.254-.115-.436-.436-.301-.68.378-.685-.4-1.55-.745-2.253a33.234 33.234 0 0 0-3.31-5.367.546.546 0 0 1-.145-.315l.632.021c-.213-.765-.565-1.603-1.309-1.883-.419-.157-.883-.103-1.33-.078-1.28.07-2.653-.124-3.92-.32z"/>
        <path fill="#3F3D56" fill-rule="nonzero" d="M83.214 33.48c.335.356.71.733 1.195.795.857.11 1.472-.775 1.864-1.545.03.408.38.718.788.699.211-.036.413-.115.592-.232a11.672 11.672 0 0 1 5.53-1.43.597.597 0 0 1 .456-.656c.393-.078.747.262.937.615.19.353.308.762.609 1.027.301.264.884.252 1.003-.13.115-.368-.268-.681-.586-.898-.318-.216-.653-.617-.439-.937 1.624-.36 3.259-.72 4.92-.792.284.01.566-.038.83-.142.253-.125.454-.407.386-.68a1.876 1.876 0 0 1-1.958-.74c2.307-.19 4.76-.352 6.804.733.245.527-1.005.965-.67 1.44.106.151.32.17.505.173 1.42.026 2.849.052 4.253-.163.513-.078 1.031-.189 1.547-.125.858.106 1.592.678 2.436.865.344.076.729.079 1.019-.121.29-.2.414-.655.176-.915.795-.78 2.115-.586 3.163-.213 1.05.373 2.043.974 3.153 1.058.795.06 1.602-.155 2.389-.019.494.086.954.306 1.437.44.914.256 1.88.202 2.829.214 2.42.033 4.814.509 7.062 1.404a2.1 2.1 0 0 1 .786.464c.209.224.316.572.175.844l-2.324-.34c.22.432.785.505 1.245.654.46.149.937.657.661 1.053-.498-.158-.95.34-1.202.798-.252.459-.558 1.008-1.08 1.036-.468.025-1.034-.373-1.339-.018a9.127 9.127 0 0 1 1.075 1.72c.302.627.516 1.418.109 1.982a.514.514 0 0 1-.275.213c-.332.084-.548-.322-.787-.569-.3-.31-.755-.399-1.161-.544-.407-.146-.836-.433-.868-.864-.02-.268.122-.517.226-.765.176-.418.252-.87.224-1.322-.022-.364-.124-.742-.386-.997-.261-.254-.712-.334-.992-.102-.131.109-.236.283-.406.29-.3.01-.531-.513-.773-.334a.82.82 0 0 1-.111.549c-.721.627-1.828.362-2.758.583a5.176 5.176 0 0 0-1.258.55.81.81 0 0 0-.36.301c-.116.226.012.515.217.665.217.133.46.216.713.243 1.133.215 2.283.547 3.177 1.275.895.727 1.481 1.93 1.198 3.048l-2.234-2.135c.085.897.133 1.796.144 2.697.015.176-.01.353-.07.519-.16.352-.591.47-.97.548a.76.76 0 0 0-.583.972c.135.439.47.78.777 1.12.307.34.609.728.649 1.184.04.457-.304.971-.762.94-.346-.025-.603-.335-.751-.65-.148-.314-.236-.664-.458-.93-.672-.81-2.182-.463-2.785-1.325a1.362 1.362 0 0 0-.281 1.296c.28-.175.664-.012.874.243.21.254.31.581.475.867.223.387.578.73.61 1.174-.009.168-.006.337.008.505.055.27.283.463.441.688.368.525.35 1.245.113 1.84s-.663 1.092-1.085 1.574c-.736.842-1.488 1.679-2.36 2.378-.25.2-.516.396-.671.674-.155.28-.163.67.075.883-.17.009-.476.092-.647.101a15.047 15.047 0 0 1-.039-2.058c-.673-.324-1.398.542-1.311 1.284.087.742.623 1.337 1.005 1.979.28.47.487 1.016.394 1.555-.093.538-.574 1.034-1.118.987-.865-.076-1.227-1.318-2.084-1.46a.35.35 0 0 0-.226.022c-.127.07-.15.24-.157.385-.035.711-.065 1.451.213 2.107.406.96 1.456 1.765 1.235 2.784-1.186-.551-1.802-1.881-2.082-3.159-.28-1.278-.327-2.619-.829-3.827-.38.489-1.182.085-1.53-.427-.33-.486-.533-1.048-.854-1.54-.32-.493-.81-.934-1.397-.96-.615-.03-1.149.393-1.618.792-.386.328-.782.669-1.008 1.122-.328.66-.242 1.438-.258 2.174-.017.797-.186 1.637-.728 2.22-.543.583-1.545.786-2.144.26-.312-.273-.464-.683-.599-1.077a52.756 52.756 0 0 1-1.62-5.786c-.101.446-.494 1.023-.869.76a.777.777 0 0 1-.2-.258c-.699-1.186-1.994-1.897-3.302-2.323-1.309-.426-2.686-.625-3.98-1.093a10.08 10.08 0 0 1-2.064-1.029 1.623 1.623 0 0 0-.099 1.661c.287.508.937.802 1.493.625.287-.092.53-.292.815-.39.285-.099.667-.05.792.224.12.263-.061.581.028.856.137.418.767.45.988.83.164.284.029.66-.205.888-.235.228-.547.354-.833.513-.928.516-1.588 1.396-2.398 2.082-.811.685-1.955 1.185-2.922.746.23-1.167-1.159-2.023-1.414-3.184-.084-.382-.04-.788-.16-1.16-.175-.54-.653-.91-1.046-1.32a5.175 5.175 0 0 1-1.419-3.764c.021-.48.11-.968 0-1.436-.11-.467-.497-.92-.976-.899-1.096.048-2.477.13-3.052-.804-.205-.334-.295-.822.002-1.078.21-.18.518-.163.793-.136l2.47.243c.577.057 1.202.104 1.697-.198.496-.302.71-1.104.252-1.459-.336-.26-.936-.245-1.034-.658-.081-.344.3-.734.094-1.021-.147-.206-.479-.149-.68.006-.2.154-.346.38-.57.497-.394.205-.865.01-1.29-.123-.423-.133-.992-.144-1.197.25-.23.44.204 1.017-.024 1.458-.302.584-1.324.252-1.748.754-.486.575.331 1.434.167 2.17a1.35 1.35 0 0 1-1.33-.075 1.293 1.293 0 0 1-.56-1.204c.041-.33.214-.668.098-.981-.093-.253-.347-.404-.583-.534l-2.4-1.326c-.223.413.059.926.411 1.236.352.31.794.544 1.025.953a1.25 1.25 0 0 1-.47 1.649.289.289 0 0 1-.238.041.332.332 0 0 1-.155-.207c-.423-1.084-1.059-2.152-2.075-2.718-1.016-.566-2.477-.45-3.143.504-.159.226-.265.484-.403.724-.732 1.272-2.303 1.874-3.77 1.835a.749.749 0 0 1-.412-.097c-.237-.164-.227-.511-.19-.797l.154-1.214c.03-.243.076-.513.268-.665.272-.214.664-.079 1.01-.084a1.28 1.28 0 0 0 1.163-.897 1.443 1.443 0 0 0-.402-1.434c-.159-.15-.372-.337-.288-.538a.444.444 0 0 1 .312-.21c.622-.18 1.279-.227 1.89-.44.612-.213 1.205-.65 1.35-1.28.044-.194.064-.428.238-.524a.715.715 0 0 1 .275-.057 1.34 1.34 0 0 0 1.15-1.397c.293-.205.704-.054.987.164.284.218.534.506.879.6.643.174 1.264-.395 1.93-.397.28-.002.57.097.834.002.268-.096.427-.362.632-.558.205-.197.565-.317.755-.105l-.162-1.195c.657.166 1.354.04 1.911-.345l-2.084-.704a.453.453 0 0 1-.195-.105c-.151-.163 0-.417.122-.603.295-.443.345-1.174-.14-1.395-.33-.15-.71.03-1.028.207l-1.521.848c-.049.29.305.454.524.648a.88.88 0 0 1-.573 1.537c.202.263.274.605.195.928l-1.023.074a.443.443 0 0 1-.332-.065c-.11-.097-.095-.267-.12-.412-.062-.348-.402-.592-.75-.654-.348-.063-.704.018-1.048.097a.625.625 0 0 1-.45-.01.45.45 0 0 1-.179-.226c-.15-.366-.01-.796.233-1.11.242-.312.574-.541.872-.802a5.086 5.086 0 0 0 1.513-2.345c.563-.236 1.147-.557 1.71-.793a5.233 5.233 0 0 1 2.813-.545l1.908.036c.565.01 1.145.025 1.668.24.522.215.981.681 1.017 1.245a.382.382 0 0 1-.122.35.45.45 0 0 1-.241.054c-.527.019-.752.15-1.279.168zM68.005 39.46a.558.558 0 0 0 .152-.56 1.044 1.044 0 0 0-1.082.203c-.113.115-.21.244-.29.383-.25.41-.472.898-.327 1.355.024.101.088.188.177.241a.463.463 0 0 0 .205.033c.276 0 .552-.018.826-.051.169-.02.364-.068.43-.225.085-.206-.122-.44-.062-.654.04-.096.1-.182.177-.252a.334.334 0 0 0 .104-.28c-.025-.101-.179-.158-.235-.07"/>
        <path fill="#3F3D56" fill-rule="nonzero" d="M69.437 37.604a2.312 2.312 0 0 0-.749-.047.327.327 0 0 0-.16.036.266.266 0 0 0-.098.142c-.11.352.07.73.412.867.09.02.176.056.256.103.211.164.076.5.116.765.045.298.334.548.28.844-.04.233-.29.418-.25.652.042.245.353.318.6.338a.755.755 0 0 0 .425-.049.659.659 0 0 0 .269-.388 2.49 2.49 0 0 0 .125-.938.89.89 0 0 0-.105-.414 2.311 2.311 0 0 0-.248-.283c-.474-.552.025-1.375-.873-1.628z"/>
        <path stroke="#00C692" stroke-width="2" d="M131.82 80.831S95.484 59.975 79.842 63.927c0 0-33.15 3.567-36.993 11.416 0 0-10.538-32.931-14.38-34.03" opacity=".8"/>
        <path stroke="#00C692" stroke-width="2" d="M42.85 75.343c6.093-16.246 60.978-34.249 60.978-34.249-7.794 1.976-23.985 22.833-23.985 22.833S45.595 39.009 28.47 41.314c0 0 75.413 2.47 103.35 39.517" opacity=".8"/>
        <circle cx="28.47" cy="41.314" r="1.592" fill="#00C692" fill-rule="nonzero"/>
        <circle cx="42.85" cy="75.343" r="1.592" fill="#00C692" fill-rule="nonzero"/>
        <circle cx="103.828" cy="41.094" r="1.592" fill="#00C692" fill-rule="nonzero"/>
        <circle cx="131.819" cy="80.831" r="1.592" fill="#00C692" fill-rule="nonzero"/>
        <circle cx="79.843" cy="63.927" r="1.592" fill="#00C692" fill-rule="nonzero"/>
    </g>
</svg>
