<svg xmlns="http://www.w3.org/2000/svg" width="151" height="113" viewBox="0 0 151 113">
    <defs>
        <linearGradient id="a" x1="50.016%" x2="50.016%" y1="99.982%" y2=".001%">
            <stop offset="0%" stop-color="gray" stop-opacity=".25"/>
            <stop offset="54%" stop-color="gray" stop-opacity=".12"/>
            <stop offset="100%" stop-color="gray" stop-opacity=".1"/>
        </linearGradient>
        <linearGradient id="b" x1="50.028%" x2="50.028%" y1="99.976%" y2="-.106%">
            <stop offset="0%" stop-color="gray" stop-opacity=".25"/>
            <stop offset="54%" stop-color="gray" stop-opacity=".12"/>
            <stop offset="100%" stop-color="gray" stop-opacity=".1"/>
        </linearGradient>
        <linearGradient id="c" x1="49.927%" x2="49.927%" y1="99.961%" y2="-.078%">
            <stop offset="0%" stop-color="gray" stop-opacity=".25"/>
            <stop offset="54%" stop-color="gray" stop-opacity=".12"/>
            <stop offset="100%" stop-color="gray" stop-opacity=".1"/>
        </linearGradient>
        <linearGradient id="d" x1="50%" x2="50%" y1="99.99%" y2="0%">
            <stop offset="0%" stop-color="gray" stop-opacity=".25"/>
            <stop offset="54%" stop-color="gray" stop-opacity=".12"/>
            <stop offset="100%" stop-color="gray" stop-opacity=".1"/>
        </linearGradient>
        <linearGradient id="e" x1="49.97%" x2="49.97%" y1="100.035%" y2="0%">
            <stop offset="0%" stop-color="gray" stop-opacity=".25"/>
            <stop offset="54%" stop-color="gray" stop-opacity=".12"/>
            <stop offset="100%" stop-color="gray" stop-opacity=".1"/>
        </linearGradient>
        <linearGradient id="f" x1="50.021%" x2="50.021%" y1="99.979%" y2="-.046%">
            <stop offset="0%" stop-color="gray" stop-opacity=".25"/>
            <stop offset="54%" stop-color="gray" stop-opacity=".12"/>
            <stop offset="100%" stop-color="gray" stop-opacity=".1"/>
        </linearGradient>
        <linearGradient id="g" x1="50.024%" x2="50.024%" y1="78.348%" y2="21.348%">
            <stop offset="0%" stop-color="gray" stop-opacity=".25"/>
            <stop offset="54%" stop-color="gray" stop-opacity=".12"/>
            <stop offset="100%" stop-color="gray" stop-opacity=".1"/>
        </linearGradient>
        <linearGradient id="h" x1="50.001%" x2="50.001%" y1="99.927%" y2=".101%">
            <stop offset="0%" stop-color="gray" stop-opacity=".25"/>
            <stop offset="54%" stop-color="gray" stop-opacity=".12"/>
            <stop offset="100%" stop-color="gray" stop-opacity=".1"/>
        </linearGradient>
        <linearGradient id="i" x1="49.988%" x2="49.988%" y1="99.782%" y2="0%">
            <stop offset="0%" stop-color="gray" stop-opacity=".25"/>
            <stop offset="54%" stop-color="gray" stop-opacity=".12"/>
            <stop offset="100%" stop-color="gray" stop-opacity=".1"/>
        </linearGradient>
        <linearGradient id="j" x1="50.032%" x2="50.032%" y1="100%" y2=".02%">
            <stop offset="0%" stop-color="gray" stop-opacity=".25"/>
            <stop offset="54%" stop-color="gray" stop-opacity=".12"/>
            <stop offset="100%" stop-color="gray" stop-opacity=".1"/>
        </linearGradient>
        <linearGradient id="k" x1="50%" x2="50%" y1="100%" y2="0%">
            <stop offset="0%" stop-color="gray" stop-opacity=".25"/>
            <stop offset="54%" stop-color="gray" stop-opacity=".12"/>
            <stop offset="100%" stop-color="gray" stop-opacity=".1"/>
        </linearGradient>
        <linearGradient id="l" x1="50.004%" x2="50.004%" y1="100%" y2="-.007%">
            <stop offset="0%" stop-color="gray" stop-opacity=".25"/>
            <stop offset="54%" stop-color="gray" stop-opacity=".12"/>
            <stop offset="100%" stop-color="gray" stop-opacity=".1"/>
        </linearGradient>
        <linearGradient id="m" x1="49.994%" x2="49.994%" y1="99.899%" y2="-.124%">
            <stop offset="0%" stop-color="gray" stop-opacity=".25"/>
            <stop offset="54%" stop-color="gray" stop-opacity=".12"/>
            <stop offset="100%" stop-color="gray" stop-opacity=".1"/>
        </linearGradient>
        <linearGradient id="n" x1="49.975%" x2="49.975%" y1="99.987%" y2="-.029%">
            <stop offset="0%" stop-color="gray" stop-opacity=".25"/>
            <stop offset="54%" stop-color="gray" stop-opacity=".12"/>
            <stop offset="100%" stop-color="gray" stop-opacity=".1"/>
        </linearGradient>
        <linearGradient id="o" x1="50.04%" x2="50.04%" y1="99.997%" y2="-.18%">
            <stop offset="0%" stop-color="gray" stop-opacity=".25"/>
            <stop offset="54%" stop-color="gray" stop-opacity=".12"/>
            <stop offset="100%" stop-color="gray" stop-opacity=".1"/>
        </linearGradient>
        <linearGradient id="p" x1="50.04%" x2="50.04%" y1="99.797%" y2="-.19%">
            <stop offset="0%" stop-color="gray" stop-opacity=".25"/>
            <stop offset="54%" stop-color="gray" stop-opacity=".12"/>
            <stop offset="100%" stop-color="gray" stop-opacity=".1"/>
        </linearGradient>
        <linearGradient id="q" x1="49.828%" x2="49.828%" y1="100%" y2="0%">
            <stop offset="0%" stop-color="gray" stop-opacity=".25"/>
            <stop offset="54%" stop-color="gray" stop-opacity=".12"/>
            <stop offset="100%" stop-color="gray" stop-opacity=".1"/>
        </linearGradient>
        <linearGradient id="r" x1="49.939%" x2="49.939%" y1="99.889%" y2="-.222%">
            <stop offset="0%" stop-color="gray" stop-opacity=".25"/>
            <stop offset="54%" stop-color="gray" stop-opacity=".12"/>
            <stop offset="100%" stop-color="gray" stop-opacity=".1"/>
        </linearGradient>
        <linearGradient id="s" x1="50.007%" x2="50.007%" y1="100.021%" y2=".095%">
            <stop offset="0%" stop-color="gray" stop-opacity=".25"/>
            <stop offset="54%" stop-color="gray" stop-opacity=".12"/>
            <stop offset="100%" stop-color="gray" stop-opacity=".1"/>
        </linearGradient>
        <linearGradient id="t" x1="49.986%" x2="49.986%" y1="100.005%" y2="0%">
            <stop offset="0%" stop-color="gray" stop-opacity=".25"/>
            <stop offset="54%" stop-color="gray" stop-opacity=".12"/>
            <stop offset="100%" stop-color="gray" stop-opacity=".1"/>
        </linearGradient>
        <linearGradient id="u" x1="49.783%" x2="49.783%" y1="100.118%" y2="0%">
            <stop offset="0%" stop-color="gray" stop-opacity=".25"/>
            <stop offset="54%" stop-color="gray" stop-opacity=".12"/>
            <stop offset="100%" stop-color="gray" stop-opacity=".1"/>
        </linearGradient>
        <linearGradient id="v" x1="49.791%" x2="49.791%" y1="100.035%" y2="0%">
            <stop offset="0%" stop-color="gray" stop-opacity=".25"/>
            <stop offset="54%" stop-color="gray" stop-opacity=".12"/>
            <stop offset="100%" stop-color="gray" stop-opacity=".1"/>
        </linearGradient>
        <linearGradient id="w" x1="51.108%" x2="51.108%" y1="100.087%" y2="0%">
            <stop offset="0%" stop-color="gray" stop-opacity=".25"/>
            <stop offset="54%" stop-color="gray" stop-opacity=".12"/>
            <stop offset="100%" stop-color="gray" stop-opacity=".1"/>
        </linearGradient>
        <linearGradient id="x" x1="49.981%" x2="49.981%" y1="100.109%" y2=".574%">
            <stop offset="0%" stop-color="gray" stop-opacity=".25"/>
            <stop offset="54%" stop-color="gray" stop-opacity=".12"/>
            <stop offset="100%" stop-color="gray" stop-opacity=".1"/>
        </linearGradient>
        <linearGradient id="y" x1="50%" x2="50%" y1="100.006%" y2="0%">
            <stop offset="0%" stop-color="gray" stop-opacity=".25"/>
            <stop offset="54%" stop-color="gray" stop-opacity=".12"/>
            <stop offset="100%" stop-color="gray" stop-opacity=".1"/>
        </linearGradient>
        <linearGradient id="z" x1="49.993%" x2="49.993%" y1="66.72%" y2="32.72%">
            <stop offset="0%" stop-color="gray" stop-opacity=".25"/>
            <stop offset="54%" stop-color="gray" stop-opacity=".12"/>
            <stop offset="100%" stop-color="gray" stop-opacity=".1"/>
        </linearGradient>
        <linearGradient id="A" x1="49.997%" x2="49.997%" y1="100.025%" y2="0%">
            <stop offset="0%" stop-color="gray" stop-opacity=".25"/>
            <stop offset="54%" stop-color="gray" stop-opacity=".12"/>
            <stop offset="100%" stop-color="gray" stop-opacity=".1"/>
        </linearGradient>
        <linearGradient id="B" x1="49.996%" x2="49.996%" y1="99.974%" y2="-.014%">
            <stop offset="0%" stop-color="gray" stop-opacity=".25"/>
            <stop offset="54%" stop-color="gray" stop-opacity=".12"/>
            <stop offset="100%" stop-color="gray" stop-opacity=".1"/>
        </linearGradient>
        <linearGradient id="C" x1="49.713%" x2="49.713%" y1="100%" y2="0%">
            <stop offset="0%" stop-color="gray" stop-opacity=".25"/>
            <stop offset="54%" stop-color="gray" stop-opacity=".12"/>
            <stop offset="100%" stop-color="gray" stop-opacity=".1"/>
        </linearGradient>
        <linearGradient id="D" x1="49.888%" x2="49.888%" y1="100%" y2="-.036%">
            <stop offset="0%" stop-color="gray" stop-opacity=".25"/>
            <stop offset="54%" stop-color="gray" stop-opacity=".12"/>
            <stop offset="100%" stop-color="gray" stop-opacity=".1"/>
        </linearGradient>
        <linearGradient id="E" x1="50.033%" x2="50.033%" y1="99.858%" y2="-.134%">
            <stop offset="0%" stop-color="gray" stop-opacity=".25"/>
            <stop offset="54%" stop-color="gray" stop-opacity=".12"/>
            <stop offset="100%" stop-color="gray" stop-opacity=".1"/>
        </linearGradient>
        <linearGradient id="F" x1="50.083%" x2="50.083%" y1="100%" y2="0%">
            <stop offset="0%" stop-color="gray" stop-opacity=".25"/>
            <stop offset="54%" stop-color="gray" stop-opacity=".12"/>
            <stop offset="100%" stop-color="gray" stop-opacity=".1"/>
        </linearGradient>
        <linearGradient id="G" x1="50.074%" x2="50.074%" y1="99.959%" y2="0%">
            <stop offset="0%" stop-color="gray" stop-opacity=".25"/>
            <stop offset="54%" stop-color="gray" stop-opacity=".12"/>
            <stop offset="100%" stop-color="gray" stop-opacity=".1"/>
        </linearGradient>
        <linearGradient id="H" x1="50.009%" x2="50.009%" y1="100.128%" y2=".043%">
            <stop offset="0%" stop-color="gray" stop-opacity=".25"/>
            <stop offset="54%" stop-color="gray" stop-opacity=".12"/>
            <stop offset="100%" stop-color="gray" stop-opacity=".1"/>
        </linearGradient>
        <linearGradient id="I" x1="49.992%" x2="49.992%" y1="100.132%" y2=".132%">
            <stop offset="0%" stop-color="gray" stop-opacity=".25"/>
            <stop offset="54%" stop-color="gray" stop-opacity=".12"/>
            <stop offset="100%" stop-color="gray" stop-opacity=".1"/>
        </linearGradient>
    </defs>
    <g fill="none" fill-rule="evenodd">
        <path fill="#00C692" fill-rule="nonzero" d="M86.117 15.834c-9.199-.318-17.96-3.289-26.326-6.538-8.367-3.25-16.653-6.854-25.632-8.57-5.775-1.108-12.38-1.265-17.033 1.832-4.476 2.98-5.925 8.128-6.703 12.895-.586 3.59-.93 7.37.674 10.732 1.114 2.334 3.09 4.295 4.457 6.53 4.758 7.779 1.395 17.37-3.76 24.965-2.416 3.562-5.223 6.965-7.09 10.753C2.84 72.22 1.977 76.57 3.61 80.439c1.617 3.838 5.474 6.715 9.651 8.74 8.484 4.115 18.478 5.292 28.23 5.96 21.581 1.475 43.276.837 64.913.196 8.008-.236 16.05-.476 23.928-1.714 4.375-.688 8.89-1.78 12.067-4.415 4.032-3.344 5.03-9.007 2.329-13.202-4.532-7.034-17.057-8.781-20.228-16.33-1.743-4.156.047-8.784 2.581-12.638 5.436-8.268 14.545-15.521 15.024-24.97.33-6.49-4.05-12.99-10.82-16.062-7.098-3.22-16.94-2.814-22.174 2.513-5.394 5.488-14.872 7.6-22.993 7.317z" opacity=".1"/>
        <path fill="#E8E9ED" fill-rule="nonzero" d="M0 17.551h36.886v36.886H0zM114.065 17.551h36.886v36.886h-36.886z"/>
        <path fill="#3ACC6C" fill-rule="nonzero" d="M20.665 4.553l-.368-.377a.077.077 0 0 0-.058-.026.074.074 0 0 0-.058.026l-2.544 2.559-.927-.926a.08.08 0 0 0-.117 0l-.37.371a.082.082 0 0 0 0 .12l1.168 1.167c.062.069.15.112.243.119a.387.387 0 0 0 .243-.115l2.79-2.799a.09.09 0 0 0 0-.12h-.002z" opacity=".5"/>
        <path fill="#00C692" fill-rule="nonzero" d="M18.442 2.115a3.751 3.751 0 1 1-.005 7.502 3.751 3.751 0 0 1 .005-7.502zm0-.584a4.34 4.34 0 1 0 0 8.679 4.34 4.34 0 0 0 0-8.68z" opacity=".5"/>
        <path fill="#3ACC6C" fill-rule="nonzero" d="M49.154 16.681l-.463-.474a.097.097 0 0 0-.073-.032.094.094 0 0 0-.073.032l-3.203 3.226-1.167-1.165a.1.1 0 0 0-.072-.032.102.102 0 0 0-.074.032l-.468.467a.102.102 0 0 0 0 .15l1.47 1.466c.08.088.19.141.307.15a.488.488 0 0 0 .304-.143l3.51-3.53a.112.112 0 0 0 0-.142l.002-.005z" opacity=".8"/>
        <path fill="#00C692" fill-rule="nonzero" d="M46.354 13.611a4.726 4.726 0 1 1-3.343 1.385 4.69 4.69 0 0 1 3.343-1.385zm0-.735a5.462 5.462 0 1 0 0 10.925 5.462 5.462 0 0 0 0-10.925z" opacity=".8"/>
        <path fill="#00C692" fill-rule="nonzero" d="M132.507 2.115a3.751 3.751 0 1 1-.005 7.502 3.751 3.751 0 0 1 .005-7.502zm0-.584a4.34 4.34 0 1 0 0 8.679 4.34 4.34 0 0 0 0-8.68z" opacity=".5"/>
        <path fill="#00C692" fill-rule="nonzero" d="M104.396 13.611a4.726 4.726 0 1 1-3.336 1.385 4.7 4.7 0 0 1 3.343-1.385h-.007zm.007-.735a5.462 5.462 0 1 0 3.86 1.597 5.461 5.461 0 0 0-3.867-1.597h.007z" opacity=".8"/>
        <path fill="#00C692" fill-rule="nonzero" d="M75.238 22.279a6.246 6.246 0 1 1-4.42 1.83 6.207 6.207 0 0 1 4.42-1.83zm0-.972a7.222 7.222 0 1 0 0 14.444 7.222 7.222 0 0 0 0-14.444z"/>
        <path fill="#F3F5F7" fill-rule="nonzero" d="M25.801 27.219h41.106v41.106H25.801zM83.843 27.219h41.106v41.106H83.843z"/>
        <path fill="#000" fill-rule="nonzero" d="M3.686 24.1h13.711v1.524H3.686zM120.702 24.1h13.711v1.524h-13.711z" opacity=".1"/>
        <path stroke="#535461" stroke-width="2" d="M99.666 87.9s3.562-6.31 8.926-8.128a10.977 10.977 0 0 0 5.56-4.159 18.569 18.569 0 0 0 1.641-2.955"/>
        <path fill="#00C692" fill-rule="nonzero" d="M119.166 71.497c-.611.593-3.458 1.207-3.458 1.207s.7-2.827 1.31-3.421a1.542 1.542 0 1 1 2.148 2.214zM117.556 76.611c-.836.166-3.554-.865-3.554-.865s2.122-1.99 2.958-2.16a1.542 1.542 0 0 1 .6 3.025h-.004zM111.692 82.147c-.804-.284-2.633-2.544-2.633-2.544s2.842-.65 3.643-.37a1.542 1.542 0 0 1-1.01 2.914zM106.32 85.336c-.842-.143-3.028-2.063-3.028-2.063s2.69-1.118 3.53-.98a1.542 1.542 0 1 1-.503 3.043zM111.624 73.537c0 .853 1.54 3.321 1.54 3.321s1.542-2.468 1.542-3.32a1.542 1.542 0 1 0-3.085 0l.003-.001zM105.38 77.349c.254.813 2.465 2.709 2.465 2.709s.733-2.817.479-3.63a1.542 1.542 0 0 0-2.944.92zM99.82 81.882c.113.844 1.97 3.085 1.97 3.085s1.2-2.652 1.087-3.496a1.542 1.542 0 0 0-3.057.41z"/>
        <path fill="#000" fill-rule="nonzero" d="M119.166 71.497c-.611.593-3.458 1.207-3.458 1.207s.7-2.827 1.31-3.421a1.542 1.542 0 1 1 2.148 2.214zM117.556 76.611c-.836.166-3.554-.865-3.554-.865s2.122-1.99 2.958-2.16a1.542 1.542 0 0 1 .6 3.025h-.004zM111.692 82.147c-.804-.284-2.633-2.544-2.633-2.544s2.842-.65 3.643-.37a1.542 1.542 0 0 1-1.01 2.914zM106.32 85.336c-.842-.143-3.028-2.063-3.028-2.063s2.69-1.118 3.53-.98a1.542 1.542 0 1 1-.503 3.043zM111.624 73.537c0 .853 1.54 3.321 1.54 3.321s1.542-2.468 1.542-3.32a1.542 1.542 0 1 0-3.085 0l.003-.001zM105.38 77.349c.254.813 2.465 2.709 2.465 2.709s.733-2.817.479-3.63a1.542 1.542 0 0 0-2.944.92zM99.82 81.882c.113.844 1.97 3.085 1.97 3.085s1.2-2.652 1.087-3.496a1.542 1.542 0 0 0-3.057.41z" opacity=".25"/>
        <path stroke="#535461" stroke-width="2" d="M99.87 87.775s.701-7.211 4.867-11.047a10.99 10.99 0 0 0 3.399-6.06 18.52 18.52 0 0 0 .303-3.363"/>
        <path fill="#00C692" fill-rule="nonzero" d="M111.051 64.876c-.318.79-2.672 2.505-2.672 2.505s-.507-2.867-.189-3.658a1.542 1.542 0 1 1 2.861 1.153zM111.651 70.205c-.696.49-3.603.651-3.603.651s1.137-2.684 1.83-3.173a1.542 1.542 0 0 1 1.773 2.522zM108.534 77.642c-.853.07-3.438-1.258-3.438-1.258s2.33-1.744 3.18-1.815a1.542 1.542 0 1 1 .258 3.073zM104.91 82.737c-.826.214-3.604-.66-3.604-.66s2.004-2.111 2.829-2.326a1.542 1.542 0 0 1 .774 2.985v.001zM104.982 69.798c.345.78 2.755 2.417 2.755 2.417s.41-2.883.066-3.662a1.543 1.543 0 1 0-2.821 1.25v-.005zM100.817 75.81c.569.64 3.352 1.48 3.352 1.48s-.472-2.875-1.033-3.515a1.543 1.543 0 1 0-2.319 2.036zM97.572 82.21c.445.726 3.052 2.024 3.052 2.024s.023-2.912-.426-3.639a1.542 1.542 0 1 0-2.629 1.615h.003z"/>
        <path fill="#000" fill-rule="nonzero" d="M31.107 35.994h13.711v1.524H31.107zM56.372 49.387h8.186v1.524h-8.186zM56.372 59.613h12.122v1.524H56.372zM31.107 41.364h13.711v1.524H31.107zM92.805 35.994h13.711v1.524H92.805zM92.805 41.364h13.711v1.524H92.805z" opacity=".1"/>
        <path fill="#00C692" fill-rule="nonzero" d="M73.295 30.652l.384-.503c.369.362.865.566 1.381.569.649 0 1.129-.317 1.129-.83 0-.558-.46-.924-1.737-.924v-.579c1.137 0 1.564-.374 1.564-.867 0-.446-.383-.725-.95-.725a1.828 1.828 0 0 0-1.188.486l-.408-.486a2.486 2.486 0 0 1 1.627-.632c.983 0 1.706.471 1.706 1.299 0 .582-.426.963-1.04 1.174v.031c.658.142 1.21.579 1.21 1.26 0 .898-.854 1.436-1.86 1.436-.856-.001-1.443-.327-1.818-.709z"/>
        <path fill="#00C692" fill-rule="nonzero" d="M104.85 17.554c0-.273.024-.621.038-.894h-.035c-.157.242-.334.482-.494.722l-1.137 1.458h3.02v.587h-3.799v-.497l2.267-2.985h.835v4.746h-.695v-3.137z" opacity=".8"/>
        <path fill="#00C692" fill-rule="nonzero" d="M131.03 7.374l.258-.35c.248.243.582.38.93.381.458 0 .818-.272.818-.72 0-.448-.317-.69-.788-.69a1.204 1.204 0 0 0-.67.198l-.268-.172.108-1.679h1.99v.462h-1.52l-.085.92c.186-.084.387-.127.59-.125.653 0 1.184.335 1.184 1.077s-.622 1.176-1.295 1.176a1.747 1.747 0 0 1-1.252-.478z" opacity=".5"/>
        <path fill="#00C692" fill-rule="nonzero" d="M49.345 40.271h50.813v50.813H49.345z" opacity=".1"/>
        <path fill="#FFF" fill-rule="nonzero" d="M51.05 37.854h50.813v50.813H51.05z"/>
        <path fill="#00C692" fill-rule="nonzero" d="M56.372 43.483H96.54v1.524H56.372z" opacity=".5"/>
        <path fill="#000" fill-rule="nonzero" d="M56.372 54.5H81.95v1.524H56.372zM56.372 64.727h24.817v1.524H56.372zM56.372 69.84h33.83v1.524h-33.83z" opacity=".1"/>
        <path fill="#3ACC6C" fill-rule="nonzero" d="M89.195 54.635l-.175-.18a.043.043 0 0 0-.029-.012c-.01 0-.02.004-.027.012l-1.212 1.222-.442-.442a.045.045 0 0 0-.029-.011c-.01 0-.02.004-.027.011l-.177.178a.04.04 0 0 0 0 .056l.557.556c.03.033.072.054.117.057a.18.18 0 0 0 .115-.055l1.329-1.335a.045.045 0 0 0 0-.057z" opacity=".5"/>
        <path fill="#3ACC6C" fill-rule="nonzero" d="M88.136 53.47a1.791 1.791 0 1 1 .002 3.582 1.791 1.791 0 0 1-.002-3.582zm0-.278a2.068 2.068 0 1 0 2.066 2.067 2.067 2.067 0 0 0-2.066-2.064v-.003zM89.195 64.86l-.175-.179a.037.037 0 0 0-.029-.01c-.01-.001-.02.003-.027.01l-1.212 1.221-.442-.44a.04.04 0 0 0-.029-.013c-.01 0-.02.005-.027.013l-.177.176a.04.04 0 0 0 0 .057l.557.557c.03.033.072.053.117.057a.186.186 0 0 0 .115-.055l1.329-1.337a.045.045 0 0 0 0-.056z" opacity=".5"/>
        <path fill="#3ACC6C" fill-rule="nonzero" d="M88.136 63.704a1.791 1.791 0 1 1 .002 3.581 1.791 1.791 0 0 1-.002-3.581zm0-.285a2.068 2.068 0 1 0-.003 4.137 2.068 2.068 0 0 0 .003-4.137z" opacity=".5"/>
        <ellipse cx="72.847" cy="111.206" fill="#00C692" fill-rule="nonzero" opacity=".1" rx="10.15" ry="1.703"/>
        <path fill="#00C692" fill-rule="nonzero" d="M18.607 98.554s.53.693-.244 1.739c-.773 1.046-1.413 1.927-1.154 2.58 0 0 1.167-1.942 2.118-1.969.95-.027.325-1.181-.72-2.35z"/>
        <path fill="#000" fill-rule="nonzero" d="M18.607 98.554c.046.068.083.14.108.218.927 1.09 1.422 2.106.53 2.132-.83.024-1.826 1.508-2.065 1.883a.667.667 0 0 0 .029.086s1.167-1.942 2.118-1.969c.95-.027.325-1.181-.72-2.35z" opacity=".1"/>
        <path fill="#FFD037" fill-rule="nonzero" d="M19.59 99.437c0 .245-.026.442-.06.442s-.061-.197-.061-.442c0-.244.034-.13.068-.13s.054-.113.054.13z"/>
        <path fill="#FFD037" fill-rule="nonzero" d="M19.93 99.729c-.215.116-.402.187-.417.157-.016-.03.142-.142.358-.265.216-.124.13-.032.142 0 .013.03.13-.009-.084.108z"/>
        <path fill="#00C692" fill-rule="nonzero" d="M15.81 98.554s-.53.693.245 1.739c.774 1.046 1.411 1.927 1.154 2.58 0 0-1.169-1.942-2.118-1.969-.95-.027-.327-1.181.72-2.35z"/>
        <path fill="#000" fill-rule="nonzero" d="M15.81 98.554a.866.866 0 0 0-.108.218c-.928 1.09-1.421 2.106-.53 2.132.83.024 1.826 1.508 2.065 1.883a1 1 0 0 1-.028.086s-1.169-1.942-2.118-1.969c-.95-.027-.327-1.181.72-2.35z" opacity=".1"/>
        <path fill="#FFD037" fill-rule="nonzero" d="M14.825 99.437c0 .245.027.442.061.442s.061-.197.061-.442c0-.244-.034-.13-.068-.13s-.054-.113-.054.13z"/>
        <path fill="#FFD037" fill-rule="nonzero" d="M14.488 99.729c.213.116.4.187.417.157.017-.03-.143-.142-.359-.265-.216-.124-.129-.032-.142 0-.012.03-.13-.009.084.108z"/>
        <ellipse cx="17.209" cy="107.32" fill="#00C692" fill-rule="nonzero" opacity=".1" rx="5.536" ry="1"/>
        <path fill="#65617D" fill-rule="nonzero" d="M20.059 101.939l-.027.217-.037.304-.016.128-.037.306-.016.128-.038.304-.426 3.474c-.037.31-.545.551-1.156.551h-2.199c-.611 0-1.117-.241-1.154-.551l-.426-3.474-.037-.304-.016-.128-.037-.306-.016-.128-.037-.304-.028-.217c-.021-.175.253-.323.598-.323h4.503c.349 0 .623.148.602.323z"/>
        <path fill="#9D9CB5" fill-rule="nonzero" d="M20.032 102.155l-.037.305h-5.572l-.039-.305zM19.979 102.588l-.037.306h-5.467l-.037-.306zM19.926 103.02l-.038.306h-5.36l-.037-.306z"/>
        <path fill="#000" fill-rule="nonzero" d="M83.981 65.638c-.095-.195-.853-2.7-.853-2.7l-1.46-3.706s-.885-4.877-2.207-3.66c-1.322 1.217.71 4.136.71 4.136s.835 2.132.792 2.559c-.042.426.465 1.99.465 1.99l-.165.898c-.214-.014-.354-.014-.354-.014s-.13.187-.255.2a.118.118 0 0 1-.063-.009c-.142-.063-.613-.05-.853-.05a1.91 1.91 0 0 1-.638-.205c-.082-.165-.549-.263-.962-.319-.314-.782-.756-1.542-.818-2.358a1.02 1.02 0 0 1 .126-.642.803.803 0 0 1 .093-.117c.115-.116.256-.219.384-.327.064-.054.122-.11.178-.166 1.084-1.052.912-2.68-.071-3.808-1.137-1.303-6.266-4.108-7.818-1.706-.216.336-.223.724-.284 1.096a4.568 4.568 0 0 1-1.225 2.417c-.515.547-1.19 1.051-1.486 1.671l-.01-.023c-.07.135-.122.278-.153.427-.15.755.36 1.48.627 2.216.09.25.156.507.196.77l.017-.162c.065.375.088.757.067 1.137-1.862.381-1.864 3.59-1.864 3.59s-.229 1.28-.19 1.736c.038.456.038 1.454.038 1.697 0 .243-.23 1.736-.256 1.915-.032.197-.382 1.144.462 1.357.058.016.121.029.185.04.036.766.102 2.374.044 2.73 0 0 .307 2.157.561 2.7.164.32.354.628.569.917a.995.995 0 0 1-.13.37c-.129.19-.062.345.156.411l-.026.222c-.092.833-.232 2.486 0 3.325.326 1.148.344 1.53.344 1.53 0 .187.046.371.134.536.142.192.383 1.972.383 2.259 0 .287.651 2.871.46 3.484-.192.612-.039 1.474-.039 1.474s-.115 1.512-.249 1.838c-.133.325-.192 5.57.019 6.929.21 1.359.345 2.489.345 2.489s-.142 1.243-.02 1.421c.123.178.326 1.207.172 1.264-.153.057-.228.479-.228.479.08.123.168.242.261.356a1.444 1.444 0 0 1-.173-.073c.06.086.152.206.263.336l-.104 1.376a.23.23 0 0 0 .17.242 1.91 1.91 0 0 0 1.902-.539c.957-.976 1.28-.841 1.456-1.435.017-.064.034-.125.047-.185a.621.621 0 0 0-.88-.697c.06-.426.11-.894.062-1.162-.095-.555-.076-2.01-.076-2.01l-.134-6.965s.249-1.377.536-1.913c.287-.536.249-2.416.249-2.416l.325-6.165.324-2.985s.306-1.033.688.115c0 0-.21 2.316-.114 2.871.097.556.23 3.254.134 3.848-.095.594-.517 3.848-.249 4.67.269.824.555 1.819.498 2.144-.057.326-.249 7.391-.249 7.391s.516 1.36.134 1.8c-.383.44-.019 2.202-.019 2.202s.046.032.125.08l-.011.141-.12 1.584a.232.232 0 0 0 .171.241 1.913 1.913 0 0 0 1.902-.538c.956-.977 1.279-.843 1.455-1.436l.049-.186a.623.623 0 0 0-1.025-.6.97.97 0 0 1-.076.058l-.036.025c.095-.438.234-1.184.169-1.537-.096-.517.095-2.087.095-2.087s.556-1.876.568-2.622c.013-.746.154-5.97.154-5.97s-.019-2.43.058-3.023.688-5.724 1.3-7.25c.471-1.173.682-4.165.557-5.685l-.022-.216c.75-.563.829-1.49.829-1.49s-.69-1.327-1.353-1.888c-.664-.562-.818-1.531-.792-1.94.012-.25-.07-.496-.229-.689 0 0-.307-.995-.512-1.097a.142.142 0 0 1-.044-.034c-.142-.15-.032-.578-.032-.578v-.013c.022-.1.172-.742.123-.907-.048-.165.026-1.02.026-1.02s.486-1.455.41-2.603c-.077-1.149.994-1.048.994-1.048l3.31-.034h.377c.16-.135.302-.288.427-.456a.913.913 0 0 0 .732-.18c.702-.642.615-1.868.52-2.066zm-15.395 9.95l.024-.583.13.11c.039.154.039.314 0 .467a.497.497 0 0 1-.285.324.317.317 0 0 0-.047.029l-.032-.333c.135-.009.21-.016.21-.016v.002z" opacity=".1"/>
        <path fill="url(#a)" fill-rule="nonzero" d="M81.005 66.768s1.884 1.213 2.598.569c.713-.644.625-1.887.529-2.083-.097-.196-.865-2.719-.865-2.719L81.785 58.8s-.901-4.917-2.246-3.696c-1.344 1.221.725 4.17.725 4.17s.853 2.15.805 2.58c-.049.431.472 2.009.472 2.009l-.536 2.905z"/>
        <path fill="url(#b)" fill-rule="nonzero" d="M77.49 110.57c-.015.062-.03.125-.05.188-.175.599-.506.464-1.478 1.447a1.952 1.952 0 0 1-1.933.543.233.233 0 0 1-.174-.243l.122-1.596.059-.769s1.547.435 2.336-.115a.97.97 0 0 0 .076-.058l.022-.019a.633.633 0 0 1 1.02.623z"/>
        <path fill="url(#c)" fill-rule="nonzero" d="M72.633 109.968c-.013.061-.03.124-.049.188-.174.598-.506.463-1.478 1.447a1.957 1.957 0 0 1-1.933.544.232.232 0 0 1-.173-.244l.12-1.597.06-.768s1.548.434 2.335-.116a.992.992 0 0 0 .077-.058l.023-.018a.631.631 0 0 1 1.018.622z"/>
        <path fill="url(#d)" fill-rule="nonzero" d="M2.234.051l.064.829C1.408 1.76.351.453.038.018c.815.418 2.196.033 2.196.033z" opacity=".1" transform="translate(68.795 110.157)"/>
        <path fill="url(#e)" fill-rule="nonzero" d="M2.341.53l.118-.077C1.646 1.68.441 1.113.065.894L.124.125S1.672.56 2.46.01c-.062.3-.119.52-.119.52z" opacity=".1" transform="translate(73.912 110.015)"/>
        <path fill="url(#f)" fill-rule="nonzero" d="M78.725 87.368c-.623 1.544-1.245 6.716-1.324 7.315-.078.598-.058 3.048-.058 3.048l-.162 6.021c-.018.754-.583 2.644-.583 2.644s-.194 1.584-.098 2.104c.097.52-.253 1.892-.253 1.892l.118-.077c-.973 1.465-2.51.365-2.51.365s-.37-1.775.019-2.218c.388-.444-.135-1.814-.135-1.814s.193-7.121.253-7.45c.06-.328-.222-1.331-.506-2.162-.285-.83.154-4.11.253-4.709.098-.598-.04-3.319-.143-3.879-.102-.56.117-2.895.117-2.895-.39-1.157-.7-.115-.7-.115l-.312 3.03-.32 6.222s.04 1.89-.253 2.43c-.293.54-.544 1.93-.544 1.93l.142 7.025s-.02 1.467.078 2.027-.215 2.007-.215 2.007c-1.088 2.547-2.842-.212-2.842-.212s.076-.426.233-.483c.156-.057-.059-1.1-.175-1.28-.117-.178.018-1.42.018-1.42s-.135-1.138-.35-2.51c-.214-1.374-.154-6.659-.02-6.987.136-.328.254-1.848.254-1.848s-.155-.868.04-1.487c.194-.618-.468-3.222-.468-3.512 0-.29-.253-2.084-.39-2.274a1.137 1.137 0 0 1-.142-.54s-.02-.387-.35-1.544c-.242-.853-.1-2.513 0-3.351.033-.312.062-.51.062-.51s11.168-1.794 11.615-1.388c.106.094.175.426.215.89.127 1.515-.088 4.533-.564 5.715z"/>
        <path fill="url(#g)" fill-rule="nonzero" d="M.021.36c.053 0 1.28.365 1.739.045C2.219.085.02.36.02.36z" opacity=".1" transform="translate(74.48 95.943)"/>
        <path fill="url(#h)" fill-rule="nonzero" d="M.112.263s1.706.694 1.791.334C1.99.237.113.263.113.263z" opacity=".1" transform="translate(74.48 96.654)"/>
        <path fill="url(#i)" fill-rule="nonzero" d="M.028.207S.91.297 1.39.81C1.87 1.323.028.207.028.207z" opacity=".1" transform="translate(69.364 96.37)"/>
        <path fill="url(#j)" fill-rule="nonzero" d="M66.188 74.817s.142 2.69.066 3.164c0 0 .31 2.175.568 2.728.232.441.506.859.817 1.248l.765-5.339-.178-1.828-2.038.027z"/>
        <ellipse cx="74.23" cy="59.596" fill="url(#k)" fill-rule="nonzero" rx="2.996" ry="2.972"/>
        <path fill="url(#l)" fill-rule="nonzero" d="M72.674 60.986s-.934 1.814-1.868 2.664c-.934.85 5.603 1.813 5.758 1.813.155 0-1.167-3.859-.934-4.322.234-.464-2.956-.155-2.956-.155z"/>
        <path fill="url(#m)" fill-rule="nonzero" d="M11.915 1.046a1.942 1.942 0 0 1-.48.267c-1.193.464-2.49 1.108-3.373.853-.883-.254-2.749 0-2.749 0S1.551 1.856.8 2.036c-.252.077-.52.084-.776.02.034-.31.062-.508.062-.508S11.253-.247 11.701.159c.105.091.175.42.214.887z" opacity=".1" transform="translate(67.374 80.592)"/>
        <path fill="url(#n)" fill-rule="nonzero" d="M80.106 79.924s-.103 1.28-1.297 1.75-2.49 1.107-3.373.853-2.75 0-2.75 0-3.762-.31-4.514-.13c-.752.181-1.137-.05-.908-.386.229-.335.21-1.44.21-1.903 0-.464-.261-2.343-.028-2.677.233-.334.44-1.62.908-1.826a.505.505 0 0 0 .292-.327.92.92 0 0 0 0-.47s-.078-.065-.188-.161c-.274-.243-.74-.695-.591-.843.207-.206 0-1.545 0-1.545s-.493-1.03-.311-1.414c.181-.386-1.582-2.417-1.582-2.417s0-3.5 2.132-3.654c0 0 1.503.052 1.685-.617.182-.67 1.375-1.056 1.375-1.056l2.723.593s2.417.514 2.854.206c.438-.309.78.41.78.41s1.503.079 1.66.387c.156.309-.494 3.32-.494 3.32s-1.09-.103-1.012 1.055c.078 1.159-.415 2.624-.415 2.624s-.078.853-.025 1.03c.052.175-.103.812-.127.913v.013s-.108.426.033.584a.212.212 0 0 0 .045.034c.208.102.519 1.106.519 1.106.162.194.246.442.235.695-.026.412.129 1.389.803 1.956.673.567 1.361 1.897 1.361 1.897z"/>
        <path fill="url(#o)" fill-rule="nonzero" d="M68.535 73.967v.11l-.048 1.204s-1.595.128-2.465-.091c-.87-.22-.502-1.17-.468-1.369.026-.18.259-1.686.259-1.93 0-.245 0-1.248-.038-1.706-.039-.458.194-1.75.194-1.75l.168-.206 1.83.695.568 5.043z"/>
        <path fill="url(#p)" fill-rule="nonzero" d="M3.148.31L3.1 1.514s-1.595.128-2.465-.091C-.235 1.203.134.253.168.054l2.98.256z" opacity=".1" transform="translate(65.384 73.77)"/>
        <path fill="url(#q)" fill-rule="nonzero" d="M.284 1.647a.92.92 0 0 0 0-.47s-.078-.064-.187-.16C1.47.826 6.91.084 8.744.005v.012s-.108.427.033.585L.284 1.647z" opacity=".1" transform="translate(68.369 73.628)"/>
        <path fill="url(#r)" fill-rule="nonzero" d="M.976.026s.337 1.891-.92 2.558c0 0 .713-.942.92-2.558z" opacity=".1" transform="translate(76.328 76.186)"/>
        <path fill="url(#s)" fill-rule="nonzero" d="M.13.63S3.166-.275 3.763.425C4.36 1.125.131.63.131.63z" opacity=".1" transform="translate(68.937 78.46)"/>
        <path fill="url(#t)" fill-rule="nonzero" d="M.618.009s-.82 1.903-.206 2.34C1.028 2.788.618.01.618.01z" opacity=".1" transform="translate(75.902 67.09)"/>
        <path fill="url(#u)" fill-rule="nonzero" d="M.2.014s1 .71.397 1.441C-.007 2.186.2.015.2.015z" opacity=".1" transform="translate(67.374 65.526)"/>
        <path fill="url(#v)" fill-rule="nonzero" d="M66.578 71.741s.544.323.362.825c-.182.502-.362-.825-.362-.825z"/>
        <path fill="url(#w)" fill-rule="nonzero" d="M0 .068s.712.319.8.785C.888 1.32 0 .068 0 .068z" opacity=".1" transform="translate(66.52 70.216)"/>
        <path fill="url(#x)" fill-rule="nonzero" d="M.11.734s3.18.454 3.814-.6c0 .004-2.866.8-3.813.6z" opacity=".1" transform="translate(73.912 85.14)"/>
        <path fill="url(#y)" fill-rule="nonzero" d="M.026.102s3.41 1.403 4.085.293c0 0-2.931.385-4.085-.293z" opacity=".1" transform="translate(68.51 85.425)"/>
        <path fill="url(#z)" fill-rule="nonzero" d="M.072.505s1.422 0 2.089.135C2.827.775.072.505.072.505z" opacity=".1" transform="translate(74.196 86.562)"/>
        <path fill="url(#A)" fill-rule="nonzero" d="M.117.052s.7 1.104 1.49.906C2.398.76.118.052.118.052z" opacity=".1" transform="translate(68.653 87.273)"/>
        <path fill="url(#B)" fill-rule="nonzero" d="M70.145 55.175c-.22.339-.227.73-.284 1.105a4.594 4.594 0 0 1-1.245 2.443c-.623.657-1.477 1.25-1.638 2.053-.152.761.366 1.493.637 2.234.71 1.954-.284 4.003-.575 6.02-.08.557.017 1.269.71 1.454.216.058.464.05.657.142.261.123.341.38.39.612.173.828.232 1.676.177 2.52-.031.475-.065 1.02.385 1.345.23.142.483.242.748.296.71.19 1.63.342 2.11-.103.201-.186.284-.45.527-.598.375-.22.908-.071 1.381-.048.911.039 1.771-.42 2.247-1.197.383-.684.35-1.463.208-2.199-.142-.736-.387-1.464-.405-2.209a1.28 1.28 0 0 1 .168-.749c.284-.443.962-.645 1.42-.995.862-.654.854-1.725.547-2.622-.307-.897-.876-1.754-.946-2.681-.03-.224.015-.452.128-.648.15-.186.327-.35.523-.486 1.258-1.054 1.11-2.785.07-3.969-1.154-1.317-6.37-4.146-7.94-1.72z"/>
        <g fill-rule="nonzero" opacity=".1">
            <path fill="url(#C)" d="M.97 5.684a4.843 4.843 0 0 0-.198-2.32c-.142-.373-.337-.746-.48-1.12a1.59 1.59 0 0 0-.157.427c-.153.76.365 1.492.637 2.234.091.253.158.514.197.78z" transform="translate(66.805 58.135)"/>
            <path fill="url(#D)" d="M2.132 14.113a9.282 9.282 0 0 0-.179-2.52c-.048-.232-.128-.49-.388-.613-.195-.092-.442-.085-.658-.142a.897.897 0 0 1-.606-.497c-.038.196-.074.392-.102.587-.081.557.016 1.269.71 1.454.217.058.464.05.659.142.26.123.34.38.388.612.08.385.136.773.168 1.165-.003-.062.008-.126.008-.188z" transform="translate(66.805 58.135)"/>
            <path fill="url(#E)" d="M9.523 13.813a2.507 2.507 0 0 1-2.246 1.197c-.473-.023-1.006-.172-1.381.048-.25.142-.327.412-.527.599-.48.444-1.4.292-2.11.102a2.274 2.274 0 0 1-.747-.296.918.918 0 0 1-.369-.594c0 .264 0 .53-.017.795-.03.473-.065 1.017.386 1.343.23.142.482.242.747.296.71.191 1.63.342 2.11-.103.2-.186.284-.449.527-.597.375-.222.908-.072 1.381-.048.911.039 1.772-.42 2.246-1.198.368-.657.353-1.402.225-2.113a2.3 2.3 0 0 1-.225.569z" transform="translate(66.805 58.135)"/>
            <path fill="url(#F)" d="M11.17 1.22c-.196.136-.373.3-.524.486a1.02 1.02 0 0 0-.126.648c.024.281.084.559.177.826.145-.153.304-.292.474-.417.852-.71 1.057-1.734.781-2.688a2.469 2.469 0 0 1-.781 1.145z" transform="translate(66.805 58.135)"/>
            <path fill="url(#G)" d="M10.92 7.657c-.461.348-1.138.55-1.422.995a1.27 1.27 0 0 0-.168.749c.01.301.048.6.11.896.018-.035.037-.069.058-.101.284-.442.96-.646 1.421-.995.786-.597.853-1.543.62-2.385a1.8 1.8 0 0 1-.62.841z" transform="translate(66.805 58.135)"/>
        </g>
        <path fill="url(#H)" fill-rule="nonzero" d="M83.647 66.107c-.532 1.338-1.22 1.865-1.22 1.865h-.382l-3.366.034-.39-1.055.547-2.274.335.022c.202.106.422.175.648.206.246 0 .727-.013.869.05.02.01.042.013.064.01.126-.013.261-.202.261-.202s3.166.005 2.634 1.344z"/>
        <path fill="url(#I)" fill-rule="nonzero" d="M2.912 1.434C2.381 2.772 1.692 3.3 1.692 3.3h-.381c.199-.53.62-1.619.784-1.87C2.26 1.18.843.6.018.28.145.267.28.078.28.078s3.164.017 2.632 1.356z" opacity=".1" transform="translate(80.735 64.673)"/>
        <path fill="#EFB7B9" fill-rule="nonzero" d="M80.905 67.143s1.848 1.203 2.559.56c.71-.642.615-1.87.52-2.065-.095-.195-.853-2.7-.853-2.7l-1.46-3.706s-.885-4.877-2.207-3.66c-1.322 1.217.71 4.136.71 4.136s.835 2.132.792 2.559c-.042.426.465 1.99.465 1.99l-.526 2.886z"/>
        <path fill="#00C692" fill-rule="nonzero" d="M77.447 110.59c-.014.059-.031.122-.048.186-.174.592-.5.459-1.456 1.435a1.913 1.913 0 0 1-1.902.539.232.232 0 0 1-.17-.242l.12-1.583.057-.762s1.524.426 2.299-.115c.025-.019.05-.037.075-.058a.623.623 0 0 1 1.025.6zM72.664 109.992c-.013.06-.03.121-.047.185-.173.594-.499.46-1.455 1.436a1.91 1.91 0 0 1-1.902.538.23.23 0 0 1-.17-.241l.119-1.584.058-.761s1.524.426 2.298-.116a.873.873 0 0 0 .076-.056l.02-.02a.623.623 0 0 1 1.003.62z"/>
        <path fill="#000" fill-rule="nonzero" d="M71.09 110.23l.063.823c-.874.872-1.916-.427-2.223-.853.805.41 2.16.03 2.16.03zM76.23 110.564l.115-.076c-.798 1.214-1.99.654-2.355.437l.058-.762s1.524.426 2.299-.115c-.061.297-.117.516-.117.516z" opacity=".1"/>
        <path fill="#444053" fill-rule="nonzero" d="M78.66 87.583c-.612 1.53-1.224 6.66-1.3 7.249-.075.588-.058 3.023-.058 3.023l-.154 5.97c-.018.746-.568 2.622-.568 2.622s-.19 1.564-.095 2.087c.095.523-.25 1.876-.25 1.876l.116-.077c-.957 1.455-2.469.364-2.469.364s-.364-1.76.019-2.201c.382-.441-.134-1.8-.134-1.8s.192-7.063.249-7.391c.057-.328-.23-1.32-.498-2.143-.267-.823.154-4.078.249-4.671s-.038-3.293-.134-3.848c-.095-.554.114-2.871.114-2.871-.382-1.149-.688-.115-.688-.115l-.307 3.005-.331 6.17s.038 1.875-.249 2.416c-.287.542-.534 1.908-.534 1.908l.133 6.965s-.018 1.455.077 2.01c.095.554-.21 1.99-.21 1.99-1.072 2.525-2.795-.211-2.795-.211s.077-.427.23-.48c.151-.052-.058-1.09-.173-1.263-.115-.172.02-1.421.02-1.421s-.142-1.13-.345-2.489c-.204-1.359-.152-6.604-.019-6.93.134-.325.249-1.837.249-1.837s-.154-.861.038-1.474-.459-3.197-.459-3.484c0-.287-.249-2.067-.384-2.258a1.137 1.137 0 0 1-.133-.536s-.019-.383-.344-1.531c-.238-.839-.098-2.492 0-3.325.034-.308.062-.504.062-.504S78.573 80.598 79.013 81c.103.094.172.427.21.883.119 1.527-.092 4.519-.562 5.7z"/>
        <path fill="#000" fill-rule="nonzero" d="M74.508 96.182c.05 0 1.263.103 1.705.013.442-.09-1.705-.013-1.705-.013zM74.597 96.897s1.672.294 1.761.142c.09-.152-1.76-.142-1.76-.142zM69.48 96.592s.867.038 1.339.254-1.339-.254-1.339-.254z" opacity=".1"/>
        <path fill="#EFB7B9" fill-rule="nonzero" d="M66.327 75.127s.143 2.667.064 3.139c0 0 .307 2.157.562 2.7.228.437.498.852.804 1.238l.754-5.29-.178-1.812-2.006.025z"/>
        <circle cx="74.24" cy="60.031" r="2.948" fill="#EFB7B9" fill-rule="nonzero"/>
        <path fill="#EFB7B9" fill-rule="nonzero" d="M72.708 61.41s-.918 1.798-1.838 2.64c-.92.843 5.514 1.8 5.667 1.8.154 0-1.148-3.83-.92-4.288.23-.46-2.909-.153-2.909-.153z"/>
        <path fill="#000" fill-rule="nonzero" d="M79.217 81.897c-.144.11-.303.2-.472.266-1.174.46-2.45 1.097-3.32.842-.868-.256-2.7 0-2.7 0s-3.696-.306-4.44-.128c-.25.075-.516.08-.77.015.035-.308.063-.504.063-.504s10.988-1.78 11.428-1.378c.103.094.172.42.21.887z" opacity=".1"/>
        <path fill="#00C692" fill-rule="nonzero" d="M80.024 80.192s-.102 1.279-1.28 1.735c-1.176.456-2.45 1.097-3.318.843-.869-.254-2.7 0-2.7 0s-3.697-.307-4.441-.128c-.745.18-1.123-.051-.894-.384.228-.332.204-1.421.204-1.887 0-.466-.256-2.323-.025-2.655.23-.333.426-1.608.894-1.813a.497.497 0 0 0 .284-.324.932.932 0 0 0 0-.466s-.077-.064-.185-.16c-.27-.24-.727-.689-.58-.835.204-.205 0-1.532 0-1.532s-.486-1.02-.307-1.403c.18-.382-1.563-2.4-1.563-2.4s0-3.47 2.094-3.624c0 0 1.48.051 1.658-.613.18-.663 1.353-1.046 1.353-1.046l2.68.587s2.373.51 2.807.205c.433-.306.76.407.76.407s1.48.076 1.634.382c.153.305-.485 3.292-.485 3.292s-1.072-.101-.995 1.047c.077 1.149-.41 2.603-.41 2.603s-.076.843-.025 1.02c.051.178-.1.808-.124.907v.013s-.105.427.033.579a.142.142 0 0 0 .044.034c.205.1.512 1.097.512 1.097.159.193.24.438.229.688-.026.41.128 1.379.791 1.94.664.562 1.355 1.89 1.355 1.89z"/>
        <path fill="#00C692" fill-rule="nonzero" d="M68.637 74.284v.108l-.047 1.194s-1.563.128-2.416-.09c-.853-.217-.495-1.16-.462-1.357.026-.179.256-1.673.256-1.914 0-.242 0-1.238-.039-1.697-.038-.46.19-1.736.19-1.736l.167-.205 1.8.69.551 5.007z"/>
        <path fill="#000" fill-rule="nonzero" d="M68.633 74.392l-.047 1.194s-1.563.128-2.416-.09c-.853-.217-.495-1.16-.462-1.357l2.925.253z" opacity=".1"/>
        <path fill="#000" fill-rule="nonzero" d="M68.747 75.58a.932.932 0 0 0 0-.466s-.077-.064-.185-.159c1.353-.187 6.705-.922 8.508-.995v.013s-.105.426.033.579l-8.356 1.029zM77.264 76.505s.332 1.876-.906 2.54c0 0 .702-.931.906-2.54zM69.16 79.096s2.985-.51 3.574-.115c.588.395-3.574.115-3.574.115zM76.23 67.47s-.459 1.89-.115 2.323c.344.433.115-2.323.115-2.323zM67.578 65.927s.427.7.167 1.428-.167-1.428-.167-1.428z" opacity=".1"/>
        <path fill="#00C692" fill-rule="nonzero" d="M66.711 72.077s.536.32.357.817c-.18.498-.357-.817-.357-.817z"/>
        <path fill="#000" fill-rule="nonzero" d="M66.663 70.623s.497.267.561.662c.064.395-.561-.662-.561-.662zM74.036 85.884s3.127.32 3.75-.426c0 .006-2.82.561-3.75.426zM68.637 85.705s3.356.792 4.02.166c0 .006-2.884.218-4.02-.166zM74.277 86.918s1.405 0 2.056.038c.65.038-2.056-.038-2.056-.038zM68.867 87.517s.69.78 1.467.639c.778-.141-1.467-.639-1.467-.639z" opacity=".1"/>
        <path fill="#E3787D" fill-rule="nonzero" d="M70.216 55.639c-.216.335-.223.723-.284 1.096a4.568 4.568 0 0 1-1.225 2.416c-.611.65-1.451 1.24-1.61 2.035-.15.755.359 1.481.626 2.216.71 1.938-.284 3.97-.568 5.97-.08.553.015 1.26.696 1.443.213.057.456.05.648.142.256.122.334.378.381.607.171.821.23 1.662.177 2.5-.032.47-.066 1.01.378 1.335.226.14.475.238.736.293.7.189 1.603.338 2.075-.103.198-.185.272-.446.519-.593.37-.218.894-.07 1.359-.048a2.463 2.463 0 0 0 2.21-1.187c.377-.68.344-1.45.205-2.18-.14-.73-.381-1.453-.398-2.192a1.266 1.266 0 0 1 .165-.742c.284-.44.945-.64 1.398-.986.853-.648.845-1.706.537-2.601-.307-.896-.862-1.74-.93-2.66a1.02 1.02 0 0 1 .125-.642c.153-.18.33-.339.527-.47 1.238-1.045 1.092-2.763.068-3.937-1.134-1.307-6.265-4.112-7.815-1.712z"/>
        <g fill="#000" fill-rule="nonzero" opacity=".1">
            <path d="M67.89 64.218a4.857 4.857 0 0 0-.197-2.301c-.133-.371-.33-.74-.473-1.11-.07.134-.122.278-.153.426-.15.755.36 1.481.626 2.216.091.25.157.507.197.77zM69.03 72.579a9.306 9.306 0 0 0-.177-2.5c-.047-.23-.125-.485-.38-.607-.193-.093-.436-.086-.649-.143a.89.89 0 0 1-.595-.493 11.84 11.84 0 0 0-.101.582c-.08.552.015 1.259.696 1.442.213.057.456.05.648.142.256.124.334.378.381.609.08.38.134.766.165 1.154l.011-.186zM76.307 72.276a2.462 2.462 0 0 1-2.21 1.187c-.465-.023-.995-.17-1.36.048-.245.142-.32.408-.518.593-.472.44-1.376.291-2.075.102a2.239 2.239 0 0 1-.735-.294.927.927 0 0 1-.364-.589c0 .262 0 .525-.016.787-.03.47-.065 1.01.38 1.334.226.14.475.24.735.293.7.19 1.603.338 2.075-.1.198-.187.273-.449.519-.595.37-.219.894-.071 1.359-.048a2.462 2.462 0 0 0 2.21-1.187c.362-.653.347-1.39.22-2.095a2.313 2.313 0 0 1-.22.564zM77.925 59.79a2.504 2.504 0 0 0-.516.482 1.02 1.02 0 0 0-.126.643c.026.28.085.555.177.82.142-.152.297-.29.465-.414.837-.71 1.04-1.72.768-2.665-.142.444-.41.838-.768 1.135zM77.677 66.175c-.453.346-1.114.546-1.398.985a1.28 1.28 0 0 0-.165.744c.01.298.047.596.11.888a.682.682 0 0 1 .055-.1c.284-.44.945-.64 1.398-.986.773-.593.839-1.53.61-2.365-.117.332-.33.622-.61.834z"/>
        </g>
        <path fill="#00C692" fill-rule="nonzero" d="M83.505 66.488c-.523 1.328-1.201 1.848-1.201 1.848h-.377l-3.31.034-.383-1.046.536-2.259.331.013c.2.105.415.175.639.205.243 0 .71-.013.852.05.02.01.042.012.063.01.125-.013.256-.201.256-.201s3.116.018 2.594 1.346z"/>
        <path fill="#000" fill-rule="nonzero" d="M83.505 66.488c-.523 1.328-1.201 1.848-1.201 1.848h-.377c.198-.526.611-1.605.773-1.848.162-.243-1.232-.823-2.042-1.137.125-.013.256-.2.256-.2s3.113.01 2.59 1.337z" opacity=".1"/>
    </g>
</svg>
