<svg xmlns="http://www.w3.org/2000/svg" width="150" height="113" viewBox="0 0 150 113">
    <g fill="none" fill-rule="nonzero">
        <path fill="#F2F2F2" d="M31.658 66.376l26.594 17.842-13.516 19.94-26.594-17.843z"/>
        <path fill="#2F2E41" d="M17.252 101.41l-.278-.14c3.616-6.855 1.682-15.757-.576-22.018a66.902 66.902 0 0 0-5.84-12.085l.265-.164a67.244 67.244 0 0 1 5.87 12.147c2.28 6.318 4.226 15.308.56 22.26zM17.825 77.84l2.01-10.946.305.055-2.01 10.947z"/>
        <path fill="#2F2E41" d="M6.24 76.43l.227-.21 10.382 11.1-.227.21zM19.865 95.66l5.266-7.247.252.18-5.267 7.248z"/>
        <ellipse cx="20.934" cy="62.657" fill="#3F3D56" rx="1.638" ry="1.449"/>
        <ellipse cx="3.823" cy="74.247" fill="#3F3D56" rx="1.638" ry="1.449"/>
        <ellipse cx="10.74" cy="75.696" fill="#3F3D56" rx="1.638" ry="1.449"/>
        <ellipse cx="7.464" cy="81.853" fill="#3F3D56" rx="1.638" ry="1.449"/>
        <ellipse cx="27.124" cy="85.837" fill="#3F3D56" rx="1.638" ry="1.449"/>
        <ellipse cx="22.027" cy="87.647" fill="#3F3D56" rx="1.638" ry="1.449"/>
        <ellipse cx="25.303" cy="92.356" fill="#3F3D56" rx="1.638" ry="1.449"/>
        <ellipse cx="9.284" cy="64.468" fill="#3F3D56" rx="1.638" ry="1.449"/>
        <path fill="#3F3D56" d="M79.159 102.903c3.28 3.56-.282 16.004-39.58 6.73C18.291 104.609 0 104.718 0 102.903c0-1.816 17.72.156 39.58.156 21.858 0 38.356-1.484 39.579-.156z"/>
        <path fill="#000" d="M79.159 102.903c3.28 3.56-.282 16.004-39.58 6.73C18.291 104.609 0 104.718 0 102.903c0-1.816 17.72.156 39.58.156 21.858 0 38.356-1.484 39.579-.156z" opacity=".1"/>
        <path fill="#3F3D56" d="M79.159 102.844c3.28 3.514-.282 12.4-39.58 3.245C18.291 101.129 0 104.636 0 102.844S17.72 99.6 39.58 99.6c21.858 0 38.356 1.935 39.579 3.245z"/>
        <path fill="#2F2E41" d="M38.228 24.628h1.82a4.38 4.38 0 0 1 3.09 1.273c.82.815 1.28 1.92 1.28 3.073v6.157H33.858v-6.157c0-2.4 1.956-4.346 4.37-4.346z"/>
        <path fill="#A0616A" d="M37.25 32.955s.43 3.461-.538 3.678c-.967.216-1.396 1.514-1.396 1.514l3.223 2.055 3.33-.65-.322-2.487s-.86-2.488-.43-4.11c.43-1.622-3.868 0-3.868 0z"/>
        <path fill="#000" d="M37.25 32.955s.43 3.461-.538 3.678c-.967.216-1.396 1.514-1.396 1.514l3.223 2.055 3.33-.65-.322-2.487s-.86-2.488-.43-4.11c.43-1.622-3.868 0-3.868 0z" opacity=".1"/>
        <path fill="#A0616A" d="M33.131 73.083l.838 5.604s-.21 5.711 1.258 10.777l1.467 5.065 1.467-1.724.42-6.898s.104-2.479-.315-4.418l.315-9.053-5.45.647zM40.777 71.773l.746 9.793s-.32 10.438-.426 10.76c-.107.324 2.133.754 2.133.754s3.412-8.178 2.346-14.635c0 0-.64-5.488.213-6.887.853-1.4-5.012.215-5.012.215z"/>
        <ellipse cx="39.138" cy="30.966" fill="#A0616A" rx="3.823" ry="3.803"/>
        <path fill="#2F2E41" d="M35.893 37.442s.431 1.614 2.48 1.506c2.05-.108 3.02-1.937 3.02-1.937s2.48 1.291 3.667 1.184l-.324 5.272s-2.049 5.594-1.618 6.885c.432 1.292 9.167 14.848 8.089 20.12 0 0 1.078 1.506-3.02 1.829-4.098.323-3.99-.43-7.333 1.076-3.344 1.506-7.98.645-9.06.43-1.078-.215-4.852-.86-4.852-.86s.863-15.924 5.823-21.303l-.107-9.684-.432-3.658s3.48-1.721 3.573-1.29l.094.43z"/>
        <path fill="#A0616A" d="M51.874 44.91s5.479 3.448 3.33 4.849c-2.148 1.4-9.82 4.93-9.82 4.93s-5.865-2.775-4.36-3.853c1.503-1.077 4.082 1.94 4.082 1.94l6.66-3.987-1.718-1.94 1.826-1.939zM29.552 47.808v15.74s-.518 6.037 1.45 5.606c1.97-.431.415-5.822.415-5.822l.622-9.271v-5.175l-2.487-1.078z"/>
        <path fill="#2F2E41" d="M38.184 90.183s-1.04 2.049-3.233.862c0 0 .578 1.834.578 2.265 0 .431.577 2.696.808 2.912.23.215 0 4.96 1.154 5.176 1.155.216 2.193-2.48 2.193-3.45 0-.971-.346-4.099-.346-4.099s.231-2.049-1.039-2.696l-.115-.97z"/>
        <path fill="#2F2E41" d="M44.053 92.428l-3.028-.434-.649 2.606s-1.73 4.671-1.838 5.432c-.108.76-2.055 3.91-.324 3.91 1.73 0 3.46.109 3.785-.869.324-.978.973-4.345 1.514-5.54.54-1.195-.217-2.39-.217-2.39l.757-2.715zM44.053 38.823l.987-.432s.987 0 2.523 1.73c1.535 1.73 5.592 5.188 5.592 5.188s-2.741 2.703-3.4 2.486c-.657-.216-5.702-4.972-5.702-4.972v-4zM32.594 38.391h-.536s-2.254.216-2.576 3.023c-.322 2.807-.858 6.153-1.073 6.477-.215.324 2.79 1.728 3.327 1.728.537 0 1.395-8.421 1.395-8.421l-.537-2.807zM41.711 29.337h-5.215l-1.18-2.536h7.281z"/>
        <ellipse cx="35.104" cy="30.522" fill="#A0616A" rx="1" ry="1" transform="rotate(-16.16 35.104 30.522)"/>
        <ellipse cx="42.651" cy="30.738" fill="#A0616A" rx="1" ry="1" transform="rotate(-73.84 42.651 30.738)"/>
        <path fill="#F2F2F2" d="M90.044.154l59.933 32.98-19.05 34.265-59.934-32.981z"/>
        <path fill="#00C692" d="M69.539 27.888h22.937v29.699H69.539z"/>
        <path fill="#3F3D56" d="M76.092 32.596h10.194v10.141H76.092zM72.087 44.91h17.84v1.449h-17.84zM72.087 48.17h17.84v1.449h-17.84zM72.087 51.792h17.84v1.449h-17.84z"/>
        <path fill="#00C692" d="M117.961 54.327h22.937v29.699h-22.937z"/>
        <path fill="#3F3D56" d="M121.238 58.311h16.019v1.811h-16.019zM121.238 61.933h16.019v1.811h-16.019zM121.238 66.279h16.019v1.811h-16.019zM121.238 70.263h16.019v1.811h-16.019zM121.238 74.247h16.019v1.811h-16.019zM121.238 78.231h16.019v1.811h-16.019z"/>
        <path fill="#00C692" d="M111.044 3.984h22.937v29.699h-22.937z"/>
        <path fill="#3F3D56" d="M114.684 14.125h16.019v1.811h-16.019zM114.684 17.747h16.019v1.811h-16.019zM114.684 22.093h16.019v1.811h-16.019z"/>
        <ellipse cx="133.434" cy="4.165" fill="#FFF" rx="2.731" ry="2.716"/>
        <path fill="#57B894" d="M133.617 1.087a3.268 3.268 0 0 0-3.277 3.26c0 1.8 1.467 3.259 3.277 3.259s3.276-1.46 3.276-3.26a3.278 3.278 0 0 0-3.276-3.26zm-.673 4.997l-1.68-1.67.472-.469 1.21 1.204 2.553-2.54.471.468-3.026 3.007z"/>
        <ellipse cx="140.716" cy="53.421" fill="#FFF" rx="2.731" ry="2.716"/>
        <path fill="#57B894" d="M140.898 50.343a3.268 3.268 0 0 0-3.277 3.26c0 1.8 1.467 3.26 3.277 3.26s3.277-1.46 3.277-3.26a3.278 3.278 0 0 0-3.277-3.26zm-.673 4.998l-1.679-1.671.471-.469 1.21 1.204 2.554-2.54.47.468-3.026 3.008z"/>
        <ellipse cx="92.294" cy="27.707" fill="#FFF" rx="2.731" ry="2.716"/>
        <path fill="#57B894" d="M92.112 24.628a3.268 3.268 0 0 0-3.277 3.26c0 1.8 1.467 3.26 3.277 3.26s3.276-1.46 3.276-3.26a3.278 3.278 0 0 0-3.276-3.26zm-.673 4.998l-1.68-1.67.472-.47 1.21 1.204 2.553-2.54.471.468-3.026 3.008z"/>
    </g>
</svg>
