<svg xmlns="http://www.w3.org/2000/svg" width="170" height="103" viewBox="0 0 170 103">
    <g fill="none" fill-rule="nonzero">
        <ellipse cx="108.072" cy="97.333" fill="#3F3D56" rx="61.862" ry="5.555"/>
        <path fill="#3F3D56" d="M144.981 45.387H77.835V0h67.146z" opacity=".3"/>
        <path fill="#F2F2F2" d="M120.813 4.158h19.882v21.624h-19.882zM108.551 5.466H89.383V4.159h19.168zM127.6 30.416h-6.786V29.11h6.786zM140.458 32.793h-19.406v-1.307h19.406zM113.075 10.218h-27.62V8.91h27.62zM113.075 13.901h-27.62v-1.307h27.62zM113.075 17.585h-27.62v-1.307h27.62zM113.075 21.267h-27.62V19.96h27.62zM113.075 24.95h-27.62v-1.307h27.62zM113.075 28.634h-27.62v-1.307h27.62zM113.075 32.317h-27.62V31.01h27.62z"/>
        <path fill="#2F2E41" d="M123.8 16.506a3.52 3.52 0 0 1 .962-.482 24.591 24.591 0 0 1 6.783-1.473c2.017-.143 4.203.027 5.779 1.292.245.179.445.412.586.681.198.427.138.923.074 1.39-.015.18-.06.357-.135.522-.212.403-.734.544-1.188.496-.453-.049-.878-.24-1.326-.329a5.938 5.938 0 0 0-.837-.085l-2.804-.151c-1.744-.095-3.511-.187-5.222.164a5.208 5.208 0 0 0-1.508.519c-.391.219-.654.533-1.017.128-.637-.71-.99-2.016-.148-2.672z"/>
        <path fill="#F2F2F2" d="M128.145 17.744s3.772-1.688 5.203.26c1.43 1.947-.78 1.168-.78 1.168l-2.472.779-2.731-.52.78-1.687z"/>
        <path fill="#FFB9B9" d="M128.34 16.51s.52 2.467.13 3.116c-.39.65 2.211 1.558 2.211 1.558l2.472-1.039s-.65-4.024 0-4.803l-4.813 1.169z"/>
        <path fill="#000" d="M128.34 16.51s.52 2.467.13 3.116c-.39.65 2.211 1.558 2.211 1.558l2.472-1.039s-.65-4.024 0-4.803l-4.813 1.169z" opacity=".1"/>
        <path fill="#FFB9B9" d="M134.323 14.044a3.901 3.901 0 0 1-4.595 3.832 3.895 3.895 0 0 1-3.181-4.295 3.9 3.9 0 0 1 4.107-3.424 3.898 3.898 0 0 1 3.67 3.887z"/>
        <path fill="#F2F2F2" d="M136.68 25.901h-12.445l.282-1.222 1.222-5.313 1.412-.951v-.001l.664-.448.33-.222s.195.089.42.21a7.075 7.075 0 0 1 .2.115c.108.063.21.134.307.213l.049.046c.247.247.97 1.559 2.165.888.06-.033.12-.07.175-.11.312-.215.61-.45.89-.704.251-.23.414-.407.547-.529.06-.06.128-.11.203-.15a.386.386 0 0 1 .182-.044c.39 0 .91.779.91.779l.016.045.001.003 1.642 4.92.828 2.475z"/>
        <path fill="#2F2E41" d="M124.235 25.901h3.772a9.142 9.142 0 0 0-.068-1.302c-.116-.869-.4-1.705-.578-2.563a10.76 10.76 0 0 1-.227-2.286c.001-.105.003-.212.013-.32.01-.244.08-.483.206-.693.09-.137.212-.253.307-.384a.789.789 0 0 0 .12-.21.586.586 0 0 0 .035-.177c.021-.392-.335-.77-.72-.932a2.694 2.694 0 0 0-1.684-.068c-.55.159-1.08.376-1.583.647-.17.083-.34.169-.503.264-.194.11-.373.246-.532.404-.405.417-.582.998-.725 1.56-.136.43-.183.882-.137 1.33.001.015.005.03.007.044.142.74.747 1.296 1.07 1.978.373.792.348 1.714.2 2.576l-.024.132h1.05zM139.588 21.147a29.365 29.365 0 0 0-1.027 4.754h-5.377l-.42-1.149a8.601 8.601 0 0 1-.287-.884 4.222 4.222 0 0 1-.11-1.327c.033-.452.138-.896.311-1.315.08-.19.171-.376.274-.555.25-.451.552-.877.821-1.319a6.048 6.048 0 0 0 .439-.85c.16-.373.244-.775.246-1.181-.008-.524-.896-1.438.07-1.35 1.317.119 2.45.875 3.481 1.738.275.23.544.47.808.705.407.366.837.765.96 1.298.019.085.03.172.034.26a3.55 3.55 0 0 1-.223 1.175z"/>
        <path fill="#FFB9B9" d="M131.53 19.715a2.9 2.9 0 0 0-.61-.983 2.266 2.266 0 0 0-.933-.471 5.109 5.109 0 0 0-1.368-.196c-.551-.003-1.19.144-1.424.642-.186.395-.041.863.146 1.258.08.204.213.384.385.52.238.16.545.155.827.209.436.11.85.297 1.221.552l.965.582 1.657 1c-.044-.027-.028-1.16-.079-1.347-.164-.598-.533-1.2-.787-1.766z"/>
        <path fill="#2F2E41" d="M134.225 12.015a.989.989 0 0 0-.43-.56c.011-.25-.02-.499-.09-.738-.236-.698-.796-.658-1.324-.966-.23-.134-.215-.252-.335-.471a1.752 1.752 0 0 0-.676-.689c-.338-.215-.696-.437-1.097-.464-.842-.058-1.488.733-2.294.987-.355.112-.736.117-1.093.222-.357.106-.712.359-.766.726-.024.17.02.344-.006.514-.05.337-.346.573-.544.85-.44.614-.389 1.48-.038 2.148.074.138.159.27.253.395.03.316.12.622.267.903.351.667.955 1.166 1.586 1.58a3.728 3.728 0 0 1-.093-.673.464.464 0 0 1 .028-.224c.07-.146.256-.185.398-.266.293-.166.408-.534.416-.87.009-.337-.063-.674-.027-1.008a.55.55 0 0 1 .189-.406.654.654 0 0 1 .356-.084c.6-.025 1.228-.036 1.758-.32.171-.113.355-.205.547-.276.45-.117.911.198 1.17.584.26.385.39.844.629 1.242.24.398.653.754 1.116.706a.185.185 0 0 0 .138-.061.206.206 0 0 0 .026-.118l.025-1.766a2.664 2.664 0 0 0-.089-.897zM123.934 23.809c.084.695.135 1.392.153 2.092h-3.274v-2.746c.017-.066.035-.131.056-.197.205-.63.635-1.157 1.007-1.705l.055-.082c.159-.23.295-.476.407-.733.054-.126.14-.735.23-.788.388-.224.704.736.757.95.19.761.356 1.53.481 2.306.05.3.092.602.128.903zM140.479 25.901h-7.516c-.065-.15-.128-.302-.194-.451a13.195 13.195 0 0 0-1.803-2.95.78.78 0 0 1-.222-.441.372.372 0 0 1 .048-.199c.115-.212.417-.337.662-.438.254-.102.487-.248.688-.433.179-.16.315-.36.398-.585.022-.066.039-.134.05-.202l.105.136c.084.112.17.223.257.333.833 1.068 1.749 2.12 2.9 2.754.3.167.619.302.948.403a.25.25 0 0 0 .2 0 .241.241 0 0 0 .087-.16c.102-.427.138-.868.213-1.301.138-.79.403-1.551.784-2.256.214-.395.906-1.841 1.346-.93l.38.79.242.502c.3.531.435 1.138.392 1.746l.035 3.682z"/>
        <path fill="#000" d="M124.235 25.901h.651l-.369-1.222-.532-1.762a5.932 5.932 0 0 1-.57 2.655c-.052.108-.106.218-.15.33h.97zM137.5 22.144c-.092.246-.009.518.062.771.205.734.3 1.493.284 2.255a.082.082 0 0 1-.096.098c-.3.018-.644.02-.848-.2l.598-2.924z" opacity=".1"/>
        <path fill="#3F3D56" d="M0 .467h67.146v45.387H0z" opacity=".3"/>
        <path fill="#F2F2F2" d="M4.286 4.626h19.882V26.25H4.286zM36.43 4.626h19.168v1.307H36.43zM4.524 29.576h6.786v1.307H4.524zM4.524 31.953H23.93v1.307H4.524zM31.906 9.378h27.62v1.307h-27.62zM31.906 13.061h27.62v1.307h-27.62zM31.906 16.745h27.62v1.307h-27.62zM31.906 20.428h27.62v1.307h-27.62zM31.906 24.111h27.62v1.307h-27.62zM31.906 27.794h27.62v1.307h-27.62zM31.906 31.477h27.62v1.307h-27.62z"/>
        <path fill="#D0CDE1" d="M23.627 26.368h-2.584a20.88 20.88 0 0 1-.53-1.62 3.235 3.235 0 0 0-.843-1.715 3.18 3.18 0 0 1-.363-.492 2.306 2.306 0 0 1-.229-1.4c.015-.134.037-.266.067-.397.113-.508.302-.995.46-1.489a.566.566 0 0 1 .463-.381.918.918 0 0 1 .606.11c.282.17.428.517.546.834a9614.219 9614.219 0 0 1 1.931 5.178 23.167 23.167 0 0 1 .476 1.372z"/>
        <path fill="#2F2E41" d="M12.867 7.352c-.642.217-1.224.724-1.356 1.388-.06.307-.024.627-.075.937-.119.718-.684 1.266-1.205 1.776-.52.509-1.058 1.1-1.096 1.827-.042.796.536 1.542.436 2.332-.116.919-1.088 1.514-1.328 2.408-.16.597.036 1.24.36 1.768.616 1.004 1.67 1.686 2.792 2.052 1.122.366 2.317.443 3.497.455 1.438.015 2.998-.108 4.078-1.055a3.258 3.258 0 0 0 1.084-2.122c.103-1.097-.356-2.23-.04-3.285.2-.664.699-1.27.624-1.96-.072-.673-.662-1.15-1.067-1.695-.377-.508-.606-1.108-.831-1.7l-.769-2.025c-.15-.398-.317-.816-.653-1.077-.63-.49-1.644-.393-2.381-.292-.684.093-1.412.047-2.07.268z"/>
        <path fill="#A0616A" d="M13.462 14.024s.075 2.253-.15 2.478c-.226.225.902 1.727.902 1.727l2.031-.076 1.053-.825-.902-1.201s-.376-1.952-.075-2.403c.3-.45-2.859.3-2.859.3z"/>
        <path fill="#000" d="M13.462 14.024s.075 2.253-.15 2.478c-.226.225.902 1.727.902 1.727l2.031-.076 1.053-.825-.902-1.201s-.376-1.952-.075-2.403c.3-.45-2.859.3-2.859.3z" opacity=".1"/>
        <ellipse cx="14.703" cy="12.185" fill="#A0616A" rx="2.708" ry="2.703"/>
        <path fill="#D0CDE1" d="M16.091 26.368h2.196c.082-.148.16-.303.248-.443v-.001c.098-.17.235-.313.4-.418.105-.048.205-.108.297-.177a.763.763 0 0 0 .18-.338 5.22 5.22 0 0 0 .248-1.456c.004-.167 0-.335.01-.502.005-.13.021-.259.05-.386.075-.258.185-.505.325-.734l.895-1.622c.054-.152.075-.314.061-.475a1.17 1.17 0 0 0-.193-.61 3.553 3.553 0 0 0-.134-.222 4.936 4.936 0 0 0-.638-.813 5.163 5.163 0 0 0-1.817-1.227 1.055 1.055 0 0 1-.244-.119 1.011 1.011 0 0 1-.224-.267c-.238-.358-.529-.76-.959-.738a.59.59 0 0 0-.454-.03.623.623 0 0 0-.067.02 4.234 4.234 0 0 0-.477.249 2.22 2.22 0 0 1-1.286.233.436.436 0 0 1-.15-.038.768.768 0 0 1-.138-.112.795.795 0 0 0-.79-.126.717.717 0 0 0-.314.221c-.078.099-.133.218-.22.31-.225.24-.597.25-.925.249a8.566 8.566 0 0 0-2.032.186 3.866 3.866 0 0 0-1.6.772l-.002.002a3.1 3.1 0 0 0-.183.17c-.135.127-.243.28-.317.451-.09.233-.078.495-.16.732-.09.265-.292.481-.373.747-.062.202-.054.426-.156.609l.013.01c.433.38.804.88 1.238 1.256.252.192.466.43.629.701.031.061.057.125.077.19.05.227.07.46.064.692.055 1.11.659 2.118 1.334 3.002a.874.874 0 0 0 .04.052h5.548z"/>
        <path fill="#D0CDE1" d="M9.028 22.432l-.31 2.127c-.047.38-.118.755-.212 1.126-.062.23-.141.454-.197.683h-3.1c.001-.128.011-.256.03-.383.08-.457.209-.904.386-1.332l1.081-2.918c.154-.415.286-.849.455-1.26.03-.076.062-.152.097-.226.18-.394.678-.232 1.047-.173.101.013.2.04.293.083.112.062.207.151.275.26.35.516.274 1.2.183 1.817l-.028.196z"/>
        <path fill="#2F2E41" d="M18.535 25.925c.005.017.056.194.14.443h-2.584c1.281-.22 2.444-.444 2.444-.444v.001z"/>
        <ellipse cx="14.929" cy="10.609" fill="#2F2E41" rx="2.934" ry="1.577"/>
        <path fill="#3F3D56" d="M43.015 17.175h67.146v45.387H43.015z"/>
        <ellipse cx="100.399" cy="58.641" fill="#000" opacity=".1" rx="7.858" ry="1"/>
        <path fill="#F2F2F2" d="M47.301 21.334h19.882v21.624H47.301z"/>
        <path fill="#2F2E41" d="M53.703 31.262a.292.292 0 0 0 .342-.14c.275-.433-.231-.99-.121-1.491.087-.4.544-.639.637-1.038.09-.389-.189-.826 0-1.178.148-.275.518-.347.827-.3.31.05.603.185.915.204.416.025.813-.158 1.22-.248.407-.09.904-.055 1.143.285.308.438-.004 1.047.103 1.57.085.416.433.76.441 1.185.003.15-.395.03-.373.179.02.149-.167.017-.017 0a.297.297 0 0 0 .226-.268c.018-.125.252-.166.25-.292-.007-.294.526-.096.614-.377a2.846 2.846 0 0 0-.117-1.989 3.979 3.979 0 0 1-.34-.809c-.078-.39.045-.81-.084-1.186-.174-.507-.75-.766-1.286-.819-.535-.052-1.078.042-1.61-.036-.477-.07-.938-.275-1.42-.245-.576.035-1.078.406-1.478.823-.4.416-.739.895-1.193 1.252a2.339 2.339 0 0 0-.382.329c-.232.28-.255.682-.19 1.04.064.358.204.7.263 1.059.055.337.038.682.062 1.023.006.344.11.679.3.966.168.226.43.363.712.37.096.002.177-.084.274-.061.122.028.174.143.282.192z"/>
        <path fill="#575A89" d="M49.33 43.077l.153-2.078.562-1.478 1.804 3.556H49.33z"/>
        <path fill="#000" d="M49.33 43.077l.153-2.078.562-1.478 1.804 3.556H49.33z" opacity=".1"/>
        <path fill="#A0616A" d="M53.51 31.383s1.683 4.273.714 5.086c-.968.814 5.402-1.373 5.402-1.373l-.152-.56s-2.09-.813-1.07-3.153c1.019-2.34-4.893 0-4.893 0z"/>
        <path fill="#000" d="M53.51 31.383s1.683 4.273.714 5.086c-.968.814 5.402-1.373 5.402-1.373l-.152-.56s-2.09-.813-1.07-3.153c1.019-2.34-4.893 0-4.893 0z" opacity=".1"/>
        <ellipse cx="55.906" cy="29.552" fill="#A0616A" rx="3.568" ry="3.56"/>
        <path fill="#575A89" d="M64.57 37.232l-.04.777a611.195 611.195 0 0 0-.234 5.068h-13.83a6.839 6.839 0 0 1-.88-1.572 1.693 1.693 0 0 1-.103-.506c-.076-1.349 1.135-3.23 1.99-3.41.968-.205 2.802-2.137 2.802-2.137.012.15.1.283.234.352v.001a.95.95 0 0 0 .48.105c.597 0 3.226-1.21 4.07-1.606l.262-.124c.973.42 1.979.76 3.007 1.018a3.196 3.196 0 0 1 2.242 2.034z"/>
        <path fill="#2F2E41" d="M53.092 30.906a.292.292 0 0 0 .342-.14c.275-.433-.232-.99-.122-1.491.088-.401.544-.639.638-1.038.09-.389-.19-.826 0-1.178.148-.275.517-.347.826-.3.31.05.603.185.915.204.417.025.814-.158 1.22-.248.408-.091.904-.055 1.144.285.307.438-.005 1.047.102 1.57.085.416 1.054.708 1.142.427a2.846 2.846 0 0 0-.117-1.989 3.98 3.98 0 0 1-.34-.809c-.079-.39.044-.81-.085-1.186-.174-.507-.75-.766-1.285-.819-.535-.052-1.08.042-1.611-.036-.477-.07-.938-.275-1.419-.245-.577.035-1.078.406-1.478.823-.4.416-.74.895-1.193 1.252a2.339 2.339 0 0 0-.383.329c-.231.28-.255.682-.19 1.04.064.358.204.7.263 1.059.056.337.039.682.062 1.023.006.344.11.679.301.966.167.226.43.363.711.37.096.002.177-.084.275-.061.121.028.174.143.282.192z"/>
        <path fill="#000" d="M66.338 43.077h-4.036c-.307-2.248-.561-4.598-.561-4.598l.816-.357 1.657-.89s.121.288.316.777a71.62 71.62 0 0 1 1.808 5.068z" opacity=".1"/>
        <path fill="#575A89" d="M66.694 43.077h-4.555a258.05 258.05 0 0 1-1.34-5.133l1.733-1.271 2.038.56s1.193 2.833 2.124 5.844z"/>
        <path fill="#00C692" d="M79.445 21.334h19.168v1.307H79.445zM47.539 46.285h6.786v1.307h-6.786zM47.539 48.661h19.406v1.307H47.539z"/>
        <path fill="#F2F2F2" d="M74.921 26.086h27.62v1.307h-27.62zM74.921 29.77h27.62v1.307h-27.62zM74.921 33.453h27.62v1.307h-27.62zM74.921 37.136h27.62v1.307h-27.62zM74.921 40.819h27.62v1.307h-27.62zM74.921 44.502h27.62v1.307h-27.62zM74.921 48.186h27.62v1.307h-27.62z"/>
        <path fill="#57B894" d="M107.866 48.362l-7.55 7.535-3.174-3.167a1.086 1.086 0 0 0-1.534 0l-.114-.17c-.424.423-.31 1.278.114 1.701l4.117 4.11a.829.829 0 0 0 1.17 0l8.504-8.478c.424-.422.578-1.197.154-1.62-.424-.423-1.264-.333-1.687.09z"/>
        <path fill="#000" d="M107.866 48.362l-7.55 7.535-3.174-3.167a1.086 1.086 0 0 0-1.534 0l-.114-.17c-.424.423-.31 1.278.114 1.701l4.117 4.11a.829.829 0 0 0 1.17 0l8.504-8.478c.424-.422.578-1.197.154-1.62-.424-.423-1.264-.333-1.687.09z" opacity=".1"/>
        <path fill="#57B894" d="M107.866 48.028l-7.55 7.535-3.174-3.167a1.086 1.086 0 0 0-1.534 0 1.082 1.082 0 0 0 0 1.531l4.117 4.11a.829.829 0 0 0 1.17 0l8.504-8.478a1.08 1.08 0 0 0 0-1.53 1.086 1.086 0 0 0-1.533 0z"/>
        <path fill="#000" d="M163.414 91.671c0 8.496-11.867 5.869-26.396 5.869-14.53 0-26.22 2.627-26.22-5.869 0-8.496 11.865-10.343 26.394-10.343 14.53 0 26.222 1.847 26.222 10.343z" opacity=".1"/>
        <path fill="#3F3D56" d="M163.414 90.084c0 8.496-11.867 5.869-26.396 5.869-14.53 0-26.22 2.627-26.22-5.869 0-8.496 11.865-10.344 26.394-10.344 14.53 0 26.222 1.848 26.222 10.344z"/>
        <path fill="#FFC1C7" d="M113.808 63.468l-.537.623s-6.538.613-6.273 1.672c.266 1.059 7.872-1.412 7.872-1.412l-1.062-.883z"/>
        <path fill="#00C692" d="M125.66 62.938s-6.987 2.472-10.79 1.413l1.769 3.53s9.021-.265 10.613-1.853c1.592-1.59-1.592-3.09-1.592-3.09z"/>
        <path fill="#000" d="M125.66 62.938s-6.987 2.472-10.79 1.413l1.769 3.53s9.021-.265 10.613-1.853c1.592-1.59-1.592-3.09-1.592-3.09z" opacity=".1"/>
        <ellipse cx="120.928" cy="39.327" fill="#FFC1C7" rx="4.688" ry="4.678"/>
        <path fill="#FFC1C7" d="M124.925 43.72c.162.307.366.59.608.84a7.666 7.666 0 0 0 2.259 1.687 77.14 77.14 0 0 1-8.05 1.194c.285-1.003-.09-2.075-.596-2.988-.505-.913-1.148-1.763-1.464-2.757l3.168.085c.575.015 1.152.033 1.727.004.43-.02 1.145-.277 1.546-.183.848.2.432 1.367.802 2.117z"/>
        <path fill="#2F2E41" d="M135.566 65.675l2.653 3.177s4.422 10.327-5.218 11.386c-9.64 1.06-16.805-.794-16.805-.794s-3.891-1.854-3.98-.441c-.088 1.412-.442 5.384-2.564 9.268l-1.858 4.236s-.973.971-.707 2.295c.265 1.324-5.926 1.765-5.838 0 0 0 .885-1.5.885-2.383s1.415-3.001 1.415-3.001l2.565-12.71s-.177-6.532 5.837-5.296c6.014 1.236 14.593-.265 14.593-.265l1.946-6.796 7.076 1.324z"/>
        <path fill="#000" d="M135.566 65.675l2.653 3.177s4.422 10.327-5.218 11.386c-9.64 1.06-16.805-.794-16.805-.794s-3.891-1.854-3.98-.441c-.088 1.412-.442 5.384-2.564 9.268l-1.858 4.236s-.973.971-.707 2.295c.265 1.324-5.926 1.765-5.838 0 0 0 .885-1.5.885-2.383s1.415-3.001 1.415-3.001l2.565-12.71s-.177-6.532 5.837-5.296c6.014 1.236 14.593-.265 14.593-.265l1.946-6.796 7.076 1.324z" opacity=".1"/>
        <path fill="#2F2E41" d="M125.616 65.442s8.092-3.033 12.603 3.41c0 0 1.15 9.974-3.45 10.415-4.598.442-10.613.353-12.028-1.147-1.415-1.5-10.348-5.737-10.348-5.737s-4.446-2.264-5.319.677c-.872 2.942-.96 3.648-.96 3.648s-4.6 3.354-6.457 3.972c0 0-1.238 1.765-1.945 1.765-.708 0-5.042.97-4.6-2.295l7.164-6.532 7.164-6.973s2.035-3 7.253-1.412a108.074 108.074 0 0 0 10.525 2.56l.398-2.35z"/>
        <path fill="#CBCEDA" d="M106.821 94.626s1.68 4.236.266 4.766c-1.415.53-4.423.176-4.423.176s-3.537-.44-4.422-.353c-.884.089-4.51-.617-3.98-2.03.53-1.412 3.273-1.059 3.273-1.059l2.476-1.147s.265-.883.885-.53c.619.353 2.388 1.677 5.925.177zM97.623 82.092s1.857 4.148-1.15 3.795c-3.007-.353-5.306-.97-6.19-1.059-.851-.085-3.257-.905-2.888-2.538a1.45 1.45 0 0 0 .024-.32c0-.22.298-.65 2.686-.584 0 0 1.77 0 2.477-1.236 0 0 2.653 3.354 5.041 1.942z"/>
        <path fill="#00C692" d="M117.7 46.786s6.368-3.972 11.675 0c5.306 3.972 8.844 22.066 8.844 22.066l-12.294-2.736s-.53-2.118-1.238-2.472c-.707-.353-.796-1.853-.796-1.853s-3.803-1.148-3.538-5.56c.266-4.414-2.653-9.445-2.653-9.445z"/>
        <path fill="#00C692" d="M120.972 46.962H117.7s-1.946 2.207-2.211 7.768l-1.061 4.413s-2.212 5.296-.885 6.178c1.327.883 3.892.795 4.422-.97.531-1.766 4.157-12.005 4.157-12.005l-1.15-5.384z"/>
        <path fill="#2F2E41" d="M120.035 33.24a4.746 4.746 0 0 1 4.901.801c1.699 1.513 2.041 3.98 2.47 6.212.43 2.231 1.294 4.716 3.401 5.576a8.877 8.877 0 0 1-2.855-.083l3.185 2.848-5.364-1.745c-1.684-.547-3.452-1.102-5.195-.793-2.888.513-4.9 3.222-7.673 4.174l.308-1.501-1.86-.014a3.64 3.64 0 0 0 1.065-1.247 1.033 1.033 0 0 0-.711-.372c-.776-4.829 2.097-9.603 5.842-12.758.736-.62 1.552-1.216 2.503-1.371.951-.156 2.062.269 2.392 1.172"/>
        <path fill="#3F3D56" d="M38.88 77.497c0 10.16 6.387 18.381 14.28 18.381"/>
        <path fill="#00C692" d="M53.16 95.878c0-10.274 7.126-18.587 15.934-18.587M44.054 78.418c0 9.65 4.072 17.46 9.105 17.46"/>
        <path fill="#3F3D56" d="M53.16 95.878c0-13.128 8.237-23.75 18.417-23.75"/>
        <path fill="#A8A8A8" d="M50.155 96.008s2.025-.063 2.636-.496c.61-.434 3.115-.952 3.266-.256.151.695 3.043 3.459.757 3.477-2.286.019-5.312-.355-5.921-.725-.61-.37-.738-2-.738-2z"/>
        <path fill="#000" d="M56.855 98.491c-2.286.019-5.312-.355-5.921-.725-.464-.282-.65-1.294-.711-1.761l-.068.003s.129 1.63.738 2c.609.37 3.635.744 5.921.725.66-.005.888-.24.875-.586-.091.21-.343.34-.834.344z" opacity=".2"/>
    </g>
</svg>
