<svg xmlns="http://www.w3.org/2000/svg" width="163" height="18" viewBox="0 0 163 18">
    <g fill="none" fill-rule="evenodd">
        <path d="M-14-19h178v51H-14z"/>
        <text fill="#1D425A" font-family="BrunoAce-Regular, Bruno Ace" font-size="22" transform="translate(0 -5)">
            <tspan x="29.064" y="21">accolades</tspan>
        </text>
        <path fill="#00C692" d="M7.028 3.336c-1.4.896-2.501 1.895-3.304 2.996-.803 1.101-1.204 2.399-1.204 3.892 0 .84.177 1.685.532 2.534.355.85.887 1.554 1.596 2.114.71.56 1.559.84 2.548.84.803 0 1.517-.187 2.142-.56a3.907 3.907 0 0 0 1.456-1.512 4.322 4.322 0 0 0 .518-2.1c0-.877-.266-1.773-.798-2.688a7.638 7.638 0 0 0-2.086-2.324c-.859-.635-1.736-.99-2.632-1.064.373-.373.821-.765 1.344-1.176.523-.41 1.055-.812 1.596-1.204 1.288.43 2.305 1.246 3.052 2.45.747 1.204 1.12 2.543 1.12 4.018a9.22 9.22 0 0 1-.798 3.766 7.186 7.186 0 0 1-2.338 2.94c-1.027.756-2.24 1.134-3.64 1.134a6.024 6.024 0 0 1-3.094-.826 6 6 0 0 1-2.226-2.254C.271 13.36 0 12.305 0 11.148c0-2.035.602-3.799 1.806-5.292 1.204-1.493 2.777-2.53 4.718-3.108l.504.588z"/>
        <path fill="#1D425A" d="M10.872 4.38c.143-.115.254-.191.328-.246C12.227 3.378 13.44 3 14.84 3c1.12 0 2.151.275 3.094.826A6 6 0 0 1 20.16 6.08c.541.952.812 2.007.812 3.164 0 2.035-.602 3.799-1.806 5.292-1.204 1.493-2.777 2.53-4.718 3.108l-.504-.588c1.4-.896 2.501-1.895 3.304-2.996.803-1.101 1.204-2.399 1.204-3.892 0-.84-.177-1.685-.532-2.534a5.199 5.199 0 0 0-1.596-2.114c-.71-.56-1.559-.84-2.548-.84-.803 0-1.53.22-2.154.593a12.57 12.57 0 0 0-.422-.541 7.637 7.637 0 0 0-.328-.353zM9.66 8.851c0 .877.266 1.773.798 2.688a7.638 7.638 0 0 0 2.086 2.324c.859.635 1.736.99 2.632 1.064-.373.373-.821.765-1.344 1.176-.523.41-1.055.812-1.596 1.204-1.288-.43-2.305-1.246-3.052-2.45-.747-1.204-1.12-2.543-1.12-4.018a9.22 9.22 0 0 1 .861-3.906c.336.28.357.308.446.405.027.029.26.282.416.474-.085.532-.127.878-.127 1.039z"/>
    </g>
</svg>
