<svg xmlns="http://www.w3.org/2000/svg" width="63" height="45" viewBox="0 0 63 45">
    <g fill="none" fill-rule="evenodd">
        <path fill="#00C692" d="M21.084 1.764c-4.2 2.688-7.504 5.684-9.912 8.988-2.408 3.304-3.612 7.196-3.612 11.676 0 2.52.532 5.054 1.596 7.602s2.66 4.662 4.788 6.342c2.128 1.68 4.676 2.52 7.644 2.52 2.408 0 4.55-.56 6.426-1.68a11.72 11.72 0 0 0 4.368-4.536c1.036-1.904 1.554-4.004 1.554-6.3 0-2.632-.798-5.32-2.394-8.064a22.915 22.915 0 0 0-6.258-6.972c-2.576-1.904-5.208-2.968-7.896-3.192 1.12-1.12 2.464-2.296 4.032-3.528a152.893 152.893 0 0 1 4.788-3.612c3.864 1.288 6.916 3.738 9.156 7.35 2.24 3.612 3.36 7.63 3.36 12.054 0 3.92-.798 7.686-2.394 11.298s-3.934 6.552-7.014 8.82c-3.08 2.268-6.72 3.402-10.92 3.402-3.36 0-6.454-.826-9.282-2.478-2.828-1.652-5.054-3.906-6.678-6.762C.812 31.836 0 28.672 0 25.2c0-6.104 1.806-11.396 5.418-15.876C9.03 4.844 13.748 1.736 19.572 0l1.512 1.764z"/>
        <path fill="#1D425A" d="M32.617 4.894c.427-.344.76-.572.983-.736C36.68 1.89 40.32.756 44.52.756c3.36 0 6.454.826 9.282 2.478 2.828 1.652 5.054 3.906 6.678 6.762 1.624 2.856 2.436 6.02 2.436 9.492 0 6.104-1.806 11.396-5.418 15.876-3.612 4.48-8.33 7.588-14.154 9.324l-1.512-1.764c4.2-2.688 7.504-5.684 9.912-8.988 2.408-3.304 3.612-7.196 3.612-11.676 0-2.52-.532-5.054-1.596-7.602s-2.66-4.662-4.788-6.342c-2.128-1.68-4.676-2.52-7.644-2.52-2.408 0-4.587.66-6.463 1.78A37.712 37.712 0 0 0 33.6 5.951a22.911 22.911 0 0 0-.983-1.058zM28.98 18.312c0 2.632.798 5.32 2.394 8.064a22.915 22.915 0 0 0 6.258 6.972c2.576 1.904 5.208 2.968 7.896 3.192-1.12 1.12-2.464 2.296-4.032 3.528a152.893 152.893 0 0 1-4.788 3.612c-3.864-1.288-6.916-3.738-9.156-7.35-2.24-3.612-3.36-7.63-3.36-12.054a27.66 27.66 0 0 1 2.584-11.718c1.008.84 1.07.925 1.338 1.216.079.085.78.844 1.247 1.42-.254 1.596-.381 2.635-.381 3.118z"/>
    </g>
</svg>
